<?xml version="1.0" encoding="UTF-8"?><svg xmlns="http://www.w3.org/2000/svg" xmlns:xlink="http://www.w3.org/1999/xlink" contentStyleType="text/css" height="305px" preserveAspectRatio="none" style="width:1929px;height:305px;background:#FFFFFF;" version="1.1" viewBox="0 0 1929 305" width="1929px" zoomAndPan="magnify">
    <defs/>
    <g>
        <!--cluster Administracion-->
        <g id="cluster_Administracion">
            <path d="M8.5,174 L113.5,174 A3.75,3.75 0 0 1 116,176.5 L123,197.6094 L189.5,197.6094 A2.5,2.5 0 0 1 192,200.1094 L192,271.5 A2.5,2.5 0 0 1 189.5,274 L8.5,274 A2.5,2.5 0 0 1 6,271.5 L6,176.5 A2.5,2.5 0 0 1 8.5,174 " fill="none" style="stroke:#000000;stroke-width:1.5;"/>
            <line style="stroke:#000000;stroke-width:1.5;" x1="6" x2="123" y1="197.6094" y2="197.6094"/>
            <text fill="#000000" font-family="sans-serif" font-size="14" font-weight="bold" lengthAdjust="spacing" textLength="104" x="10" y="190.5332">Administracion</text>
        </g>
        <!--cluster Clientes-->
        <g id="cluster_Clientes">
            <path d="M218.5,174 L277.5,174 A3.75,3.75 0 0 1 280,176.5 L287,197.6094 L359.5,197.6094 A2.5,2.5 0 0 1 362,200.1094 L362,271.5 A2.5,2.5 0 0 1 359.5,274 L218.5,274 A2.5,2.5 0 0 1 216,271.5 L216,176.5 A2.5,2.5 0 0 1 218.5,174 " fill="none" style="stroke:#000000;stroke-width:1.5;"/>
            <line style="stroke:#000000;stroke-width:1.5;" x1="216" x2="287" y1="197.6094" y2="197.6094"/>
            <text fill="#000000" font-family="sans-serif" font-size="14" font-weight="bold" lengthAdjust="spacing" textLength="58" x="220" y="190.5332">Clientes</text>
        </g>
        <!--cluster Habitaciones-->
        <g id="cluster_Habitaciones">
            <path d="M388.5,174 L480.5,174 A3.75,3.75 0 0 1 483,176.5 L490,197.6094 L559.5,197.6094 A2.5,2.5 0 0 1 562,200.1094 L562,271.5 A2.5,2.5 0 0 1 559.5,274 L388.5,274 A2.5,2.5 0 0 1 386,271.5 L386,176.5 A2.5,2.5 0 0 1 388.5,174 " fill="none" style="stroke:#000000;stroke-width:1.5;"/>
            <line style="stroke:#000000;stroke-width:1.5;" x1="386" x2="490" y1="197.6094" y2="197.6094"/>
            <text fill="#000000" font-family="sans-serif" font-size="14" font-weight="bold" lengthAdjust="spacing" textLength="91" x="390" y="190.5332">Habitaciones</text>
        </g>
        <!--cluster Inicio-->
        <g id="cluster_Inicio">
            <path d="M1058.5,6 L1097.5,6 A3.75,3.75 0 0 1 1100,8.5 L1107,29.6094 L1340.5,29.6094 A2.5,2.5 0 0 1 1343,32.1094 L1343,103.5 A2.5,2.5 0 0 1 1340.5,106 L1058.5,106 A2.5,2.5 0 0 1 1056,103.5 L1056,8.5 A2.5,2.5 0 0 1 1058.5,6 " fill="none" style="stroke:#000000;stroke-width:1.5;"/>
            <line style="stroke:#000000;stroke-width:1.5;" x1="1056" x2="1107" y1="29.6094" y2="29.6094"/>
            <text fill="#000000" font-family="sans-serif" font-size="14" font-weight="bold" lengthAdjust="spacing" textLength="38" x="1060" y="22.5332">Inicio</text>
        </g>
        <!--cluster Reservas-->
        <g id="cluster_Reservas">
            <path d="M588.5,174 L656.5,174 A3.75,3.75 0 0 1 659,176.5 L666,197.6094 L737.5,197.6094 A2.5,2.5 0 0 1 740,200.1094 L740,271.5 A2.5,2.5 0 0 1 737.5,274 L588.5,274 A2.5,2.5 0 0 1 586,271.5 L586,176.5 A2.5,2.5 0 0 1 588.5,174 " fill="none" style="stroke:#000000;stroke-width:1.5;"/>
            <line style="stroke:#000000;stroke-width:1.5;" x1="586" x2="666" y1="197.6094" y2="197.6094"/>
            <text fill="#000000" font-family="sans-serif" font-size="14" font-weight="bold" lengthAdjust="spacing" textLength="67" x="590" y="190.5332">Reservas</text>
        </g>
        <!--cluster javafx-->
        <g id="cluster_javafx">
            <path d="M766.5,130 L809.5,130 A3.75,3.75 0 0 1 812,132.5 L819,153.6094 L1759.5,153.6094 A2.5,2.5 0 0 1 1762,156.1094 L1762,295.5 A2.5,2.5 0 0 1 1759.5,298 L766.5,298 A2.5,2.5 0 0 1 764,295.5 L764,132.5 A2.5,2.5 0 0 1 766.5,130 " fill="none" style="stroke:#000000;stroke-width:1.5;"/>
            <line style="stroke:#000000;stroke-width:1.5;" x1="764" x2="819" y1="153.6094" y2="153.6094"/>
            <text fill="#000000" font-family="sans-serif" font-size="14" font-weight="bold" lengthAdjust="spacing" textLength="42" x="768" y="146.5332">javafx</text>
        </g>
        <!--cluster application-->
        <g id="cluster_application">
            <path d="M954.5,174 L1032.5,174 A3.75,3.75 0 0 1 1035,176.5 L1042,197.6094 L1202.5,197.6094 A2.5,2.5 0 0 1 1205,200.1094 L1205,271.5 A2.5,2.5 0 0 1 1202.5,274 L954.5,274 A2.5,2.5 0 0 1 952,271.5 L952,176.5 A2.5,2.5 0 0 1 954.5,174 " fill="none" style="stroke:#000000;stroke-width:1.5;"/>
            <line style="stroke:#000000;stroke-width:1.5;" x1="952" x2="1042" y1="197.6094" y2="197.6094"/>
            <text fill="#000000" font-family="sans-serif" font-size="14" font-weight="bold" lengthAdjust="spacing" textLength="77" x="956" y="190.5332">application</text>
        </g>
        <!--cluster event-->
        <g id="cluster_event">
            <path d="M790.5,174 L832.5,174 A3.75,3.75 0 0 1 835,176.5 L842,197.6094 L925.5,197.6094 A2.5,2.5 0 0 1 928,200.1094 L928,271.5 A2.5,2.5 0 0 1 925.5,274 L790.5,274 A2.5,2.5 0 0 1 788,271.5 L788,176.5 A2.5,2.5 0 0 1 790.5,174 " fill="none" style="stroke:#000000;stroke-width:1.5;"/>
            <line style="stroke:#000000;stroke-width:1.5;" x1="788" x2="842" y1="197.6094" y2="197.6094"/>
            <text fill="#000000" font-family="sans-serif" font-size="14" font-weight="bold" lengthAdjust="spacing" textLength="41" x="792" y="190.5332">event</text>
        </g>
        <!--cluster fxml-->
        <g id="cluster_fxml">
            <path d="M1357.5,174 L1387.5,174 A3.75,3.75 0 0 1 1390,176.5 L1397,197.6094 L1498.5,197.6094 A2.5,2.5 0 0 1 1501,200.1094 L1501,271.5 A2.5,2.5 0 0 1 1498.5,274 L1357.5,274 A2.5,2.5 0 0 1 1355,271.5 L1355,176.5 A2.5,2.5 0 0 1 1357.5,174 " fill="none" style="stroke:#000000;stroke-width:1.5;"/>
            <line style="stroke:#000000;stroke-width:1.5;" x1="1355" x2="1397" y1="197.6094" y2="197.6094"/>
            <text fill="#000000" font-family="sans-serif" font-size="14" font-weight="bold" lengthAdjust="spacing" textLength="29" x="1359" y="190.5332">fxml</text>
        </g>
        <!--cluster scene-->
        <g id="cluster_scene">
            <path d="M1527.5,174 L1571.5,174 A3.75,3.75 0 0 1 1574,176.5 L1581,197.6094 L1735.5,197.6094 A2.5,2.5 0 0 1 1738,200.1094 L1738,271.5 A2.5,2.5 0 0 1 1735.5,274 L1527.5,274 A2.5,2.5 0 0 1 1525,271.5 L1525,176.5 A2.5,2.5 0 0 1 1527.5,174 " fill="none" style="stroke:#000000;stroke-width:1.5;"/>
            <line style="stroke:#000000;stroke-width:1.5;" x1="1525" x2="1581" y1="197.6094" y2="197.6094"/>
            <text fill="#000000" font-family="sans-serif" font-size="14" font-weight="bold" lengthAdjust="spacing" textLength="43" x="1529" y="190.5332">scene</text>
        </g>
        <!--cluster stage-->
        <g id="cluster_stage">
            <path d="M1231.5,174 L1271.5,174 A3.75,3.75 0 0 1 1274,176.5 L1281,197.6094 L1328.5,197.6094 A2.5,2.5 0 0 1 1331,200.1094 L1331,271.5 A2.5,2.5 0 0 1 1328.5,274 L1231.5,274 A2.5,2.5 0 0 1 1229,271.5 L1229,176.5 A2.5,2.5 0 0 1 1231.5,174 " fill="none" style="stroke:#000000;stroke-width:1.5;"/>
            <line style="stroke:#000000;stroke-width:1.5;" x1="1229" x2="1281" y1="197.6094" y2="197.6094"/>
            <text fill="#000000" font-family="sans-serif" font-size="14" font-weight="bold" lengthAdjust="spacing" textLength="39" x="1233" y="190.5332">stage</text>
        </g>
        <!--cluster utilidades-->
        <g id="cluster_utilidades">
            <path d="M1788.5,174 L1858.5,174 A3.75,3.75 0 0 1 1861,176.5 L1868,197.6094 L1919.5,197.6094 A2.5,2.5 0 0 1 1922,200.1094 L1922,271.5 A2.5,2.5 0 0 1 1919.5,274 L1788.5,274 A2.5,2.5 0 0 1 1786,271.5 L1786,176.5 A2.5,2.5 0 0 1 1788.5,174 " fill="none" style="stroke:#000000;stroke-width:1.5;"/>
            <line style="stroke:#000000;stroke-width:1.5;" x1="1786" x2="1868" y1="197.6094" y2="197.6094"/>
            <text fill="#000000" font-family="sans-serif" font-size="14" font-weight="bold" lengthAdjust="spacing" textLength="69" x="1790" y="190.5332">utilidades</text>
        </g>
        <!--class AdministracionMain-->
        <g id="elem_AdministracionMain">
            <rect codeLine="1" fill="#F1F1F1" height="48" id="AdministracionMain" rx="2.5" ry="2.5" style="stroke:#181818;stroke-width:0.5;" width="154" x="22" y="210"/>
            <ellipse cx="37" cy="226" fill="#ADD1B2" rx="11" ry="11" style="stroke:#181818;stroke-width:1.0;"/>
            <path d="M39.7656,221.875 Q39.9219,221.6563 40.1094,221.5469 Q40.2969,221.4375 40.5156,221.4375 Q40.8906,221.4375 41.125,221.7031 Q41.3594,221.9531 41.3594,222.5625 L41.3594,224.0156 Q41.3594,224.625 41.125,224.8906 Q40.8906,225.1563 40.5156,225.1563 Q40.1719,225.1563 39.9688,224.9531 Q39.7656,224.7656 39.6563,224.25 Q39.6094,223.8906 39.4219,223.7031 Q39.0938,223.3281 38.4844,223.1094 Q37.875,222.8906 37.25,222.8906 Q36.4844,222.8906 35.8438,223.2188 Q35.2188,223.5469 34.7188,224.2969 Q34.2344,225.0469 34.2344,226.0781 L34.2344,227.1719 Q34.2344,228.4063 35.125,229.2344 Q36.0156,230.0469 37.6094,230.0469 Q38.5469,230.0469 39.2031,229.7969 Q39.5938,229.6406 40.0156,229.2031 Q40.2813,228.9375 40.4219,228.8594 Q40.5781,228.7813 40.7813,228.7813 Q41.1094,228.7813 41.3594,229.0469 Q41.625,229.2969 41.625,229.6406 Q41.625,229.9844 41.2813,230.3906 Q40.7813,230.9688 39.9844,231.2969 Q38.9063,231.75 37.6094,231.75 Q36.0938,231.75 34.8906,231.125 Q33.9063,230.625 33.2188,229.5625 Q32.5313,228.4844 32.5313,227.2031 L32.5313,226.0469 Q32.5313,224.7188 33.1406,223.5781 Q33.7656,222.4219 34.8594,221.8125 Q35.9531,221.1875 37.1875,221.1875 Q37.9219,221.1875 38.5625,221.3594 Q39.2188,221.5156 39.7656,221.875 Z " fill="#000000"/>
            <text fill="#000000" font-family="sans-serif" font-size="14" lengthAdjust="spacing" textLength="122" x="51" y="231.7285">AdministracionMain</text>
            <line style="stroke:#181818;stroke-width:0.5;" x1="23" x2="175" y1="242" y2="242"/>
            <line style="stroke:#181818;stroke-width:0.5;" x1="23" x2="175" y1="250" y2="250"/>
        </g>
        <!--class ClientesMain-->
        <g id="elem_ClientesMain">
            <rect codeLine="2" fill="#F1F1F1" height="48" id="ClientesMain" rx="2.5" ry="2.5" style="stroke:#181818;stroke-width:0.5;" width="113" x="232.5" y="210"/>
            <ellipse cx="247.5" cy="226" fill="#ADD1B2" rx="11" ry="11" style="stroke:#181818;stroke-width:1.0;"/>
            <path d="M250.2656,221.875 Q250.4219,221.6563 250.6094,221.5469 Q250.7969,221.4375 251.0156,221.4375 Q251.3906,221.4375 251.625,221.7031 Q251.8594,221.9531 251.8594,222.5625 L251.8594,224.0156 Q251.8594,224.625 251.625,224.8906 Q251.3906,225.1563 251.0156,225.1563 Q250.6719,225.1563 250.4688,224.9531 Q250.2656,224.7656 250.1563,224.25 Q250.1094,223.8906 249.9219,223.7031 Q249.5938,223.3281 248.9844,223.1094 Q248.375,222.8906 247.75,222.8906 Q246.9844,222.8906 246.3438,223.2188 Q245.7188,223.5469 245.2188,224.2969 Q244.7344,225.0469 244.7344,226.0781 L244.7344,227.1719 Q244.7344,228.4063 245.625,229.2344 Q246.5156,230.0469 248.1094,230.0469 Q249.0469,230.0469 249.7031,229.7969 Q250.0938,229.6406 250.5156,229.2031 Q250.7813,228.9375 250.9219,228.8594 Q251.0781,228.7813 251.2813,228.7813 Q251.6094,228.7813 251.8594,229.0469 Q252.125,229.2969 252.125,229.6406 Q252.125,229.9844 251.7813,230.3906 Q251.2813,230.9688 250.4844,231.2969 Q249.4063,231.75 248.1094,231.75 Q246.5938,231.75 245.3906,231.125 Q244.4063,230.625 243.7188,229.5625 Q243.0313,228.4844 243.0313,227.2031 L243.0313,226.0469 Q243.0313,224.7188 243.6406,223.5781 Q244.2656,222.4219 245.3594,221.8125 Q246.4531,221.1875 247.6875,221.1875 Q248.4219,221.1875 249.0625,221.3594 Q249.7188,221.5156 250.2656,221.875 Z " fill="#000000"/>
            <text fill="#000000" font-family="sans-serif" font-size="14" lengthAdjust="spacing" textLength="81" x="261.5" y="231.7285">ClientesMain</text>
            <line style="stroke:#181818;stroke-width:0.5;" x1="233.5" x2="344.5" y1="242" y2="242"/>
            <line style="stroke:#181818;stroke-width:0.5;" x1="233.5" x2="344.5" y1="250" y2="250"/>
        </g>
        <!--class HabitacionesMain-->
        <g id="elem_HabitacionesMain">
            <rect codeLine="3" fill="#F1F1F1" height="48" id="HabitacionesMain" rx="2.5" ry="2.5" style="stroke:#181818;stroke-width:0.5;" width="143" x="402.5" y="210"/>
            <ellipse cx="417.5" cy="226" fill="#ADD1B2" rx="11" ry="11" style="stroke:#181818;stroke-width:1.0;"/>
            <path d="M420.2656,221.875 Q420.4219,221.6563 420.6094,221.5469 Q420.7969,221.4375 421.0156,221.4375 Q421.3906,221.4375 421.625,221.7031 Q421.8594,221.9531 421.8594,222.5625 L421.8594,224.0156 Q421.8594,224.625 421.625,224.8906 Q421.3906,225.1563 421.0156,225.1563 Q420.6719,225.1563 420.4688,224.9531 Q420.2656,224.7656 420.1563,224.25 Q420.1094,223.8906 419.9219,223.7031 Q419.5938,223.3281 418.9844,223.1094 Q418.375,222.8906 417.75,222.8906 Q416.9844,222.8906 416.3438,223.2188 Q415.7188,223.5469 415.2188,224.2969 Q414.7344,225.0469 414.7344,226.0781 L414.7344,227.1719 Q414.7344,228.4063 415.625,229.2344 Q416.5156,230.0469 418.1094,230.0469 Q419.0469,230.0469 419.7031,229.7969 Q420.0938,229.6406 420.5156,229.2031 Q420.7813,228.9375 420.9219,228.8594 Q421.0781,228.7813 421.2813,228.7813 Q421.6094,228.7813 421.8594,229.0469 Q422.125,229.2969 422.125,229.6406 Q422.125,229.9844 421.7813,230.3906 Q421.2813,230.9688 420.4844,231.2969 Q419.4063,231.75 418.1094,231.75 Q416.5938,231.75 415.3906,231.125 Q414.4063,230.625 413.7188,229.5625 Q413.0313,228.4844 413.0313,227.2031 L413.0313,226.0469 Q413.0313,224.7188 413.6406,223.5781 Q414.2656,222.4219 415.3594,221.8125 Q416.4531,221.1875 417.6875,221.1875 Q418.4219,221.1875 419.0625,221.3594 Q419.7188,221.5156 420.2656,221.875 Z " fill="#000000"/>
            <text fill="#000000" font-family="sans-serif" font-size="14" lengthAdjust="spacing" textLength="111" x="431.5" y="231.7285">HabitacionesMain</text>
            <line style="stroke:#181818;stroke-width:0.5;" x1="403.5" x2="544.5" y1="242" y2="242"/>
            <line style="stroke:#181818;stroke-width:0.5;" x1="403.5" x2="544.5" y1="250" y2="250"/>
        </g>
        <!--class InicioController-->
        <g id="elem_InicioController">
            <rect codeLine="4" fill="#F1F1F1" height="48" id="InicioController" rx="2.5" ry="2.5" style="stroke:#181818;stroke-width:0.5;" width="126" x="1072" y="42"/>
            <ellipse cx="1087" cy="58" fill="#ADD1B2" rx="11" ry="11" style="stroke:#181818;stroke-width:1.0;"/>
            <path d="M1089.7656,53.875 Q1089.9219,53.6563 1090.1094,53.5469 Q1090.2969,53.4375 1090.5156,53.4375 Q1090.8906,53.4375 1091.125,53.7031 Q1091.3594,53.9531 1091.3594,54.5625 L1091.3594,56.0156 Q1091.3594,56.625 1091.125,56.8906 Q1090.8906,57.1563 1090.5156,57.1563 Q1090.1719,57.1563 1089.9688,56.9531 Q1089.7656,56.7656 1089.6563,56.25 Q1089.6094,55.8906 1089.4219,55.7031 Q1089.0938,55.3281 1088.4844,55.1094 Q1087.875,54.8906 1087.25,54.8906 Q1086.4844,54.8906 1085.8438,55.2188 Q1085.2188,55.5469 1084.7188,56.2969 Q1084.2344,57.0469 1084.2344,58.0781 L1084.2344,59.1719 Q1084.2344,60.4063 1085.125,61.2344 Q1086.0156,62.0469 1087.6094,62.0469 Q1088.5469,62.0469 1089.2031,61.7969 Q1089.5938,61.6406 1090.0156,61.2031 Q1090.2813,60.9375 1090.4219,60.8594 Q1090.5781,60.7813 1090.7813,60.7813 Q1091.1094,60.7813 1091.3594,61.0469 Q1091.625,61.2969 1091.625,61.6406 Q1091.625,61.9844 1091.2813,62.3906 Q1090.7813,62.9688 1089.9844,63.2969 Q1088.9063,63.75 1087.6094,63.75 Q1086.0938,63.75 1084.8906,63.125 Q1083.9063,62.625 1083.2188,61.5625 Q1082.5313,60.4844 1082.5313,59.2031 L1082.5313,58.0469 Q1082.5313,56.7188 1083.1406,55.5781 Q1083.7656,54.4219 1084.8594,53.8125 Q1085.9531,53.1875 1087.1875,53.1875 Q1087.9219,53.1875 1088.5625,53.3594 Q1089.2188,53.5156 1089.7656,53.875 Z " fill="#000000"/>
            <text fill="#000000" font-family="sans-serif" font-size="14" lengthAdjust="spacing" textLength="94" x="1101" y="63.7285">InicioController</text>
            <line style="stroke:#181818;stroke-width:0.5;" x1="1073" x2="1197" y1="74" y2="74"/>
            <line style="stroke:#181818;stroke-width:0.5;" x1="1073" x2="1197" y1="82" y2="82"/>
        </g>
        <!--class InicioMain-->
        <g id="elem_InicioMain">
            <rect codeLine="5" fill="#F1F1F1" height="48" id="InicioMain" rx="2.5" ry="2.5" style="stroke:#181818;stroke-width:0.5;" width="94" x="1233" y="42"/>
            <ellipse cx="1248" cy="58" fill="#ADD1B2" rx="11" ry="11" style="stroke:#181818;stroke-width:1.0;"/>
            <path d="M1250.7656,53.875 Q1250.9219,53.6563 1251.1094,53.5469 Q1251.2969,53.4375 1251.5156,53.4375 Q1251.8906,53.4375 1252.125,53.7031 Q1252.3594,53.9531 1252.3594,54.5625 L1252.3594,56.0156 Q1252.3594,56.625 1252.125,56.8906 Q1251.8906,57.1563 1251.5156,57.1563 Q1251.1719,57.1563 1250.9688,56.9531 Q1250.7656,56.7656 1250.6563,56.25 Q1250.6094,55.8906 1250.4219,55.7031 Q1250.0938,55.3281 1249.4844,55.1094 Q1248.875,54.8906 1248.25,54.8906 Q1247.4844,54.8906 1246.8438,55.2188 Q1246.2188,55.5469 1245.7188,56.2969 Q1245.2344,57.0469 1245.2344,58.0781 L1245.2344,59.1719 Q1245.2344,60.4063 1246.125,61.2344 Q1247.0156,62.0469 1248.6094,62.0469 Q1249.5469,62.0469 1250.2031,61.7969 Q1250.5938,61.6406 1251.0156,61.2031 Q1251.2813,60.9375 1251.4219,60.8594 Q1251.5781,60.7813 1251.7813,60.7813 Q1252.1094,60.7813 1252.3594,61.0469 Q1252.625,61.2969 1252.625,61.6406 Q1252.625,61.9844 1252.2813,62.3906 Q1251.7813,62.9688 1250.9844,63.2969 Q1249.9063,63.75 1248.6094,63.75 Q1247.0938,63.75 1245.8906,63.125 Q1244.9063,62.625 1244.2188,61.5625 Q1243.5313,60.4844 1243.5313,59.2031 L1243.5313,58.0469 Q1243.5313,56.7188 1244.1406,55.5781 Q1244.7656,54.4219 1245.8594,53.8125 Q1246.9531,53.1875 1248.1875,53.1875 Q1248.9219,53.1875 1249.5625,53.3594 Q1250.2188,53.5156 1250.7656,53.875 Z " fill="#000000"/>
            <text fill="#000000" font-family="sans-serif" font-size="14" lengthAdjust="spacing" textLength="62" x="1262" y="63.7285">InicioMain</text>
            <line style="stroke:#181818;stroke-width:0.5;" x1="1234" x2="1326" y1="74" y2="74"/>
            <line style="stroke:#181818;stroke-width:0.5;" x1="1234" x2="1326" y1="82" y2="82"/>
        </g>
        <!--class ReservasMain-->
        <g id="elem_ReservasMain">
            <rect codeLine="6" fill="#F1F1F1" height="48" id="ReservasMain" rx="2.5" ry="2.5" style="stroke:#181818;stroke-width:0.5;" width="122" x="602" y="210"/>
            <ellipse cx="617" cy="226" fill="#ADD1B2" rx="11" ry="11" style="stroke:#181818;stroke-width:1.0;"/>
            <path d="M619.7656,221.875 Q619.9219,221.6563 620.1094,221.5469 Q620.2969,221.4375 620.5156,221.4375 Q620.8906,221.4375 621.125,221.7031 Q621.3594,221.9531 621.3594,222.5625 L621.3594,224.0156 Q621.3594,224.625 621.125,224.8906 Q620.8906,225.1563 620.5156,225.1563 Q620.1719,225.1563 619.9688,224.9531 Q619.7656,224.7656 619.6563,224.25 Q619.6094,223.8906 619.4219,223.7031 Q619.0938,223.3281 618.4844,223.1094 Q617.875,222.8906 617.25,222.8906 Q616.4844,222.8906 615.8438,223.2188 Q615.2188,223.5469 614.7188,224.2969 Q614.2344,225.0469 614.2344,226.0781 L614.2344,227.1719 Q614.2344,228.4063 615.125,229.2344 Q616.0156,230.0469 617.6094,230.0469 Q618.5469,230.0469 619.2031,229.7969 Q619.5938,229.6406 620.0156,229.2031 Q620.2813,228.9375 620.4219,228.8594 Q620.5781,228.7813 620.7813,228.7813 Q621.1094,228.7813 621.3594,229.0469 Q621.625,229.2969 621.625,229.6406 Q621.625,229.9844 621.2813,230.3906 Q620.7813,230.9688 619.9844,231.2969 Q618.9063,231.75 617.6094,231.75 Q616.0938,231.75 614.8906,231.125 Q613.9063,230.625 613.2188,229.5625 Q612.5313,228.4844 612.5313,227.2031 L612.5313,226.0469 Q612.5313,224.7188 613.1406,223.5781 Q613.7656,222.4219 614.8594,221.8125 Q615.9531,221.1875 617.1875,221.1875 Q617.9219,221.1875 618.5625,221.3594 Q619.2188,221.5156 619.7656,221.875 Z " fill="#000000"/>
            <text fill="#000000" font-family="sans-serif" font-size="14" lengthAdjust="spacing" textLength="90" x="631" y="231.7285">ReservasMain</text>
            <line style="stroke:#181818;stroke-width:0.5;" x1="603" x2="723" y1="242" y2="242"/>
            <line style="stroke:#181818;stroke-width:0.5;" x1="603" x2="723" y1="250" y2="250"/>
        </g>
        <!--class Application-->
        <g id="elem_Application">
            <rect codeLine="7" fill="#F1F1F1" height="48" id="Application" rx="2.5" ry="2.5" style="stroke:#181818;stroke-width:0.5;" width="101" x="1087.5" y="210"/>
            <ellipse cx="1102.5" cy="226" fill="#ADD1B2" rx="11" ry="11" style="stroke:#181818;stroke-width:1.0;"/>
            <path d="M1105.2656,221.875 Q1105.4219,221.6563 1105.6094,221.5469 Q1105.7969,221.4375 1106.0156,221.4375 Q1106.3906,221.4375 1106.625,221.7031 Q1106.8594,221.9531 1106.8594,222.5625 L1106.8594,224.0156 Q1106.8594,224.625 1106.625,224.8906 Q1106.3906,225.1563 1106.0156,225.1563 Q1105.6719,225.1563 1105.4688,224.9531 Q1105.2656,224.7656 1105.1563,224.25 Q1105.1094,223.8906 1104.9219,223.7031 Q1104.5938,223.3281 1103.9844,223.1094 Q1103.375,222.8906 1102.75,222.8906 Q1101.9844,222.8906 1101.3438,223.2188 Q1100.7188,223.5469 1100.2188,224.2969 Q1099.7344,225.0469 1099.7344,226.0781 L1099.7344,227.1719 Q1099.7344,228.4063 1100.625,229.2344 Q1101.5156,230.0469 1103.1094,230.0469 Q1104.0469,230.0469 1104.7031,229.7969 Q1105.0938,229.6406 1105.5156,229.2031 Q1105.7813,228.9375 1105.9219,228.8594 Q1106.0781,228.7813 1106.2813,228.7813 Q1106.6094,228.7813 1106.8594,229.0469 Q1107.125,229.2969 1107.125,229.6406 Q1107.125,229.9844 1106.7813,230.3906 Q1106.2813,230.9688 1105.4844,231.2969 Q1104.4063,231.75 1103.1094,231.75 Q1101.5938,231.75 1100.3906,231.125 Q1099.4063,230.625 1098.7188,229.5625 Q1098.0313,228.4844 1098.0313,227.2031 L1098.0313,226.0469 Q1098.0313,224.7188 1098.6406,223.5781 Q1099.2656,222.4219 1100.3594,221.8125 Q1101.4531,221.1875 1102.6875,221.1875 Q1103.4219,221.1875 1104.0625,221.3594 Q1104.7188,221.5156 1105.2656,221.875 Z " fill="#000000"/>
            <text fill="#000000" font-family="sans-serif" font-size="14" lengthAdjust="spacing" textLength="69" x="1116.5" y="231.7285">Application</text>
            <line style="stroke:#181818;stroke-width:0.5;" x1="1088.5" x2="1187.5" y1="242" y2="242"/>
            <line style="stroke:#181818;stroke-width:0.5;" x1="1088.5" x2="1187.5" y1="250" y2="250"/>
        </g>
        <!--class Platform-->
        <g id="elem_Platform">
            <rect codeLine="8" fill="#F1F1F1" height="48" id="Platform" rx="2.5" ry="2.5" style="stroke:#181818;stroke-width:0.5;" width="84" x="968" y="210"/>
            <ellipse cx="983" cy="226" fill="#ADD1B2" rx="11" ry="11" style="stroke:#181818;stroke-width:1.0;"/>
            <path d="M985.7656,221.875 Q985.9219,221.6563 986.1094,221.5469 Q986.2969,221.4375 986.5156,221.4375 Q986.8906,221.4375 987.125,221.7031 Q987.3594,221.9531 987.3594,222.5625 L987.3594,224.0156 Q987.3594,224.625 987.125,224.8906 Q986.8906,225.1563 986.5156,225.1563 Q986.1719,225.1563 985.9688,224.9531 Q985.7656,224.7656 985.6563,224.25 Q985.6094,223.8906 985.4219,223.7031 Q985.0938,223.3281 984.4844,223.1094 Q983.875,222.8906 983.25,222.8906 Q982.4844,222.8906 981.8438,223.2188 Q981.2188,223.5469 980.7188,224.2969 Q980.2344,225.0469 980.2344,226.0781 L980.2344,227.1719 Q980.2344,228.4063 981.125,229.2344 Q982.0156,230.0469 983.6094,230.0469 Q984.5469,230.0469 985.2031,229.7969 Q985.5938,229.6406 986.0156,229.2031 Q986.2813,228.9375 986.4219,228.8594 Q986.5781,228.7813 986.7813,228.7813 Q987.1094,228.7813 987.3594,229.0469 Q987.625,229.2969 987.625,229.6406 Q987.625,229.9844 987.2813,230.3906 Q986.7813,230.9688 985.9844,231.2969 Q984.9063,231.75 983.6094,231.75 Q982.0938,231.75 980.8906,231.125 Q979.9063,230.625 979.2188,229.5625 Q978.5313,228.4844 978.5313,227.2031 L978.5313,226.0469 Q978.5313,224.7188 979.1406,223.5781 Q979.7656,222.4219 980.8594,221.8125 Q981.9531,221.1875 983.1875,221.1875 Q983.9219,221.1875 984.5625,221.3594 Q985.2188,221.5156 985.7656,221.875 Z " fill="#000000"/>
            <text fill="#000000" font-family="sans-serif" font-size="14" lengthAdjust="spacing" textLength="52" x="997" y="231.7285">Platform</text>
            <line style="stroke:#181818;stroke-width:0.5;" x1="969" x2="1051" y1="242" y2="242"/>
            <line style="stroke:#181818;stroke-width:0.5;" x1="969" x2="1051" y1="250" y2="250"/>
        </g>
        <!--class ActionEvent-->
        <g id="elem_ActionEvent">
            <rect codeLine="9" fill="#F1F1F1" height="48" id="ActionEvent" rx="2.5" ry="2.5" style="stroke:#181818;stroke-width:0.5;" width="107" x="804.5" y="210"/>
            <ellipse cx="819.5" cy="226" fill="#ADD1B2" rx="11" ry="11" style="stroke:#181818;stroke-width:1.0;"/>
            <path d="M822.2656,221.875 Q822.4219,221.6563 822.6094,221.5469 Q822.7969,221.4375 823.0156,221.4375 Q823.3906,221.4375 823.625,221.7031 Q823.8594,221.9531 823.8594,222.5625 L823.8594,224.0156 Q823.8594,224.625 823.625,224.8906 Q823.3906,225.1563 823.0156,225.1563 Q822.6719,225.1563 822.4688,224.9531 Q822.2656,224.7656 822.1563,224.25 Q822.1094,223.8906 821.9219,223.7031 Q821.5938,223.3281 820.9844,223.1094 Q820.375,222.8906 819.75,222.8906 Q818.9844,222.8906 818.3438,223.2188 Q817.7188,223.5469 817.2188,224.2969 Q816.7344,225.0469 816.7344,226.0781 L816.7344,227.1719 Q816.7344,228.4063 817.625,229.2344 Q818.5156,230.0469 820.1094,230.0469 Q821.0469,230.0469 821.7031,229.7969 Q822.0938,229.6406 822.5156,229.2031 Q822.7813,228.9375 822.9219,228.8594 Q823.0781,228.7813 823.2813,228.7813 Q823.6094,228.7813 823.8594,229.0469 Q824.125,229.2969 824.125,229.6406 Q824.125,229.9844 823.7813,230.3906 Q823.2813,230.9688 822.4844,231.2969 Q821.4063,231.75 820.1094,231.75 Q818.5938,231.75 817.3906,231.125 Q816.4063,230.625 815.7188,229.5625 Q815.0313,228.4844 815.0313,227.2031 L815.0313,226.0469 Q815.0313,224.7188 815.6406,223.5781 Q816.2656,222.4219 817.3594,221.8125 Q818.4531,221.1875 819.6875,221.1875 Q820.4219,221.1875 821.0625,221.3594 Q821.7188,221.5156 822.2656,221.875 Z " fill="#000000"/>
            <text fill="#000000" font-family="sans-serif" font-size="14" lengthAdjust="spacing" textLength="75" x="833.5" y="231.7285">ActionEvent</text>
            <line style="stroke:#181818;stroke-width:0.5;" x1="805.5" x2="910.5" y1="242" y2="242"/>
            <line style="stroke:#181818;stroke-width:0.5;" x1="805.5" x2="910.5" y1="250" y2="250"/>
        </g>
        <!--class FXMLLoader-->
        <g id="elem_FXMLLoader">
            <rect codeLine="10" fill="#F1F1F1" height="48" id="FXMLLoader" rx="2.5" ry="2.5" style="stroke:#181818;stroke-width:0.5;" width="113" x="1371.5" y="210"/>
            <ellipse cx="1386.5" cy="226" fill="#ADD1B2" rx="11" ry="11" style="stroke:#181818;stroke-width:1.0;"/>
            <path d="M1389.2656,221.875 Q1389.4219,221.6563 1389.6094,221.5469 Q1389.7969,221.4375 1390.0156,221.4375 Q1390.3906,221.4375 1390.625,221.7031 Q1390.8594,221.9531 1390.8594,222.5625 L1390.8594,224.0156 Q1390.8594,224.625 1390.625,224.8906 Q1390.3906,225.1563 1390.0156,225.1563 Q1389.6719,225.1563 1389.4688,224.9531 Q1389.2656,224.7656 1389.1563,224.25 Q1389.1094,223.8906 1388.9219,223.7031 Q1388.5938,223.3281 1387.9844,223.1094 Q1387.375,222.8906 1386.75,222.8906 Q1385.9844,222.8906 1385.3438,223.2188 Q1384.7188,223.5469 1384.2188,224.2969 Q1383.7344,225.0469 1383.7344,226.0781 L1383.7344,227.1719 Q1383.7344,228.4063 1384.625,229.2344 Q1385.5156,230.0469 1387.1094,230.0469 Q1388.0469,230.0469 1388.7031,229.7969 Q1389.0938,229.6406 1389.5156,229.2031 Q1389.7813,228.9375 1389.9219,228.8594 Q1390.0781,228.7813 1390.2813,228.7813 Q1390.6094,228.7813 1390.8594,229.0469 Q1391.125,229.2969 1391.125,229.6406 Q1391.125,229.9844 1390.7813,230.3906 Q1390.2813,230.9688 1389.4844,231.2969 Q1388.4063,231.75 1387.1094,231.75 Q1385.5938,231.75 1384.3906,231.125 Q1383.4063,230.625 1382.7188,229.5625 Q1382.0313,228.4844 1382.0313,227.2031 L1382.0313,226.0469 Q1382.0313,224.7188 1382.6406,223.5781 Q1383.2656,222.4219 1384.3594,221.8125 Q1385.4531,221.1875 1386.6875,221.1875 Q1387.4219,221.1875 1388.0625,221.3594 Q1388.7188,221.5156 1389.2656,221.875 Z " fill="#000000"/>
            <text fill="#000000" font-family="sans-serif" font-size="14" lengthAdjust="spacing" textLength="81" x="1400.5" y="231.7285">FXMLLoader</text>
            <line style="stroke:#181818;stroke-width:0.5;" x1="1372.5" x2="1483.5" y1="242" y2="242"/>
            <line style="stroke:#181818;stroke-width:0.5;" x1="1372.5" x2="1483.5" y1="250" y2="250"/>
        </g>
        <!--class Parent-->
        <g id="elem_Parent">
            <rect codeLine="11" fill="#F1F1F1" height="48" id="Parent" rx="2.5" ry="2.5" style="stroke:#181818;stroke-width:0.5;" width="74" x="1648" y="210"/>
            <ellipse cx="1663" cy="226" fill="#ADD1B2" rx="11" ry="11" style="stroke:#181818;stroke-width:1.0;"/>
            <path d="M1665.7656,221.875 Q1665.9219,221.6563 1666.1094,221.5469 Q1666.2969,221.4375 1666.5156,221.4375 Q1666.8906,221.4375 1667.125,221.7031 Q1667.3594,221.9531 1667.3594,222.5625 L1667.3594,224.0156 Q1667.3594,224.625 1667.125,224.8906 Q1666.8906,225.1563 1666.5156,225.1563 Q1666.1719,225.1563 1665.9688,224.9531 Q1665.7656,224.7656 1665.6563,224.25 Q1665.6094,223.8906 1665.4219,223.7031 Q1665.0938,223.3281 1664.4844,223.1094 Q1663.875,222.8906 1663.25,222.8906 Q1662.4844,222.8906 1661.8438,223.2188 Q1661.2188,223.5469 1660.7188,224.2969 Q1660.2344,225.0469 1660.2344,226.0781 L1660.2344,227.1719 Q1660.2344,228.4063 1661.125,229.2344 Q1662.0156,230.0469 1663.6094,230.0469 Q1664.5469,230.0469 1665.2031,229.7969 Q1665.5938,229.6406 1666.0156,229.2031 Q1666.2813,228.9375 1666.4219,228.8594 Q1666.5781,228.7813 1666.7813,228.7813 Q1667.1094,228.7813 1667.3594,229.0469 Q1667.625,229.2969 1667.625,229.6406 Q1667.625,229.9844 1667.2813,230.3906 Q1666.7813,230.9688 1665.9844,231.2969 Q1664.9063,231.75 1663.6094,231.75 Q1662.0938,231.75 1660.8906,231.125 Q1659.9063,230.625 1659.2188,229.5625 Q1658.5313,228.4844 1658.5313,227.2031 L1658.5313,226.0469 Q1658.5313,224.7188 1659.1406,223.5781 Q1659.7656,222.4219 1660.8594,221.8125 Q1661.9531,221.1875 1663.1875,221.1875 Q1663.9219,221.1875 1664.5625,221.3594 Q1665.2188,221.5156 1665.7656,221.875 Z " fill="#000000"/>
            <text fill="#000000" font-family="sans-serif" font-size="14" lengthAdjust="spacing" textLength="42" x="1677" y="231.7285">Parent</text>
            <line style="stroke:#181818;stroke-width:0.5;" x1="1649" x2="1721" y1="242" y2="242"/>
            <line style="stroke:#181818;stroke-width:0.5;" x1="1649" x2="1721" y1="250" y2="250"/>
        </g>
        <!--class Scene-->
        <g id="elem_Scene">
            <rect codeLine="12" fill="#F1F1F1" height="48" id="Scene" rx="2.5" ry="2.5" style="stroke:#181818;stroke-width:0.5;" width="72" x="1541" y="210"/>
            <ellipse cx="1556" cy="226" fill="#ADD1B2" rx="11" ry="11" style="stroke:#181818;stroke-width:1.0;"/>
            <path d="M1558.7656,221.875 Q1558.9219,221.6563 1559.1094,221.5469 Q1559.2969,221.4375 1559.5156,221.4375 Q1559.8906,221.4375 1560.125,221.7031 Q1560.3594,221.9531 1560.3594,222.5625 L1560.3594,224.0156 Q1560.3594,224.625 1560.125,224.8906 Q1559.8906,225.1563 1559.5156,225.1563 Q1559.1719,225.1563 1558.9688,224.9531 Q1558.7656,224.7656 1558.6563,224.25 Q1558.6094,223.8906 1558.4219,223.7031 Q1558.0938,223.3281 1557.4844,223.1094 Q1556.875,222.8906 1556.25,222.8906 Q1555.4844,222.8906 1554.8438,223.2188 Q1554.2188,223.5469 1553.7188,224.2969 Q1553.2344,225.0469 1553.2344,226.0781 L1553.2344,227.1719 Q1553.2344,228.4063 1554.125,229.2344 Q1555.0156,230.0469 1556.6094,230.0469 Q1557.5469,230.0469 1558.2031,229.7969 Q1558.5938,229.6406 1559.0156,229.2031 Q1559.2813,228.9375 1559.4219,228.8594 Q1559.5781,228.7813 1559.7813,228.7813 Q1560.1094,228.7813 1560.3594,229.0469 Q1560.625,229.2969 1560.625,229.6406 Q1560.625,229.9844 1560.2813,230.3906 Q1559.7813,230.9688 1558.9844,231.2969 Q1557.9063,231.75 1556.6094,231.75 Q1555.0938,231.75 1553.8906,231.125 Q1552.9063,230.625 1552.2188,229.5625 Q1551.5313,228.4844 1551.5313,227.2031 L1551.5313,226.0469 Q1551.5313,224.7188 1552.1406,223.5781 Q1552.7656,222.4219 1553.8594,221.8125 Q1554.9531,221.1875 1556.1875,221.1875 Q1556.9219,221.1875 1557.5625,221.3594 Q1558.2188,221.5156 1558.7656,221.875 Z " fill="#000000"/>
            <text fill="#000000" font-family="sans-serif" font-size="14" lengthAdjust="spacing" textLength="40" x="1570" y="231.7285">Scene</text>
            <line style="stroke:#181818;stroke-width:0.5;" x1="1542" x2="1612" y1="242" y2="242"/>
            <line style="stroke:#181818;stroke-width:0.5;" x1="1542" x2="1612" y1="250" y2="250"/>
        </g>
        <!--class Stage-->
        <g id="elem_Stage">
            <rect codeLine="13" fill="#F1F1F1" height="48" id="Stage" rx="2.5" ry="2.5" style="stroke:#181818;stroke-width:0.5;" width="69" x="1245.5" y="210"/>
            <ellipse cx="1260.5" cy="226" fill="#ADD1B2" rx="11" ry="11" style="stroke:#181818;stroke-width:1.0;"/>
            <path d="M1263.2656,221.875 Q1263.4219,221.6563 1263.6094,221.5469 Q1263.7969,221.4375 1264.0156,221.4375 Q1264.3906,221.4375 1264.625,221.7031 Q1264.8594,221.9531 1264.8594,222.5625 L1264.8594,224.0156 Q1264.8594,224.625 1264.625,224.8906 Q1264.3906,225.1563 1264.0156,225.1563 Q1263.6719,225.1563 1263.4688,224.9531 Q1263.2656,224.7656 1263.1563,224.25 Q1263.1094,223.8906 1262.9219,223.7031 Q1262.5938,223.3281 1261.9844,223.1094 Q1261.375,222.8906 1260.75,222.8906 Q1259.9844,222.8906 1259.3438,223.2188 Q1258.7188,223.5469 1258.2188,224.2969 Q1257.7344,225.0469 1257.7344,226.0781 L1257.7344,227.1719 Q1257.7344,228.4063 1258.625,229.2344 Q1259.5156,230.0469 1261.1094,230.0469 Q1262.0469,230.0469 1262.7031,229.7969 Q1263.0938,229.6406 1263.5156,229.2031 Q1263.7813,228.9375 1263.9219,228.8594 Q1264.0781,228.7813 1264.2813,228.7813 Q1264.6094,228.7813 1264.8594,229.0469 Q1265.125,229.2969 1265.125,229.6406 Q1265.125,229.9844 1264.7813,230.3906 Q1264.2813,230.9688 1263.4844,231.2969 Q1262.4063,231.75 1261.1094,231.75 Q1259.5938,231.75 1258.3906,231.125 Q1257.4063,230.625 1256.7188,229.5625 Q1256.0313,228.4844 1256.0313,227.2031 L1256.0313,226.0469 Q1256.0313,224.7188 1256.6406,223.5781 Q1257.2656,222.4219 1258.3594,221.8125 Q1259.4531,221.1875 1260.6875,221.1875 Q1261.4219,221.1875 1262.0625,221.3594 Q1262.7188,221.5156 1263.2656,221.875 Z " fill="#000000"/>
            <text fill="#000000" font-family="sans-serif" font-size="14" lengthAdjust="spacing" textLength="37" x="1274.5" y="231.7285">Stage</text>
            <line style="stroke:#181818;stroke-width:0.5;" x1="1246.5" x2="1313.5" y1="242" y2="242"/>
            <line style="stroke:#181818;stroke-width:0.5;" x1="1246.5" x2="1313.5" y1="250" y2="250"/>
        </g>
        <!--class UsuarioInfo-->
        <g id="elem_UsuarioInfo">
            <rect codeLine="14" fill="#F1F1F1" height="48" id="UsuarioInfo" rx="2.5" ry="2.5" style="stroke:#181818;stroke-width:0.5;" width="103" x="1802.5" y="210"/>
            <ellipse cx="1817.5" cy="226" fill="#ADD1B2" rx="11" ry="11" style="stroke:#181818;stroke-width:1.0;"/>
            <path d="M1820.2656,221.875 Q1820.4219,221.6563 1820.6094,221.5469 Q1820.7969,221.4375 1821.0156,221.4375 Q1821.3906,221.4375 1821.625,221.7031 Q1821.8594,221.9531 1821.8594,222.5625 L1821.8594,224.0156 Q1821.8594,224.625 1821.625,224.8906 Q1821.3906,225.1563 1821.0156,225.1563 Q1820.6719,225.1563 1820.4688,224.9531 Q1820.2656,224.7656 1820.1563,224.25 Q1820.1094,223.8906 1819.9219,223.7031 Q1819.5938,223.3281 1818.9844,223.1094 Q1818.375,222.8906 1817.75,222.8906 Q1816.9844,222.8906 1816.3438,223.2188 Q1815.7188,223.5469 1815.2188,224.2969 Q1814.7344,225.0469 1814.7344,226.0781 L1814.7344,227.1719 Q1814.7344,228.4063 1815.625,229.2344 Q1816.5156,230.0469 1818.1094,230.0469 Q1819.0469,230.0469 1819.7031,229.7969 Q1820.0938,229.6406 1820.5156,229.2031 Q1820.7813,228.9375 1820.9219,228.8594 Q1821.0781,228.7813 1821.2813,228.7813 Q1821.6094,228.7813 1821.8594,229.0469 Q1822.125,229.2969 1822.125,229.6406 Q1822.125,229.9844 1821.7813,230.3906 Q1821.2813,230.9688 1820.4844,231.2969 Q1819.4063,231.75 1818.1094,231.75 Q1816.5938,231.75 1815.3906,231.125 Q1814.4063,230.625 1813.7188,229.5625 Q1813.0313,228.4844 1813.0313,227.2031 L1813.0313,226.0469 Q1813.0313,224.7188 1813.6406,223.5781 Q1814.2656,222.4219 1815.3594,221.8125 Q1816.4531,221.1875 1817.6875,221.1875 Q1818.4219,221.1875 1819.0625,221.3594 Q1819.7188,221.5156 1820.2656,221.875 Z " fill="#000000"/>
            <text fill="#000000" font-family="sans-serif" font-size="14" lengthAdjust="spacing" textLength="71" x="1831.5" y="231.7285">UsuarioInfo</text>
            <line style="stroke:#181818;stroke-width:0.5;" x1="1803.5" x2="1904.5" y1="242" y2="242"/>
            <line style="stroke:#181818;stroke-width:0.5;" x1="1803.5" x2="1904.5" y1="250" y2="250"/>
        </g>
        <!--link InicioController to AdministracionMain-->
        <g id="link_InicioController_AdministracionMain">
            <path codeLine="15" d="M1071.85,68.28 C877.06,72.58 293.99,88.16 216,122 C172.59,140.84 139.1387,178.4016 118.9387,205.0016 " fill="none" id="InicioController-to-AdministracionMain" style="stroke:#181818;stroke-width:1.0;stroke-dasharray:7.0,7.0;"/>
            <polygon fill="#181818" points="115.31,209.78,123.9386,205.0316,118.3339,205.798,117.5674,200.1933,115.31,209.78" style="stroke:#181818;stroke-width:1.0;"/>
        </g>
        <!--link InicioController to ClientesMain-->
        <g id="link_InicioController_ClientesMain">
            <path codeLine="16" d="M1071.97,68.89 C902.66,74.36 446.63,91.74 386,122 C347.3,141.32 320.5012,178.3516 304.6712,204.8016 " fill="none" id="InicioController-to-ClientesMain" style="stroke:#181818;stroke-width:1.0;stroke-dasharray:7.0,7.0;"/>
            <polygon fill="#181818" points="301.59,209.95,309.6441,204.2816,304.1577,205.6597,302.7796,200.1733,301.59,209.95" style="stroke:#181818;stroke-width:1.0;"/>
        </g>
        <!--link InicioController to HabitacionesMain-->
        <g id="link_InicioController_HabitacionesMain">
            <path codeLine="17" d="M1071.7,68.08 C946.21,71.06 670.7,82.09 586,122 C544.4,141.61 512.7063,178.4402 493.4063,204.7802 " fill="none" id="InicioController-to-HabitacionesMain" style="stroke:#181818;stroke-width:1.0;stroke-dasharray:7.0,7.0;"/>
            <polygon fill="#181818" points="489.86,209.62,498.406,204.7244,492.8152,205.5868,491.9529,199.9961,489.86,209.62" style="stroke:#181818;stroke-width:1.0;"/>
        </g>
        <!--link InicioController to ReservasMain-->
        <g id="link_InicioController_ReservasMain">
            <path codeLine="18" d="M1071.73,66.53 C999.7,68.32 880.09,78.46 788,122 C744.18,142.72 708.2616,179.0989 685.8516,205.0489 " fill="none" id="InicioController-to-ReservasMain" style="stroke:#181818;stroke-width:1.0;stroke-dasharray:7.0,7.0;"/>
            <polygon fill="#181818" points="681.93,209.59,690.8397,205.3928,685.198,205.8058,684.785,200.164,681.93,209.59" style="stroke:#181818;stroke-width:1.0;"/>
        </g>
        <!--link InicioController to Platform-->
        <g id="link_InicioController_Platform">
            <path codeLine="19" d="M1103.05,90.06 C1091.75,99.19 1079.5,110.3 1070,122 C1047.77,149.38 1032.1717,180.7217 1021.8717,204.3017 " fill="none" id="InicioController-to-Platform" style="stroke:#181818;stroke-width:1.0;stroke-dasharray:7.0,7.0;"/>
            <polygon fill="#181818" points="1019.47,209.8,1026.7382,203.1537,1021.4714,205.2181,1019.407,199.9513,1019.47,209.8" style="stroke:#181818;stroke-width:1.0;"/>
        </g>
        <!--link InicioController to ActionEvent-->
        <g id="link_InicioController_ActionEvent">
            <path codeLine="20" d="M1071.86,76.68 C1034.7,84.55 988.07,98.36 952,122 C917.15,144.84 891.4131,179.302 875.2231,204.502 " fill="none" id="InicioController-to-ActionEvent" style="stroke:#181818;stroke-width:1.0;stroke-dasharray:7.0,7.0;"/>
            <polygon fill="#181818" points="871.98,209.55,880.21,204.1401,874.6826,205.3433,873.4794,199.8159,871.98,209.55" style="stroke:#181818;stroke-width:1.0;"/>
        </g>
        <!--link InicioController to Stage-->
        <g id="link_InicioController_Stage">
            <path codeLine="21" d="M1168.86,90.24 C1180.97,99.38 1194.26,110.46 1205,122 C1230.51,149.41 1250.5971,181.0555 1264.2171,204.6155 " fill="none" id="InicioController-to-Stage" style="stroke:#181818;stroke-width:1.0;stroke-dasharray:7.0,7.0;"/>
            <polygon fill="#181818" points="1267.22,209.81,1266.1786,200.0164,1264.7176,205.4813,1259.2526,204.0202,1267.22,209.81" style="stroke:#181818;stroke-width:1.0;"/>
        </g>
        <!--link InicioController to UsuarioInfo-->
        <g id="link_InicioController_UsuarioInfo">
            <path codeLine="22" d="M1166.01,90.02 C1180.44,99.36 1198.3,109.09 1216,114 C1243.95,121.75 1711.17,110.99 1738,122 C1781.84,139.99 1815.0591,178.1936 1834.8091,205.0936 " fill="none" id="InicioController-to-UsuarioInfo" style="stroke:#181818;stroke-width:1.0;stroke-dasharray:7.0,7.0;"/>
            <polygon fill="#181818" points="1838.36,209.93,1836.2579,200.3081,1835.4009,205.8996,1829.8094,205.0426,1838.36,209.93" style="stroke:#181818;stroke-width:1.0;"/>
        </g>
        <!--link InicioMain to FXMLLoader-->
        <g id="link_InicioMain_FXMLLoader">
            <path codeLine="23" d="M1301.74,90.14 C1310.85,99.91 1321.5,111.45 1331,122 C1358.05,152.05 1384.7418,182.746 1404.2118,205.326 " fill="none" id="InicioMain-to-FXMLLoader" style="stroke:#181818;stroke-width:1.0;stroke-dasharray:7.0,7.0;"/>
            <polygon fill="#181818" points="1408.13,209.87,1405.2821,200.4419,1404.8649,206.0833,1399.2234,205.6661,1408.13,209.87" style="stroke:#181818;stroke-width:1.0;"/>
        </g>
        <!--link InicioMain to Parent-->
        <g id="link_InicioMain_Parent">
            <path codeLine="24" d="M1327.23,69.06 C1411.56,73.6 1583.64,86.98 1631,122 C1659.78,143.28 1672.5438,178.2069 1678.9438,203.9769 " fill="none" id="InicioMain-to-Parent" style="stroke:#181818;stroke-width:1.0;stroke-dasharray:7.0,7.0;"/>
            <polygon fill="#181818" points="1680.39,209.8,1682.1028,200.1012,1679.1849,204.9474,1674.3387,202.0295,1680.39,209.8" style="stroke:#181818;stroke-width:1.0;"/>
        </g>
        <!--link InicioMain to Scene-->
        <g id="link_InicioMain_Scene">
            <path codeLine="25" d="M1327.12,69.1 C1374.79,73.29 1448.72,85.68 1501,122 C1532.84,144.12 1552.8012,178.7936 1564.6912,204.2536 " fill="none" id="InicioMain-to-Scene" style="stroke:#181818;stroke-width:1.0;stroke-dasharray:7.0,7.0;"/>
            <polygon fill="#181818" points="1567.23,209.69,1567.046,199.8429,1565.1143,205.1597,1559.7975,203.228,1567.23,209.69" style="stroke:#181818;stroke-width:1.0;"/>
        </g>
        <!--link InicioMain to Stage-->
        <g id="link_InicioMain_Stage">
            <path codeLine="26" d="M1280,90.08 C1280,121.71 1280,172.18 1280,203.85 " fill="none" id="InicioMain-to-Stage" style="stroke:#181818;stroke-width:1.0;stroke-dasharray:7.0,7.0;"/>
            <polygon fill="#181818" points="1280,209.85,1284,200.85,1280,204.85,1276,200.85,1280,209.85" style="stroke:#181818;stroke-width:1.0;"/>
        </g>
        <!--link InicioMain to UsuarioInfo-->
        <g id="link_InicioMain_UsuarioInfo">
            <path codeLine="27" d="M1327.29,68.9 C1429.16,73.6 1665.95,87.95 1738,122 C1780.34,142.01 1813.3908,178.8127 1833.6408,205.0127 " fill="none" id="InicioMain-to-UsuarioInfo" style="stroke:#181818;stroke-width:1.0;stroke-dasharray:7.0,7.0;"/>
            <polygon fill="#181818" points="1837.31,209.76,1834.9711,200.1929,1834.2523,205.8039,1828.6413,205.0852,1837.31,209.76" style="stroke:#181818;stroke-width:1.0;"/>
        </g>
        <!--SRC=[ZPBHYi8m44NV_Gg_O3v1454K56H5y7KsJPTPqaGoiVZvcxJgfjeEUKadkUU6JEyeWyppPTMG9GuU5JaBm-q1oSvKnwqCQHiqmxF8j2r-K-WCKSyt6REp5C-W_woS3TuPe_sOchc-D6lV8iEpoBHVRB6-0rwlXXI6xlN_zJHqD1XgvviXeTlO5InLGjQf7ihrlJ6mkHpsUuVLwzaFaPMs6exeFsozSahhcn3m9mffVGYtG8QgU3d3cM_eoUrixMOJ_sqEi2Z8JdAF9oevv9mbvtYEaaCAhi3t6MU1AGz5makYIWtcTxyFa0WF1gg0x0TC1gTwUu7ZNVq1]-->
    </g>
</svg>
