<?xml version="1.0" encoding="UTF-8"?><svg xmlns="http://www.w3.org/2000/svg" xmlns:xlink="http://www.w3.org/1999/xlink" contentStyleType="text/css" height="305px" preserveAspectRatio="none" style="width:2426px;height:305px;background:#FFFFFF;" version="1.1" viewBox="0 0 2426 305" width="2426px" zoomAndPan="magnify">
    <defs/>
    <g>
        <!--cluster Inicio-->
        <g id="cluster_Inicio">
            <path d="M8.5,174 L47.5,174 A3.75,3.75 0 0 1 50,176.5 L57,197.6094 L161.5,197.6094 A2.5,2.5 0 0 1 164,200.1094 L164,271.5 A2.5,2.5 0 0 1 161.5,274 L8.5,274 A2.5,2.5 0 0 1 6,271.5 L6,176.5 A2.5,2.5 0 0 1 8.5,174 " fill="none" style="stroke:#000000;stroke-width:1.5;"/>
            <line style="stroke:#000000;stroke-width:1.5;" x1="6" x2="57" y1="197.6094" y2="197.6094"/>
            <text fill="#000000" font-family="sans-serif" font-size="14" font-weight="bold" lengthAdjust="spacing" textLength="38" x="10" y="190.5332">Inicio</text>
        </g>
        <!--cluster Login-->
        <g id="cluster_Login">
            <path d="M1321.5,6 L1361.5,6 A3.75,3.75 0 0 1 1364,8.5 L1371,29.6094 L1610.5,29.6094 A2.5,2.5 0 0 1 1613,32.1094 L1613,103.5 A2.5,2.5 0 0 1 1610.5,106 L1321.5,106 A2.5,2.5 0 0 1 1319,103.5 L1319,8.5 A2.5,2.5 0 0 1 1321.5,6 " fill="none" style="stroke:#000000;stroke-width:1.5;"/>
            <line style="stroke:#000000;stroke-width:1.5;" x1="1319" x2="1371" y1="29.6094" y2="29.6094"/>
            <text fill="#000000" font-family="sans-serif" font-size="14" font-weight="bold" lengthAdjust="spacing" textLength="39" x="1323" y="22.5332">Login</text>
        </g>
        <!--cluster java-->
        <g id="cluster_java">
            <path d="M190.5,130 L220.5,130 A3.75,3.75 0 0 1 223,132.5 L230,153.6094 L1319.5,153.6094 A2.5,2.5 0 0 1 1322,156.1094 L1322,295.5 A2.5,2.5 0 0 1 1319.5,298 L190.5,298 A2.5,2.5 0 0 1 188,295.5 L188,132.5 A2.5,2.5 0 0 1 190.5,130 " fill="none" style="stroke:#000000;stroke-width:1.5;"/>
            <line style="stroke:#000000;stroke-width:1.5;" x1="188" x2="230" y1="153.6094" y2="153.6094"/>
            <text fill="#000000" font-family="sans-serif" font-size="14" font-weight="bold" lengthAdjust="spacing" textLength="29" x="192" y="146.5332">java</text>
        </g>
        <!--cluster io-->
        <g id="cluster_io">
            <path d="M1160.5,174 L1174.5,174 A3.75,3.75 0 0 1 1177,176.5 L1184,197.6094 L1295.5,197.6094 A2.5,2.5 0 0 1 1298,200.1094 L1298,271.5 A2.5,2.5 0 0 1 1295.5,274 L1160.5,274 A2.5,2.5 0 0 1 1158,271.5 L1158,176.5 A2.5,2.5 0 0 1 1160.5,174 " fill="none" style="stroke:#000000;stroke-width:1.5;"/>
            <line style="stroke:#000000;stroke-width:1.5;" x1="1158" x2="1184" y1="197.6094" y2="197.6094"/>
            <text fill="#000000" font-family="sans-serif" font-size="14" font-weight="bold" lengthAdjust="spacing" textLength="13" x="1162" y="190.5332">io</text>
        </g>
        <!--cluster net-->
        <g id="cluster_net">
            <path d="M1044.5,174 L1068.5,174 A3.75,3.75 0 0 1 1071,176.5 L1078,197.6094 L1131.5,197.6094 A2.5,2.5 0 0 1 1134,200.1094 L1134,271.5 A2.5,2.5 0 0 1 1131.5,274 L1044.5,274 A2.5,2.5 0 0 1 1042,271.5 L1042,176.5 A2.5,2.5 0 0 1 1044.5,174 " fill="none" style="stroke:#000000;stroke-width:1.5;"/>
            <line style="stroke:#000000;stroke-width:1.5;" x1="1042" x2="1078" y1="197.6094" y2="197.6094"/>
            <text fill="#000000" font-family="sans-serif" font-size="14" font-weight="bold" lengthAdjust="spacing" textLength="23" x="1046" y="190.5332">net</text>
        </g>
        <!--cluster sql-->
        <g id="cluster_sql">
            <path d="M408.5,174 L430.5,174 A3.75,3.75 0 0 1 433,176.5 L440,197.6094 L1015.5,197.6094 A2.5,2.5 0 0 1 1018,200.1094 L1018,271.5 A2.5,2.5 0 0 1 1015.5,274 L408.5,274 A2.5,2.5 0 0 1 406,271.5 L406,176.5 A2.5,2.5 0 0 1 408.5,174 " fill="none" style="stroke:#000000;stroke-width:1.5;"/>
            <line style="stroke:#000000;stroke-width:1.5;" x1="406" x2="440" y1="197.6094" y2="197.6094"/>
            <text fill="#000000" font-family="sans-serif" font-size="14" font-weight="bold" lengthAdjust="spacing" textLength="21" x="410" y="190.5332">sql</text>
        </g>
        <!--cluster util-->
        <g id="cluster_util">
            <path d="M214.5,174 L237.5,174 A3.75,3.75 0 0 1 240,176.5 L247,197.6094 L379.5,197.6094 A2.5,2.5 0 0 1 382,200.1094 L382,271.5 A2.5,2.5 0 0 1 379.5,274 L214.5,274 A2.5,2.5 0 0 1 212,271.5 L212,176.5 A2.5,2.5 0 0 1 214.5,174 " fill="none" style="stroke:#000000;stroke-width:1.5;"/>
            <line style="stroke:#000000;stroke-width:1.5;" x1="212" x2="247" y1="197.6094" y2="197.6094"/>
            <text fill="#000000" font-family="sans-serif" font-size="14" font-weight="bold" lengthAdjust="spacing" textLength="22" x="216" y="190.5332">util</text>
        </g>
        <!--cluster javafx-->
        <g id="cluster_javafx">
            <path d="M1348.5,130 L1391.5,130 A3.75,3.75 0 0 1 1394,132.5 L1401,153.6094 L2058.5,153.6094 A2.5,2.5 0 0 1 2061,156.1094 L2061,295.5 A2.5,2.5 0 0 1 2058.5,298 L1348.5,298 A2.5,2.5 0 0 1 1346,295.5 L1346,132.5 A2.5,2.5 0 0 1 1348.5,130 " fill="none" style="stroke:#000000;stroke-width:1.5;"/>
            <line style="stroke:#000000;stroke-width:1.5;" x1="1346" x2="1401" y1="153.6094" y2="153.6094"/>
            <text fill="#000000" font-family="sans-serif" font-size="14" font-weight="bold" lengthAdjust="spacing" textLength="42" x="1350" y="146.5332">javafx</text>
        </g>
        <!--cluster application-->
        <g id="cluster_application">
            <path d="M1905.5,174 L1983.5,174 A3.75,3.75 0 0 1 1986,176.5 L1993,197.6094 L2034.5,197.6094 A2.5,2.5 0 0 1 2037,200.1094 L2037,271.5 A2.5,2.5 0 0 1 2034.5,274 L1905.5,274 A2.5,2.5 0 0 1 1903,271.5 L1903,176.5 A2.5,2.5 0 0 1 1905.5,174 " fill="none" style="stroke:#000000;stroke-width:1.5;"/>
            <line style="stroke:#000000;stroke-width:1.5;" x1="1903" x2="1993" y1="197.6094" y2="197.6094"/>
            <text fill="#000000" font-family="sans-serif" font-size="14" font-weight="bold" lengthAdjust="spacing" textLength="77" x="1907" y="190.5332">application</text>
        </g>
        <!--cluster fxml-->
        <g id="cluster_fxml">
            <path d="M1735.5,174 L1765.5,174 A3.75,3.75 0 0 1 1768,176.5 L1775,197.6094 L1876.5,197.6094 A2.5,2.5 0 0 1 1879,200.1094 L1879,271.5 A2.5,2.5 0 0 1 1876.5,274 L1735.5,274 A2.5,2.5 0 0 1 1733,271.5 L1733,176.5 A2.5,2.5 0 0 1 1735.5,174 " fill="none" style="stroke:#000000;stroke-width:1.5;"/>
            <line style="stroke:#000000;stroke-width:1.5;" x1="1733" x2="1775" y1="197.6094" y2="197.6094"/>
            <text fill="#000000" font-family="sans-serif" font-size="14" font-weight="bold" lengthAdjust="spacing" textLength="29" x="1737" y="190.5332">fxml</text>
        </g>
        <!--cluster scene-->
        <g id="cluster_scene">
            <path d="M1498.5,174 L1542.5,174 A3.75,3.75 0 0 1 1545,176.5 L1552,197.6094 L1706.5,197.6094 A2.5,2.5 0 0 1 1709,200.1094 L1709,271.5 A2.5,2.5 0 0 1 1706.5,274 L1498.5,274 A2.5,2.5 0 0 1 1496,271.5 L1496,176.5 A2.5,2.5 0 0 1 1498.5,174 " fill="none" style="stroke:#000000;stroke-width:1.5;"/>
            <line style="stroke:#000000;stroke-width:1.5;" x1="1496" x2="1552" y1="197.6094" y2="197.6094"/>
            <text fill="#000000" font-family="sans-serif" font-size="14" font-weight="bold" lengthAdjust="spacing" textLength="43" x="1500" y="190.5332">scene</text>
        </g>
        <!--cluster stage-->
        <g id="cluster_stage">
            <path d="M1372.5,174 L1412.5,174 A3.75,3.75 0 0 1 1415,176.5 L1422,197.6094 L1469.5,197.6094 A2.5,2.5 0 0 1 1472,200.1094 L1472,271.5 A2.5,2.5 0 0 1 1469.5,274 L1372.5,274 A2.5,2.5 0 0 1 1370,271.5 L1370,176.5 A2.5,2.5 0 0 1 1372.5,174 " fill="none" style="stroke:#000000;stroke-width:1.5;"/>
            <line style="stroke:#000000;stroke-width:1.5;" x1="1370" x2="1422" y1="197.6094" y2="197.6094"/>
            <text fill="#000000" font-family="sans-serif" font-size="14" font-weight="bold" lengthAdjust="spacing" textLength="39" x="1374" y="190.5332">stage</text>
        </g>
        <!--cluster utilidades-->
        <g id="cluster_utilidades">
            <path d="M2087.5,174 L2157.5,174 A3.75,3.75 0 0 1 2160,176.5 L2167,197.6094 L2416.5,197.6094 A2.5,2.5 0 0 1 2419,200.1094 L2419,271.5 A2.5,2.5 0 0 1 2416.5,274 L2087.5,274 A2.5,2.5 0 0 1 2085,271.5 L2085,176.5 A2.5,2.5 0 0 1 2087.5,174 " fill="none" style="stroke:#000000;stroke-width:1.5;"/>
            <line style="stroke:#000000;stroke-width:1.5;" x1="2085" x2="2167" y1="197.6094" y2="197.6094"/>
            <text fill="#000000" font-family="sans-serif" font-size="14" font-weight="bold" lengthAdjust="spacing" textLength="69" x="2089" y="190.5332">utilidades</text>
        </g>
        <!--class InicioController-->
        <g id="elem_InicioController">
            <rect codeLine="1" fill="#F1F1F1" height="48" id="InicioController" rx="2.5" ry="2.5" style="stroke:#181818;stroke-width:0.5;" width="126" x="22" y="210"/>
            <ellipse cx="37" cy="226" fill="#ADD1B2" rx="11" ry="11" style="stroke:#181818;stroke-width:1.0;"/>
            <path d="M39.7656,221.875 Q39.9219,221.6563 40.1094,221.5469 Q40.2969,221.4375 40.5156,221.4375 Q40.8906,221.4375 41.125,221.7031 Q41.3594,221.9531 41.3594,222.5625 L41.3594,224.0156 Q41.3594,224.625 41.125,224.8906 Q40.8906,225.1563 40.5156,225.1563 Q40.1719,225.1563 39.9688,224.9531 Q39.7656,224.7656 39.6563,224.25 Q39.6094,223.8906 39.4219,223.7031 Q39.0938,223.3281 38.4844,223.1094 Q37.875,222.8906 37.25,222.8906 Q36.4844,222.8906 35.8438,223.2188 Q35.2188,223.5469 34.7188,224.2969 Q34.2344,225.0469 34.2344,226.0781 L34.2344,227.1719 Q34.2344,228.4063 35.125,229.2344 Q36.0156,230.0469 37.6094,230.0469 Q38.5469,230.0469 39.2031,229.7969 Q39.5938,229.6406 40.0156,229.2031 Q40.2813,228.9375 40.4219,228.8594 Q40.5781,228.7813 40.7813,228.7813 Q41.1094,228.7813 41.3594,229.0469 Q41.625,229.2969 41.625,229.6406 Q41.625,229.9844 41.2813,230.3906 Q40.7813,230.9688 39.9844,231.2969 Q38.9063,231.75 37.6094,231.75 Q36.0938,231.75 34.8906,231.125 Q33.9063,230.625 33.2188,229.5625 Q32.5313,228.4844 32.5313,227.2031 L32.5313,226.0469 Q32.5313,224.7188 33.1406,223.5781 Q33.7656,222.4219 34.8594,221.8125 Q35.9531,221.1875 37.1875,221.1875 Q37.9219,221.1875 38.5625,221.3594 Q39.2188,221.5156 39.7656,221.875 Z " fill="#000000"/>
            <text fill="#000000" font-family="sans-serif" font-size="14" lengthAdjust="spacing" textLength="94" x="51" y="231.7285">InicioController</text>
            <line style="stroke:#181818;stroke-width:0.5;" x1="23" x2="147" y1="242" y2="242"/>
            <line style="stroke:#181818;stroke-width:0.5;" x1="23" x2="147" y1="250" y2="250"/>
        </g>
        <!--class LoginController-->
        <g id="elem_LoginController">
            <rect codeLine="2" fill="#F1F1F1" height="48" id="LoginController" rx="2.5" ry="2.5" style="stroke:#181818;stroke-width:0.5;" width="129" x="1335.5" y="42"/>
            <ellipse cx="1350.5" cy="58" fill="#ADD1B2" rx="11" ry="11" style="stroke:#181818;stroke-width:1.0;"/>
            <path d="M1353.2656,53.875 Q1353.4219,53.6563 1353.6094,53.5469 Q1353.7969,53.4375 1354.0156,53.4375 Q1354.3906,53.4375 1354.625,53.7031 Q1354.8594,53.9531 1354.8594,54.5625 L1354.8594,56.0156 Q1354.8594,56.625 1354.625,56.8906 Q1354.3906,57.1563 1354.0156,57.1563 Q1353.6719,57.1563 1353.4688,56.9531 Q1353.2656,56.7656 1353.1563,56.25 Q1353.1094,55.8906 1352.9219,55.7031 Q1352.5938,55.3281 1351.9844,55.1094 Q1351.375,54.8906 1350.75,54.8906 Q1349.9844,54.8906 1349.3438,55.2188 Q1348.7188,55.5469 1348.2188,56.2969 Q1347.7344,57.0469 1347.7344,58.0781 L1347.7344,59.1719 Q1347.7344,60.4063 1348.625,61.2344 Q1349.5156,62.0469 1351.1094,62.0469 Q1352.0469,62.0469 1352.7031,61.7969 Q1353.0938,61.6406 1353.5156,61.2031 Q1353.7813,60.9375 1353.9219,60.8594 Q1354.0781,60.7813 1354.2813,60.7813 Q1354.6094,60.7813 1354.8594,61.0469 Q1355.125,61.2969 1355.125,61.6406 Q1355.125,61.9844 1354.7813,62.3906 Q1354.2813,62.9688 1353.4844,63.2969 Q1352.4063,63.75 1351.1094,63.75 Q1349.5938,63.75 1348.3906,63.125 Q1347.4063,62.625 1346.7188,61.5625 Q1346.0313,60.4844 1346.0313,59.2031 L1346.0313,58.0469 Q1346.0313,56.7188 1346.6406,55.5781 Q1347.2656,54.4219 1348.3594,53.8125 Q1349.4531,53.1875 1350.6875,53.1875 Q1351.4219,53.1875 1352.0625,53.3594 Q1352.7188,53.5156 1353.2656,53.875 Z " fill="#000000"/>
            <text fill="#000000" font-family="sans-serif" font-size="14" lengthAdjust="spacing" textLength="97" x="1364.5" y="63.7285">LoginController</text>
            <line style="stroke:#181818;stroke-width:0.5;" x1="1336.5" x2="1463.5" y1="74" y2="74"/>
            <line style="stroke:#181818;stroke-width:0.5;" x1="1336.5" x2="1463.5" y1="82" y2="82"/>
        </g>
        <!--class LoginMain-->
        <g id="elem_LoginMain">
            <rect codeLine="3" fill="#F1F1F1" height="48" id="LoginMain" rx="2.5" ry="2.5" style="stroke:#181818;stroke-width:0.5;" width="97" x="1499.5" y="42"/>
            <ellipse cx="1514.5" cy="58" fill="#ADD1B2" rx="11" ry="11" style="stroke:#181818;stroke-width:1.0;"/>
            <path d="M1517.2656,53.875 Q1517.4219,53.6563 1517.6094,53.5469 Q1517.7969,53.4375 1518.0156,53.4375 Q1518.3906,53.4375 1518.625,53.7031 Q1518.8594,53.9531 1518.8594,54.5625 L1518.8594,56.0156 Q1518.8594,56.625 1518.625,56.8906 Q1518.3906,57.1563 1518.0156,57.1563 Q1517.6719,57.1563 1517.4688,56.9531 Q1517.2656,56.7656 1517.1563,56.25 Q1517.1094,55.8906 1516.9219,55.7031 Q1516.5938,55.3281 1515.9844,55.1094 Q1515.375,54.8906 1514.75,54.8906 Q1513.9844,54.8906 1513.3438,55.2188 Q1512.7188,55.5469 1512.2188,56.2969 Q1511.7344,57.0469 1511.7344,58.0781 L1511.7344,59.1719 Q1511.7344,60.4063 1512.625,61.2344 Q1513.5156,62.0469 1515.1094,62.0469 Q1516.0469,62.0469 1516.7031,61.7969 Q1517.0938,61.6406 1517.5156,61.2031 Q1517.7813,60.9375 1517.9219,60.8594 Q1518.0781,60.7813 1518.2813,60.7813 Q1518.6094,60.7813 1518.8594,61.0469 Q1519.125,61.2969 1519.125,61.6406 Q1519.125,61.9844 1518.7813,62.3906 Q1518.2813,62.9688 1517.4844,63.2969 Q1516.4063,63.75 1515.1094,63.75 Q1513.5938,63.75 1512.3906,63.125 Q1511.4063,62.625 1510.7188,61.5625 Q1510.0313,60.4844 1510.0313,59.2031 L1510.0313,58.0469 Q1510.0313,56.7188 1510.6406,55.5781 Q1511.2656,54.4219 1512.3594,53.8125 Q1513.4531,53.1875 1514.6875,53.1875 Q1515.4219,53.1875 1516.0625,53.3594 Q1516.7188,53.5156 1517.2656,53.875 Z " fill="#000000"/>
            <text fill="#000000" font-family="sans-serif" font-size="14" lengthAdjust="spacing" textLength="65" x="1528.5" y="63.7285">LoginMain</text>
            <line style="stroke:#181818;stroke-width:0.5;" x1="1500.5" x2="1595.5" y1="74" y2="74"/>
            <line style="stroke:#181818;stroke-width:0.5;" x1="1500.5" x2="1595.5" y1="82" y2="82"/>
        </g>
        <!--class IOException-->
        <g id="elem_IOException">
            <rect codeLine="4" fill="#F1F1F1" height="48" id="IOException" rx="2.5" ry="2.5" style="stroke:#181818;stroke-width:0.5;" width="107" x="1174.5" y="210"/>
            <ellipse cx="1189.5" cy="226" fill="#ADD1B2" rx="11" ry="11" style="stroke:#181818;stroke-width:1.0;"/>
            <path d="M1192.2656,221.875 Q1192.4219,221.6563 1192.6094,221.5469 Q1192.7969,221.4375 1193.0156,221.4375 Q1193.3906,221.4375 1193.625,221.7031 Q1193.8594,221.9531 1193.8594,222.5625 L1193.8594,224.0156 Q1193.8594,224.625 1193.625,224.8906 Q1193.3906,225.1563 1193.0156,225.1563 Q1192.6719,225.1563 1192.4688,224.9531 Q1192.2656,224.7656 1192.1563,224.25 Q1192.1094,223.8906 1191.9219,223.7031 Q1191.5938,223.3281 1190.9844,223.1094 Q1190.375,222.8906 1189.75,222.8906 Q1188.9844,222.8906 1188.3438,223.2188 Q1187.7188,223.5469 1187.2188,224.2969 Q1186.7344,225.0469 1186.7344,226.0781 L1186.7344,227.1719 Q1186.7344,228.4063 1187.625,229.2344 Q1188.5156,230.0469 1190.1094,230.0469 Q1191.0469,230.0469 1191.7031,229.7969 Q1192.0938,229.6406 1192.5156,229.2031 Q1192.7813,228.9375 1192.9219,228.8594 Q1193.0781,228.7813 1193.2813,228.7813 Q1193.6094,228.7813 1193.8594,229.0469 Q1194.125,229.2969 1194.125,229.6406 Q1194.125,229.9844 1193.7813,230.3906 Q1193.2813,230.9688 1192.4844,231.2969 Q1191.4063,231.75 1190.1094,231.75 Q1188.5938,231.75 1187.3906,231.125 Q1186.4063,230.625 1185.7188,229.5625 Q1185.0313,228.4844 1185.0313,227.2031 L1185.0313,226.0469 Q1185.0313,224.7188 1185.6406,223.5781 Q1186.2656,222.4219 1187.3594,221.8125 Q1188.4531,221.1875 1189.6875,221.1875 Q1190.4219,221.1875 1191.0625,221.3594 Q1191.7188,221.5156 1192.2656,221.875 Z " fill="#000000"/>
            <text fill="#000000" font-family="sans-serif" font-size="14" lengthAdjust="spacing" textLength="75" x="1203.5" y="231.7285">IOException</text>
            <line style="stroke:#181818;stroke-width:0.5;" x1="1175.5" x2="1280.5" y1="242" y2="242"/>
            <line style="stroke:#181818;stroke-width:0.5;" x1="1175.5" x2="1280.5" y1="250" y2="250"/>
        </g>
        <!--class URL-->
        <g id="elem_URL">
            <rect codeLine="5" fill="#F1F1F1" height="48" id="URL" rx="2.5" ry="2.5" style="stroke:#181818;stroke-width:0.5;" width="59" x="1058.5" y="210"/>
            <ellipse cx="1073.5" cy="226" fill="#ADD1B2" rx="11" ry="11" style="stroke:#181818;stroke-width:1.0;"/>
            <path d="M1076.2656,221.875 Q1076.4219,221.6563 1076.6094,221.5469 Q1076.7969,221.4375 1077.0156,221.4375 Q1077.3906,221.4375 1077.625,221.7031 Q1077.8594,221.9531 1077.8594,222.5625 L1077.8594,224.0156 Q1077.8594,224.625 1077.625,224.8906 Q1077.3906,225.1563 1077.0156,225.1563 Q1076.6719,225.1563 1076.4688,224.9531 Q1076.2656,224.7656 1076.1563,224.25 Q1076.1094,223.8906 1075.9219,223.7031 Q1075.5938,223.3281 1074.9844,223.1094 Q1074.375,222.8906 1073.75,222.8906 Q1072.9844,222.8906 1072.3438,223.2188 Q1071.7188,223.5469 1071.2188,224.2969 Q1070.7344,225.0469 1070.7344,226.0781 L1070.7344,227.1719 Q1070.7344,228.4063 1071.625,229.2344 Q1072.5156,230.0469 1074.1094,230.0469 Q1075.0469,230.0469 1075.7031,229.7969 Q1076.0938,229.6406 1076.5156,229.2031 Q1076.7813,228.9375 1076.9219,228.8594 Q1077.0781,228.7813 1077.2813,228.7813 Q1077.6094,228.7813 1077.8594,229.0469 Q1078.125,229.2969 1078.125,229.6406 Q1078.125,229.9844 1077.7813,230.3906 Q1077.2813,230.9688 1076.4844,231.2969 Q1075.4063,231.75 1074.1094,231.75 Q1072.5938,231.75 1071.3906,231.125 Q1070.4063,230.625 1069.7188,229.5625 Q1069.0313,228.4844 1069.0313,227.2031 L1069.0313,226.0469 Q1069.0313,224.7188 1069.6406,223.5781 Q1070.2656,222.4219 1071.3594,221.8125 Q1072.4531,221.1875 1073.6875,221.1875 Q1074.4219,221.1875 1075.0625,221.3594 Q1075.7188,221.5156 1076.2656,221.875 Z " fill="#000000"/>
            <text fill="#000000" font-family="sans-serif" font-size="14" lengthAdjust="spacing" textLength="27" x="1087.5" y="231.7285">URL</text>
            <line style="stroke:#181818;stroke-width:0.5;" x1="1059.5" x2="1116.5" y1="242" y2="242"/>
            <line style="stroke:#181818;stroke-width:0.5;" x1="1059.5" x2="1116.5" y1="250" y2="250"/>
        </g>
        <!--class Connection-->
        <g id="elem_Connection">
            <rect codeLine="6" fill="#F1F1F1" height="48" id="Connection" rx="2.5" ry="2.5" style="stroke:#181818;stroke-width:0.5;" width="104" x="613" y="210"/>
            <ellipse cx="628" cy="226" fill="#ADD1B2" rx="11" ry="11" style="stroke:#181818;stroke-width:1.0;"/>
            <path d="M630.7656,221.875 Q630.9219,221.6563 631.1094,221.5469 Q631.2969,221.4375 631.5156,221.4375 Q631.8906,221.4375 632.125,221.7031 Q632.3594,221.9531 632.3594,222.5625 L632.3594,224.0156 Q632.3594,224.625 632.125,224.8906 Q631.8906,225.1563 631.5156,225.1563 Q631.1719,225.1563 630.9688,224.9531 Q630.7656,224.7656 630.6563,224.25 Q630.6094,223.8906 630.4219,223.7031 Q630.0938,223.3281 629.4844,223.1094 Q628.875,222.8906 628.25,222.8906 Q627.4844,222.8906 626.8438,223.2188 Q626.2188,223.5469 625.7188,224.2969 Q625.2344,225.0469 625.2344,226.0781 L625.2344,227.1719 Q625.2344,228.4063 626.125,229.2344 Q627.0156,230.0469 628.6094,230.0469 Q629.5469,230.0469 630.2031,229.7969 Q630.5938,229.6406 631.0156,229.2031 Q631.2813,228.9375 631.4219,228.8594 Q631.5781,228.7813 631.7813,228.7813 Q632.1094,228.7813 632.3594,229.0469 Q632.625,229.2969 632.625,229.6406 Q632.625,229.9844 632.2813,230.3906 Q631.7813,230.9688 630.9844,231.2969 Q629.9063,231.75 628.6094,231.75 Q627.0938,231.75 625.8906,231.125 Q624.9063,230.625 624.2188,229.5625 Q623.5313,228.4844 623.5313,227.2031 L623.5313,226.0469 Q623.5313,224.7188 624.1406,223.5781 Q624.7656,222.4219 625.8594,221.8125 Q626.9531,221.1875 628.1875,221.1875 Q628.9219,221.1875 629.5625,221.3594 Q630.2188,221.5156 630.7656,221.875 Z " fill="#000000"/>
            <text fill="#000000" font-family="sans-serif" font-size="14" lengthAdjust="spacing" textLength="72" x="642" y="231.7285">Connection</text>
            <line style="stroke:#181818;stroke-width:0.5;" x1="614" x2="716" y1="242" y2="242"/>
            <line style="stroke:#181818;stroke-width:0.5;" x1="614" x2="716" y1="250" y2="250"/>
        </g>
        <!--class PreparedStatement-->
        <g id="elem_PreparedStatement">
            <rect codeLine="7" fill="#F1F1F1" height="48" id="PreparedStatement" rx="2.5" ry="2.5" style="stroke:#181818;stroke-width:0.5;" width="155" x="422.5" y="210"/>
            <ellipse cx="437.5" cy="226" fill="#ADD1B2" rx="11" ry="11" style="stroke:#181818;stroke-width:1.0;"/>
            <path d="M440.2656,221.875 Q440.4219,221.6563 440.6094,221.5469 Q440.7969,221.4375 441.0156,221.4375 Q441.3906,221.4375 441.625,221.7031 Q441.8594,221.9531 441.8594,222.5625 L441.8594,224.0156 Q441.8594,224.625 441.625,224.8906 Q441.3906,225.1563 441.0156,225.1563 Q440.6719,225.1563 440.4688,224.9531 Q440.2656,224.7656 440.1563,224.25 Q440.1094,223.8906 439.9219,223.7031 Q439.5938,223.3281 438.9844,223.1094 Q438.375,222.8906 437.75,222.8906 Q436.9844,222.8906 436.3438,223.2188 Q435.7188,223.5469 435.2188,224.2969 Q434.7344,225.0469 434.7344,226.0781 L434.7344,227.1719 Q434.7344,228.4063 435.625,229.2344 Q436.5156,230.0469 438.1094,230.0469 Q439.0469,230.0469 439.7031,229.7969 Q440.0938,229.6406 440.5156,229.2031 Q440.7813,228.9375 440.9219,228.8594 Q441.0781,228.7813 441.2813,228.7813 Q441.6094,228.7813 441.8594,229.0469 Q442.125,229.2969 442.125,229.6406 Q442.125,229.9844 441.7813,230.3906 Q441.2813,230.9688 440.4844,231.2969 Q439.4063,231.75 438.1094,231.75 Q436.5938,231.75 435.3906,231.125 Q434.4063,230.625 433.7188,229.5625 Q433.0313,228.4844 433.0313,227.2031 L433.0313,226.0469 Q433.0313,224.7188 433.6406,223.5781 Q434.2656,222.4219 435.3594,221.8125 Q436.4531,221.1875 437.6875,221.1875 Q438.4219,221.1875 439.0625,221.3594 Q439.7188,221.5156 440.2656,221.875 Z " fill="#000000"/>
            <text fill="#000000" font-family="sans-serif" font-size="14" lengthAdjust="spacing" textLength="123" x="451.5" y="231.7285">PreparedStatement</text>
            <line style="stroke:#181818;stroke-width:0.5;" x1="423.5" x2="576.5" y1="242" y2="242"/>
            <line style="stroke:#181818;stroke-width:0.5;" x1="423.5" x2="576.5" y1="250" y2="250"/>
        </g>
        <!--class ResultSet-->
        <g id="elem_ResultSet">
            <rect codeLine="8" fill="#F1F1F1" height="48" id="ResultSet" rx="2.5" ry="2.5" style="stroke:#181818;stroke-width:0.5;" width="93" x="908.5" y="210"/>
            <ellipse cx="923.5" cy="226" fill="#ADD1B2" rx="11" ry="11" style="stroke:#181818;stroke-width:1.0;"/>
            <path d="M926.2656,221.875 Q926.4219,221.6563 926.6094,221.5469 Q926.7969,221.4375 927.0156,221.4375 Q927.3906,221.4375 927.625,221.7031 Q927.8594,221.9531 927.8594,222.5625 L927.8594,224.0156 Q927.8594,224.625 927.625,224.8906 Q927.3906,225.1563 927.0156,225.1563 Q926.6719,225.1563 926.4688,224.9531 Q926.2656,224.7656 926.1563,224.25 Q926.1094,223.8906 925.9219,223.7031 Q925.5938,223.3281 924.9844,223.1094 Q924.375,222.8906 923.75,222.8906 Q922.9844,222.8906 922.3438,223.2188 Q921.7188,223.5469 921.2188,224.2969 Q920.7344,225.0469 920.7344,226.0781 L920.7344,227.1719 Q920.7344,228.4063 921.625,229.2344 Q922.5156,230.0469 924.1094,230.0469 Q925.0469,230.0469 925.7031,229.7969 Q926.0938,229.6406 926.5156,229.2031 Q926.7813,228.9375 926.9219,228.8594 Q927.0781,228.7813 927.2813,228.7813 Q927.6094,228.7813 927.8594,229.0469 Q928.125,229.2969 928.125,229.6406 Q928.125,229.9844 927.7813,230.3906 Q927.2813,230.9688 926.4844,231.2969 Q925.4063,231.75 924.1094,231.75 Q922.5938,231.75 921.3906,231.125 Q920.4063,230.625 919.7188,229.5625 Q919.0313,228.4844 919.0313,227.2031 L919.0313,226.0469 Q919.0313,224.7188 919.6406,223.5781 Q920.2656,222.4219 921.3594,221.8125 Q922.4531,221.1875 923.6875,221.1875 Q924.4219,221.1875 925.0625,221.3594 Q925.7188,221.5156 926.2656,221.875 Z " fill="#000000"/>
            <text fill="#000000" font-family="sans-serif" font-size="14" lengthAdjust="spacing" textLength="61" x="937.5" y="231.7285">ResultSet</text>
            <line style="stroke:#181818;stroke-width:0.5;" x1="909.5" x2="1000.5" y1="242" y2="242"/>
            <line style="stroke:#181818;stroke-width:0.5;" x1="909.5" x2="1000.5" y1="250" y2="250"/>
        </g>
        <!--class SQLException-->
        <g id="elem_SQLException">
            <rect codeLine="9" fill="#F1F1F1" height="48" id="SQLException" rx="2.5" ry="2.5" style="stroke:#181818;stroke-width:0.5;" width="121" x="752.5" y="210"/>
            <ellipse cx="767.5" cy="226" fill="#ADD1B2" rx="11" ry="11" style="stroke:#181818;stroke-width:1.0;"/>
            <path d="M770.2656,221.875 Q770.4219,221.6563 770.6094,221.5469 Q770.7969,221.4375 771.0156,221.4375 Q771.3906,221.4375 771.625,221.7031 Q771.8594,221.9531 771.8594,222.5625 L771.8594,224.0156 Q771.8594,224.625 771.625,224.8906 Q771.3906,225.1563 771.0156,225.1563 Q770.6719,225.1563 770.4688,224.9531 Q770.2656,224.7656 770.1563,224.25 Q770.1094,223.8906 769.9219,223.7031 Q769.5938,223.3281 768.9844,223.1094 Q768.375,222.8906 767.75,222.8906 Q766.9844,222.8906 766.3438,223.2188 Q765.7188,223.5469 765.2188,224.2969 Q764.7344,225.0469 764.7344,226.0781 L764.7344,227.1719 Q764.7344,228.4063 765.625,229.2344 Q766.5156,230.0469 768.1094,230.0469 Q769.0469,230.0469 769.7031,229.7969 Q770.0938,229.6406 770.5156,229.2031 Q770.7813,228.9375 770.9219,228.8594 Q771.0781,228.7813 771.2813,228.7813 Q771.6094,228.7813 771.8594,229.0469 Q772.125,229.2969 772.125,229.6406 Q772.125,229.9844 771.7813,230.3906 Q771.2813,230.9688 770.4844,231.2969 Q769.4063,231.75 768.1094,231.75 Q766.5938,231.75 765.3906,231.125 Q764.4063,230.625 763.7188,229.5625 Q763.0313,228.4844 763.0313,227.2031 L763.0313,226.0469 Q763.0313,224.7188 763.6406,223.5781 Q764.2656,222.4219 765.3594,221.8125 Q766.4531,221.1875 767.6875,221.1875 Q768.4219,221.1875 769.0625,221.3594 Q769.7188,221.5156 770.2656,221.875 Z " fill="#000000"/>
            <text fill="#000000" font-family="sans-serif" font-size="14" lengthAdjust="spacing" textLength="89" x="781.5" y="231.7285">SQLException</text>
            <line style="stroke:#181818;stroke-width:0.5;" x1="753.5" x2="872.5" y1="242" y2="242"/>
            <line style="stroke:#181818;stroke-width:0.5;" x1="753.5" x2="872.5" y1="250" y2="250"/>
        </g>
        <!--class ResourceBundle-->
        <g id="elem_ResourceBundle">
            <rect codeLine="10" fill="#F1F1F1" height="48" id="ResourceBundle" rx="2.5" ry="2.5" style="stroke:#181818;stroke-width:0.5;" width="137" x="228.5" y="210"/>
            <ellipse cx="243.5" cy="226" fill="#ADD1B2" rx="11" ry="11" style="stroke:#181818;stroke-width:1.0;"/>
            <path d="M246.2656,221.875 Q246.4219,221.6563 246.6094,221.5469 Q246.7969,221.4375 247.0156,221.4375 Q247.3906,221.4375 247.625,221.7031 Q247.8594,221.9531 247.8594,222.5625 L247.8594,224.0156 Q247.8594,224.625 247.625,224.8906 Q247.3906,225.1563 247.0156,225.1563 Q246.6719,225.1563 246.4688,224.9531 Q246.2656,224.7656 246.1563,224.25 Q246.1094,223.8906 245.9219,223.7031 Q245.5938,223.3281 244.9844,223.1094 Q244.375,222.8906 243.75,222.8906 Q242.9844,222.8906 242.3438,223.2188 Q241.7188,223.5469 241.2188,224.2969 Q240.7344,225.0469 240.7344,226.0781 L240.7344,227.1719 Q240.7344,228.4063 241.625,229.2344 Q242.5156,230.0469 244.1094,230.0469 Q245.0469,230.0469 245.7031,229.7969 Q246.0938,229.6406 246.5156,229.2031 Q246.7813,228.9375 246.9219,228.8594 Q247.0781,228.7813 247.2813,228.7813 Q247.6094,228.7813 247.8594,229.0469 Q248.125,229.2969 248.125,229.6406 Q248.125,229.9844 247.7813,230.3906 Q247.2813,230.9688 246.4844,231.2969 Q245.4063,231.75 244.1094,231.75 Q242.5938,231.75 241.3906,231.125 Q240.4063,230.625 239.7188,229.5625 Q239.0313,228.4844 239.0313,227.2031 L239.0313,226.0469 Q239.0313,224.7188 239.6406,223.5781 Q240.2656,222.4219 241.3594,221.8125 Q242.4531,221.1875 243.6875,221.1875 Q244.4219,221.1875 245.0625,221.3594 Q245.7188,221.5156 246.2656,221.875 Z " fill="#000000"/>
            <text fill="#000000" font-family="sans-serif" font-size="14" lengthAdjust="spacing" textLength="105" x="257.5" y="231.7285">ResourceBundle</text>
            <line style="stroke:#181818;stroke-width:0.5;" x1="229.5" x2="364.5" y1="242" y2="242"/>
            <line style="stroke:#181818;stroke-width:0.5;" x1="229.5" x2="364.5" y1="250" y2="250"/>
        </g>
        <!--class Application-->
        <g id="elem_Application">
            <rect codeLine="11" fill="#F1F1F1" height="48" id="Application" rx="2.5" ry="2.5" style="stroke:#181818;stroke-width:0.5;" width="101" x="1919.5" y="210"/>
            <ellipse cx="1934.5" cy="226" fill="#ADD1B2" rx="11" ry="11" style="stroke:#181818;stroke-width:1.0;"/>
            <path d="M1937.2656,221.875 Q1937.4219,221.6563 1937.6094,221.5469 Q1937.7969,221.4375 1938.0156,221.4375 Q1938.3906,221.4375 1938.625,221.7031 Q1938.8594,221.9531 1938.8594,222.5625 L1938.8594,224.0156 Q1938.8594,224.625 1938.625,224.8906 Q1938.3906,225.1563 1938.0156,225.1563 Q1937.6719,225.1563 1937.4688,224.9531 Q1937.2656,224.7656 1937.1563,224.25 Q1937.1094,223.8906 1936.9219,223.7031 Q1936.5938,223.3281 1935.9844,223.1094 Q1935.375,222.8906 1934.75,222.8906 Q1933.9844,222.8906 1933.3438,223.2188 Q1932.7188,223.5469 1932.2188,224.2969 Q1931.7344,225.0469 1931.7344,226.0781 L1931.7344,227.1719 Q1931.7344,228.4063 1932.625,229.2344 Q1933.5156,230.0469 1935.1094,230.0469 Q1936.0469,230.0469 1936.7031,229.7969 Q1937.0938,229.6406 1937.5156,229.2031 Q1937.7813,228.9375 1937.9219,228.8594 Q1938.0781,228.7813 1938.2813,228.7813 Q1938.6094,228.7813 1938.8594,229.0469 Q1939.125,229.2969 1939.125,229.6406 Q1939.125,229.9844 1938.7813,230.3906 Q1938.2813,230.9688 1937.4844,231.2969 Q1936.4063,231.75 1935.1094,231.75 Q1933.5938,231.75 1932.3906,231.125 Q1931.4063,230.625 1930.7188,229.5625 Q1930.0313,228.4844 1930.0313,227.2031 L1930.0313,226.0469 Q1930.0313,224.7188 1930.6406,223.5781 Q1931.2656,222.4219 1932.3594,221.8125 Q1933.4531,221.1875 1934.6875,221.1875 Q1935.4219,221.1875 1936.0625,221.3594 Q1936.7188,221.5156 1937.2656,221.875 Z " fill="#000000"/>
            <text fill="#000000" font-family="sans-serif" font-size="14" lengthAdjust="spacing" textLength="69" x="1948.5" y="231.7285">Application</text>
            <line style="stroke:#181818;stroke-width:0.5;" x1="1920.5" x2="2019.5" y1="242" y2="242"/>
            <line style="stroke:#181818;stroke-width:0.5;" x1="1920.5" x2="2019.5" y1="250" y2="250"/>
        </g>
        <!--class FXMLLoader-->
        <g id="elem_FXMLLoader">
            <rect codeLine="12" fill="#F1F1F1" height="48" id="FXMLLoader" rx="2.5" ry="2.5" style="stroke:#181818;stroke-width:0.5;" width="113" x="1749.5" y="210"/>
            <ellipse cx="1764.5" cy="226" fill="#ADD1B2" rx="11" ry="11" style="stroke:#181818;stroke-width:1.0;"/>
            <path d="M1767.2656,221.875 Q1767.4219,221.6563 1767.6094,221.5469 Q1767.7969,221.4375 1768.0156,221.4375 Q1768.3906,221.4375 1768.625,221.7031 Q1768.8594,221.9531 1768.8594,222.5625 L1768.8594,224.0156 Q1768.8594,224.625 1768.625,224.8906 Q1768.3906,225.1563 1768.0156,225.1563 Q1767.6719,225.1563 1767.4688,224.9531 Q1767.2656,224.7656 1767.1563,224.25 Q1767.1094,223.8906 1766.9219,223.7031 Q1766.5938,223.3281 1765.9844,223.1094 Q1765.375,222.8906 1764.75,222.8906 Q1763.9844,222.8906 1763.3438,223.2188 Q1762.7188,223.5469 1762.2188,224.2969 Q1761.7344,225.0469 1761.7344,226.0781 L1761.7344,227.1719 Q1761.7344,228.4063 1762.625,229.2344 Q1763.5156,230.0469 1765.1094,230.0469 Q1766.0469,230.0469 1766.7031,229.7969 Q1767.0938,229.6406 1767.5156,229.2031 Q1767.7813,228.9375 1767.9219,228.8594 Q1768.0781,228.7813 1768.2813,228.7813 Q1768.6094,228.7813 1768.8594,229.0469 Q1769.125,229.2969 1769.125,229.6406 Q1769.125,229.9844 1768.7813,230.3906 Q1768.2813,230.9688 1767.4844,231.2969 Q1766.4063,231.75 1765.1094,231.75 Q1763.5938,231.75 1762.3906,231.125 Q1761.4063,230.625 1760.7188,229.5625 Q1760.0313,228.4844 1760.0313,227.2031 L1760.0313,226.0469 Q1760.0313,224.7188 1760.6406,223.5781 Q1761.2656,222.4219 1762.3594,221.8125 Q1763.4531,221.1875 1764.6875,221.1875 Q1765.4219,221.1875 1766.0625,221.3594 Q1766.7188,221.5156 1767.2656,221.875 Z " fill="#000000"/>
            <text fill="#000000" font-family="sans-serif" font-size="14" lengthAdjust="spacing" textLength="81" x="1778.5" y="231.7285">FXMLLoader</text>
            <line style="stroke:#181818;stroke-width:0.5;" x1="1750.5" x2="1861.5" y1="242" y2="242"/>
            <line style="stroke:#181818;stroke-width:0.5;" x1="1750.5" x2="1861.5" y1="250" y2="250"/>
        </g>
        <!--class Parent-->
        <g id="elem_Parent">
            <rect codeLine="13" fill="#F1F1F1" height="48" id="Parent" rx="2.5" ry="2.5" style="stroke:#181818;stroke-width:0.5;" width="74" x="1619" y="210"/>
            <ellipse cx="1634" cy="226" fill="#ADD1B2" rx="11" ry="11" style="stroke:#181818;stroke-width:1.0;"/>
            <path d="M1636.7656,221.875 Q1636.9219,221.6563 1637.1094,221.5469 Q1637.2969,221.4375 1637.5156,221.4375 Q1637.8906,221.4375 1638.125,221.7031 Q1638.3594,221.9531 1638.3594,222.5625 L1638.3594,224.0156 Q1638.3594,224.625 1638.125,224.8906 Q1637.8906,225.1563 1637.5156,225.1563 Q1637.1719,225.1563 1636.9688,224.9531 Q1636.7656,224.7656 1636.6563,224.25 Q1636.6094,223.8906 1636.4219,223.7031 Q1636.0938,223.3281 1635.4844,223.1094 Q1634.875,222.8906 1634.25,222.8906 Q1633.4844,222.8906 1632.8438,223.2188 Q1632.2188,223.5469 1631.7188,224.2969 Q1631.2344,225.0469 1631.2344,226.0781 L1631.2344,227.1719 Q1631.2344,228.4063 1632.125,229.2344 Q1633.0156,230.0469 1634.6094,230.0469 Q1635.5469,230.0469 1636.2031,229.7969 Q1636.5938,229.6406 1637.0156,229.2031 Q1637.2813,228.9375 1637.4219,228.8594 Q1637.5781,228.7813 1637.7813,228.7813 Q1638.1094,228.7813 1638.3594,229.0469 Q1638.625,229.2969 1638.625,229.6406 Q1638.625,229.9844 1638.2813,230.3906 Q1637.7813,230.9688 1636.9844,231.2969 Q1635.9063,231.75 1634.6094,231.75 Q1633.0938,231.75 1631.8906,231.125 Q1630.9063,230.625 1630.2188,229.5625 Q1629.5313,228.4844 1629.5313,227.2031 L1629.5313,226.0469 Q1629.5313,224.7188 1630.1406,223.5781 Q1630.7656,222.4219 1631.8594,221.8125 Q1632.9531,221.1875 1634.1875,221.1875 Q1634.9219,221.1875 1635.5625,221.3594 Q1636.2188,221.5156 1636.7656,221.875 Z " fill="#000000"/>
            <text fill="#000000" font-family="sans-serif" font-size="14" lengthAdjust="spacing" textLength="42" x="1648" y="231.7285">Parent</text>
            <line style="stroke:#181818;stroke-width:0.5;" x1="1620" x2="1692" y1="242" y2="242"/>
            <line style="stroke:#181818;stroke-width:0.5;" x1="1620" x2="1692" y1="250" y2="250"/>
        </g>
        <!--class Scene-->
        <g id="elem_Scene">
            <rect codeLine="14" fill="#F1F1F1" height="48" id="Scene" rx="2.5" ry="2.5" style="stroke:#181818;stroke-width:0.5;" width="72" x="1512" y="210"/>
            <ellipse cx="1527" cy="226" fill="#ADD1B2" rx="11" ry="11" style="stroke:#181818;stroke-width:1.0;"/>
            <path d="M1529.7656,221.875 Q1529.9219,221.6563 1530.1094,221.5469 Q1530.2969,221.4375 1530.5156,221.4375 Q1530.8906,221.4375 1531.125,221.7031 Q1531.3594,221.9531 1531.3594,222.5625 L1531.3594,224.0156 Q1531.3594,224.625 1531.125,224.8906 Q1530.8906,225.1563 1530.5156,225.1563 Q1530.1719,225.1563 1529.9688,224.9531 Q1529.7656,224.7656 1529.6563,224.25 Q1529.6094,223.8906 1529.4219,223.7031 Q1529.0938,223.3281 1528.4844,223.1094 Q1527.875,222.8906 1527.25,222.8906 Q1526.4844,222.8906 1525.8438,223.2188 Q1525.2188,223.5469 1524.7188,224.2969 Q1524.2344,225.0469 1524.2344,226.0781 L1524.2344,227.1719 Q1524.2344,228.4063 1525.125,229.2344 Q1526.0156,230.0469 1527.6094,230.0469 Q1528.5469,230.0469 1529.2031,229.7969 Q1529.5938,229.6406 1530.0156,229.2031 Q1530.2813,228.9375 1530.4219,228.8594 Q1530.5781,228.7813 1530.7813,228.7813 Q1531.1094,228.7813 1531.3594,229.0469 Q1531.625,229.2969 1531.625,229.6406 Q1531.625,229.9844 1531.2813,230.3906 Q1530.7813,230.9688 1529.9844,231.2969 Q1528.9063,231.75 1527.6094,231.75 Q1526.0938,231.75 1524.8906,231.125 Q1523.9063,230.625 1523.2188,229.5625 Q1522.5313,228.4844 1522.5313,227.2031 L1522.5313,226.0469 Q1522.5313,224.7188 1523.1406,223.5781 Q1523.7656,222.4219 1524.8594,221.8125 Q1525.9531,221.1875 1527.1875,221.1875 Q1527.9219,221.1875 1528.5625,221.3594 Q1529.2188,221.5156 1529.7656,221.875 Z " fill="#000000"/>
            <text fill="#000000" font-family="sans-serif" font-size="14" lengthAdjust="spacing" textLength="40" x="1541" y="231.7285">Scene</text>
            <line style="stroke:#181818;stroke-width:0.5;" x1="1513" x2="1583" y1="242" y2="242"/>
            <line style="stroke:#181818;stroke-width:0.5;" x1="1513" x2="1583" y1="250" y2="250"/>
        </g>
        <!--class Stage-->
        <g id="elem_Stage">
            <rect codeLine="15" fill="#F1F1F1" height="48" id="Stage" rx="2.5" ry="2.5" style="stroke:#181818;stroke-width:0.5;" width="69" x="1386.5" y="210"/>
            <ellipse cx="1401.5" cy="226" fill="#ADD1B2" rx="11" ry="11" style="stroke:#181818;stroke-width:1.0;"/>
            <path d="M1404.2656,221.875 Q1404.4219,221.6563 1404.6094,221.5469 Q1404.7969,221.4375 1405.0156,221.4375 Q1405.3906,221.4375 1405.625,221.7031 Q1405.8594,221.9531 1405.8594,222.5625 L1405.8594,224.0156 Q1405.8594,224.625 1405.625,224.8906 Q1405.3906,225.1563 1405.0156,225.1563 Q1404.6719,225.1563 1404.4688,224.9531 Q1404.2656,224.7656 1404.1563,224.25 Q1404.1094,223.8906 1403.9219,223.7031 Q1403.5938,223.3281 1402.9844,223.1094 Q1402.375,222.8906 1401.75,222.8906 Q1400.9844,222.8906 1400.3438,223.2188 Q1399.7188,223.5469 1399.2188,224.2969 Q1398.7344,225.0469 1398.7344,226.0781 L1398.7344,227.1719 Q1398.7344,228.4063 1399.625,229.2344 Q1400.5156,230.0469 1402.1094,230.0469 Q1403.0469,230.0469 1403.7031,229.7969 Q1404.0938,229.6406 1404.5156,229.2031 Q1404.7813,228.9375 1404.9219,228.8594 Q1405.0781,228.7813 1405.2813,228.7813 Q1405.6094,228.7813 1405.8594,229.0469 Q1406.125,229.2969 1406.125,229.6406 Q1406.125,229.9844 1405.7813,230.3906 Q1405.2813,230.9688 1404.4844,231.2969 Q1403.4063,231.75 1402.1094,231.75 Q1400.5938,231.75 1399.3906,231.125 Q1398.4063,230.625 1397.7188,229.5625 Q1397.0313,228.4844 1397.0313,227.2031 L1397.0313,226.0469 Q1397.0313,224.7188 1397.6406,223.5781 Q1398.2656,222.4219 1399.3594,221.8125 Q1400.4531,221.1875 1401.6875,221.1875 Q1402.4219,221.1875 1403.0625,221.3594 Q1403.7188,221.5156 1404.2656,221.875 Z " fill="#000000"/>
            <text fill="#000000" font-family="sans-serif" font-size="14" lengthAdjust="spacing" textLength="37" x="1415.5" y="231.7285">Stage</text>
            <line style="stroke:#181818;stroke-width:0.5;" x1="1387.5" x2="1454.5" y1="242" y2="242"/>
            <line style="stroke:#181818;stroke-width:0.5;" x1="1387.5" x2="1454.5" y1="250" y2="250"/>
        </g>
        <!--class DataSourceManager-->
        <g id="elem_DataSourceManager">
            <rect codeLine="16" fill="#F1F1F1" height="48" id="DataSourceManager" rx="2.5" ry="2.5" style="stroke:#181818;stroke-width:0.5;" width="163" x="2101.5" y="210"/>
            <ellipse cx="2116.5" cy="226" fill="#ADD1B2" rx="11" ry="11" style="stroke:#181818;stroke-width:1.0;"/>
            <path d="M2119.2656,221.875 Q2119.4219,221.6563 2119.6094,221.5469 Q2119.7969,221.4375 2120.0156,221.4375 Q2120.3906,221.4375 2120.625,221.7031 Q2120.8594,221.9531 2120.8594,222.5625 L2120.8594,224.0156 Q2120.8594,224.625 2120.625,224.8906 Q2120.3906,225.1563 2120.0156,225.1563 Q2119.6719,225.1563 2119.4688,224.9531 Q2119.2656,224.7656 2119.1563,224.25 Q2119.1094,223.8906 2118.9219,223.7031 Q2118.5938,223.3281 2117.9844,223.1094 Q2117.375,222.8906 2116.75,222.8906 Q2115.9844,222.8906 2115.3438,223.2188 Q2114.7188,223.5469 2114.2188,224.2969 Q2113.7344,225.0469 2113.7344,226.0781 L2113.7344,227.1719 Q2113.7344,228.4063 2114.625,229.2344 Q2115.5156,230.0469 2117.1094,230.0469 Q2118.0469,230.0469 2118.7031,229.7969 Q2119.0938,229.6406 2119.5156,229.2031 Q2119.7813,228.9375 2119.9219,228.8594 Q2120.0781,228.7813 2120.2813,228.7813 Q2120.6094,228.7813 2120.8594,229.0469 Q2121.125,229.2969 2121.125,229.6406 Q2121.125,229.9844 2120.7813,230.3906 Q2120.2813,230.9688 2119.4844,231.2969 Q2118.4063,231.75 2117.1094,231.75 Q2115.5938,231.75 2114.3906,231.125 Q2113.4063,230.625 2112.7188,229.5625 Q2112.0313,228.4844 2112.0313,227.2031 L2112.0313,226.0469 Q2112.0313,224.7188 2112.6406,223.5781 Q2113.2656,222.4219 2114.3594,221.8125 Q2115.4531,221.1875 2116.6875,221.1875 Q2117.4219,221.1875 2118.0625,221.3594 Q2118.7188,221.5156 2119.2656,221.875 Z " fill="#000000"/>
            <text fill="#000000" font-family="sans-serif" font-size="14" lengthAdjust="spacing" textLength="131" x="2130.5" y="231.7285">DataSourceManager</text>
            <line style="stroke:#181818;stroke-width:0.5;" x1="2102.5" x2="2263.5" y1="242" y2="242"/>
            <line style="stroke:#181818;stroke-width:0.5;" x1="2102.5" x2="2263.5" y1="250" y2="250"/>
        </g>
        <!--class UsuarioInfo-->
        <g id="elem_UsuarioInfo">
            <rect codeLine="17" fill="#F1F1F1" height="48" id="UsuarioInfo" rx="2.5" ry="2.5" style="stroke:#181818;stroke-width:0.5;" width="103" x="2299.5" y="210"/>
            <ellipse cx="2314.5" cy="226" fill="#ADD1B2" rx="11" ry="11" style="stroke:#181818;stroke-width:1.0;"/>
            <path d="M2317.2656,221.875 Q2317.4219,221.6563 2317.6094,221.5469 Q2317.7969,221.4375 2318.0156,221.4375 Q2318.3906,221.4375 2318.625,221.7031 Q2318.8594,221.9531 2318.8594,222.5625 L2318.8594,224.0156 Q2318.8594,224.625 2318.625,224.8906 Q2318.3906,225.1563 2318.0156,225.1563 Q2317.6719,225.1563 2317.4688,224.9531 Q2317.2656,224.7656 2317.1563,224.25 Q2317.1094,223.8906 2316.9219,223.7031 Q2316.5938,223.3281 2315.9844,223.1094 Q2315.375,222.8906 2314.75,222.8906 Q2313.9844,222.8906 2313.3438,223.2188 Q2312.7188,223.5469 2312.2188,224.2969 Q2311.7344,225.0469 2311.7344,226.0781 L2311.7344,227.1719 Q2311.7344,228.4063 2312.625,229.2344 Q2313.5156,230.0469 2315.1094,230.0469 Q2316.0469,230.0469 2316.7031,229.7969 Q2317.0938,229.6406 2317.5156,229.2031 Q2317.7813,228.9375 2317.9219,228.8594 Q2318.0781,228.7813 2318.2813,228.7813 Q2318.6094,228.7813 2318.8594,229.0469 Q2319.125,229.2969 2319.125,229.6406 Q2319.125,229.9844 2318.7813,230.3906 Q2318.2813,230.9688 2317.4844,231.2969 Q2316.4063,231.75 2315.1094,231.75 Q2313.5938,231.75 2312.3906,231.125 Q2311.4063,230.625 2310.7188,229.5625 Q2310.0313,228.4844 2310.0313,227.2031 L2310.0313,226.0469 Q2310.0313,224.7188 2310.6406,223.5781 Q2311.2656,222.4219 2312.3594,221.8125 Q2313.4531,221.1875 2314.6875,221.1875 Q2315.4219,221.1875 2316.0625,221.3594 Q2316.7188,221.5156 2317.2656,221.875 Z " fill="#000000"/>
            <text fill="#000000" font-family="sans-serif" font-size="14" lengthAdjust="spacing" textLength="71" x="2328.5" y="231.7285">UsuarioInfo</text>
            <line style="stroke:#181818;stroke-width:0.5;" x1="2300.5" x2="2401.5" y1="242" y2="242"/>
            <line style="stroke:#181818;stroke-width:0.5;" x1="2300.5" x2="2401.5" y1="250" y2="250"/>
        </g>
        <!--link LoginController to InicioController-->
        <g id="link_LoginController_InicioController">
            <path codeLine="18" d="M1335.34,67.51 C1102.68,69.68 316.28,80.07 212,122 C166.08,140.46 129.2857,178.3145 106.9657,205.0445 " fill="none" id="LoginController-to-InicioController" style="stroke:#181818;stroke-width:1.0;stroke-dasharray:7.0,7.0;"/>
            <polygon fill="#181818" points="103.12,209.65,111.9589,205.3055,106.3247,205.8121,105.8182,200.1779,103.12,209.65" style="stroke:#181818;stroke-width:1.0;"/>
        </g>
        <!--link LoginController to IOException-->
        <g id="link_LoginController_IOException">
            <path codeLine="19" d="M1376.08,90.08 C1343.32,121.71 1289.117,174.013 1256.307,205.683 " fill="none" id="LoginController-to-IOException" style="stroke:#181818;stroke-width:1.0;stroke-dasharray:7.0,7.0;"/>
            <polygon fill="#181818" points="1251.99,209.85,1261.2434,206.4775,1255.5875,206.3775,1255.6875,200.7215,1251.99,209.85" style="stroke:#181818;stroke-width:1.0;"/>
        </g>
        <!--link LoginController to URL-->
        <g id="link_LoginController_URL">
            <path codeLine="20" d="M1335.45,68.4 C1283.29,72.45 1210.23,85.04 1158,122 C1127.13,143.85 1109.1288,178.4755 1098.6888,204.0355 " fill="none" id="LoginController-to-URL" style="stroke:#181818;stroke-width:1.0;stroke-dasharray:7.0,7.0;"/>
            <polygon fill="#181818" points="1096.42,209.59,1103.5261,202.7707,1098.3106,204.9612,1096.1201,199.7457,1096.42,209.59" style="stroke:#181818;stroke-width:1.0;"/>
        </g>
        <!--link LoginController to Connection-->
        <g id="link_LoginController_Connection">
            <path codeLine="21" d="M1335.37,69.08 C1178.28,74.6 785.54,91.34 735,122 C702.28,141.85 684.4635,177.8308 674.6335,204.0908 " fill="none" id="LoginController-to-Connection" style="stroke:#181818;stroke-width:1.0;stroke-dasharray:7.0,7.0;"/>
            <polygon fill="#181818" points="672.53,209.71,679.4313,202.6835,674.2829,205.0273,671.939,199.8789,672.53,209.71" style="stroke:#181818;stroke-width:1.0;"/>
        </g>
        <!--link LoginController to PreparedStatement-->
        <g id="link_LoginController_PreparedStatement">
            <path codeLine="22" d="M1335.26,68.58 C1155.9,73.35 661.41,89.35 596,122 C557.48,141.23 531.0264,178.2809 515.4264,204.7509 " fill="none" id="LoginController-to-PreparedStatement" style="stroke:#181818;stroke-width:1.0;stroke-dasharray:7.0,7.0;"/>
            <polygon fill="#181818" points="512.38,209.92,520.3956,204.1973,514.9187,205.6124,513.5035,200.1354,512.38,209.92" style="stroke:#181818;stroke-width:1.0;"/>
        </g>
        <!--link LoginController to ResultSet-->
        <g id="link_LoginController_ResultSet">
            <path codeLine="23" d="M1335.13,71.25 C1245.82,78.06 1090.51,93.63 1042,122 C1006.7,142.64 983.2863,178.3081 969.2863,204.2881 " fill="none" id="LoginController-to-ResultSet" style="stroke:#181818;stroke-width:1.0;stroke-dasharray:7.0,7.0;"/>
            <polygon fill="#181818" points="966.44,209.57,974.2307,203.5447,968.8119,205.1684,967.1882,199.7496,966.44,209.57" style="stroke:#181818;stroke-width:1.0;"/>
        </g>
        <!--link LoginController to SQLException-->
        <g id="link_LoginController_SQLException">
            <path codeLine="24" d="M1335.19,67.45 C1215.36,69.34 964.68,78.53 891,122 C856.92,142.1 836.4376,178.1564 824.6876,204.3264 " fill="none" id="LoginController-to-SQLException" style="stroke:#181818;stroke-width:1.0;stroke-dasharray:7.0,7.0;"/>
            <polygon fill="#181818" points="822.23,209.8,829.5654,203.228,824.278,205.2387,822.2673,199.9512,822.23,209.8" style="stroke:#181818;stroke-width:1.0;"/>
        </g>
        <!--link LoginController to ResourceBundle-->
        <g id="link_LoginController_ResourceBundle">
            <path codeLine="25" d="M1335.32,67.88 C1128.24,71.06 490.24,83.88 406,122 C364.41,140.82 333.6462,178.2275 315.2162,204.8375 " fill="none" id="LoginController-to-ResourceBundle" style="stroke:#181818;stroke-width:1.0;stroke-dasharray:7.0,7.0;"/>
            <polygon fill="#181818" points="311.8,209.77,320.2127,204.6488,314.6469,205.6596,313.636,200.0938,311.8,209.77" style="stroke:#181818;stroke-width:1.0;"/>
        </g>
        <!--link LoginController to FXMLLoader-->
        <g id="link_LoginController_FXMLLoader">
            <path codeLine="26" d="M1431.87,90.1 C1446.42,99.33 1464.33,108.96 1482,114 C1506.27,120.92 1686.21,111.16 1709,122 C1748.06,140.58 1774.775,177.8301 1790.495,204.5201 " fill="none" id="LoginController-to-FXMLLoader" style="stroke:#181818;stroke-width:1.0;stroke-dasharray:7.0,7.0;"/>
            <polygon fill="#181818" points="1793.54,209.69,1792.4191,199.9051,1791.0025,205.3817,1785.5259,203.9651,1793.54,209.69" style="stroke:#181818;stroke-width:1.0;"/>
        </g>
        <!--link LoginController to Parent-->
        <g id="link_LoginController_Parent">
            <path codeLine="27" d="M1432.34,90.08 C1446.83,99.19 1464.57,108.73 1482,114 C1507.58,121.73 1579.83,107.08 1602,122 C1631.87,142.1 1644.4407,177.7737 1650.4807,203.9437 " fill="none" id="LoginController-to-Parent" style="stroke:#181818;stroke-width:1.0;stroke-dasharray:7.0,7.0;"/>
            <polygon fill="#181818" points="1651.83,209.79,1653.7036,200.121,1650.7056,204.9181,1645.9085,201.9201,1651.83,209.79" style="stroke:#181818;stroke-width:1.0;"/>
        </g>
        <!--link LoginController to Scene-->
        <g id="link_LoginController_Scene">
            <path codeLine="28" d="M1434.83,90.13 C1447.28,99.27 1460.95,110.36 1472,122 C1497.89,149.27 1518.2423,180.96 1532.0423,204.57 " fill="none" id="LoginController-to-Scene" style="stroke:#181818;stroke-width:1.0;stroke-dasharray:7.0,7.0;"/>
            <polygon fill="#181818" points="1535.07,209.75,1533.9818,199.9614,1532.5469,205.4333,1527.075,203.9984,1535.07,209.75" style="stroke:#181818;stroke-width:1.0;"/>
        </g>
        <!--link LoginController to Stage-->
        <g id="link_LoginController_Stage">
            <path codeLine="29" d="M1402.92,90.08 C1406.92,121.71 1413.3182,172.2273 1417.3182,203.8973 " fill="none" id="LoginController-to-Stage" style="stroke:#181818;stroke-width:1.0;stroke-dasharray:7.0,7.0;"/>
            <polygon fill="#181818" points="1418.07,209.85,1420.9107,200.4197,1417.4435,204.8894,1412.9738,201.4222,1418.07,209.85" style="stroke:#181818;stroke-width:1.0;"/>
        </g>
        <!--link LoginController to DataSourceManager-->
        <g id="link_LoginController_DataSourceManager">
            <path codeLine="30" d="M1431.43,90.03 C1446.04,99.37 1464.12,109.1 1482,114 C1541.48,130.3 1978.7,101.89 2037,122 C2088.17,139.65 2131.5816,178.504 2157.7816,205.504 " fill="none" id="LoginController-to-DataSourceManager" style="stroke:#181818;stroke-width:1.0;stroke-dasharray:7.0,7.0;"/>
            <polygon fill="#181818" points="2161.96,209.81,2158.5631,200.5655,2158.478,206.2217,2152.8218,206.1366,2161.96,209.81" style="stroke:#181818;stroke-width:1.0;"/>
        </g>
        <!--link LoginController to UsuarioInfo-->
        <g id="link_LoginController_UsuarioInfo">
            <path codeLine="31" d="M1431.42,90.06 C1446.03,99.41 1464.11,109.14 1482,114 C1503.45,119.83 2262.63,111.11 2282,122 C2315.42,140.8 2332.8111,177.4857 2342.1111,204.1057 " fill="none" id="LoginController-to-UsuarioInfo" style="stroke:#181818;stroke-width:1.0;stroke-dasharray:7.0,7.0;"/>
            <polygon fill="#181818" points="2344.09,209.77,2344.8979,199.9543,2342.4409,205.0498,2337.3455,202.5928,2344.09,209.77" style="stroke:#181818;stroke-width:1.0;"/>
        </g>
        <!--link LoginMain to FXMLLoader-->
        <g id="link_LoginMain_FXMLLoader">
            <path codeLine="32" d="M1596.78,76.63 C1630.37,84.88 1674.9,99.13 1709,122 C1744.07,145.52 1770.852,179.8812 1787.862,204.8512 " fill="none" id="LoginMain-to-FXMLLoader" style="stroke:#181818;stroke-width:1.0;stroke-dasharray:7.0,7.0;"/>
            <polygon fill="#181818" points="1791.24,209.81,1789.4789,200.1199,1788.425,205.6777,1782.8672,204.6239,1791.24,209.81" style="stroke:#181818;stroke-width:1.0;"/>
        </g>
        <!--link LoginMain to Parent-->
        <g id="link_LoginMain_Parent">
            <path codeLine="33" d="M1574.02,90.12 C1583.56,99.42 1593.98,110.63 1602,122 C1621.77,150.02 1635.6921,180.799 1645.0221,204.129 " fill="none" id="LoginMain-to-Parent" style="stroke:#181818;stroke-width:1.0;stroke-dasharray:7.0,7.0;"/>
            <polygon fill="#181818" points="1647.25,209.7,1647.6221,199.8582,1645.3934,205.0575,1640.1941,202.8288,1647.25,209.7" style="stroke:#181818;stroke-width:1.0;"/>
        </g>
        <!--link LoginMain to Scene-->
        <g id="link_LoginMain_Scene">
            <path codeLine="34" d="M1548,90.08 C1548,121.71 1548,172.18 1548,203.85 " fill="none" id="LoginMain-to-Scene" style="stroke:#181818;stroke-width:1.0;stroke-dasharray:7.0,7.0;"/>
            <polygon fill="#181818" points="1548,209.85,1552,200.85,1548,204.85,1544,200.85,1548,209.85" style="stroke:#181818;stroke-width:1.0;"/>
        </g>
        <!--link LoginMain to Stage-->
        <g id="link_LoginMain_Stage">
            <path codeLine="35" d="M1524.6,90.06 C1515.32,99.62 1504.8,111.03 1496,122 C1472.87,150.85 1452.7166,181.5899 1438.3566,204.5999 " fill="none" id="LoginMain-to-Stage" style="stroke:#181818;stroke-width:1.0;stroke-dasharray:7.0,7.0;"/>
            <polygon fill="#181818" points="1435.18,209.69,1443.3383,204.1726,1437.8272,205.4482,1436.5515,199.9371,1435.18,209.69" style="stroke:#181818;stroke-width:1.0;"/>
        </g>
        <!--link LoginMain to UsuarioInfo-->
        <g id="link_LoginMain_UsuarioInfo">
            <path codeLine="36" d="M1596.61,68.11 C1751.01,71.98 2223.6,86.62 2282,122 C2314.6,141.75 2332.0776,177.7419 2341.6476,204.0319 " fill="none" id="LoginMain-to-UsuarioInfo" style="stroke:#181818;stroke-width:1.0;stroke-dasharray:7.0,7.0;"/>
            <polygon fill="#181818" points="2343.7,209.67,2344.3802,199.8447,2341.9897,204.9716,2336.8628,202.5811,2343.7,209.67" style="stroke:#181818;stroke-width:1.0;"/>
        </g>
        <!--SRC=[ZPJTReCm38Nl-nHz0Z_2fFrAbK1hYohjrWgcofGwB0aJZpz26UKdG6u2olcEPUmZX49hzmUMGcguFrurEwEL8hCJhPhegsHeppKjHSdTxJV-8lY2d- -reD99FLAO75pEoV3A_YXeYZE9AUoLew4I3UMPGqStOZS5pcGhvJAQ2Taf2RPGETcwT6K4lLISAnh8HGrObaeAz3vuVhoFeQA-AVZuIfD4OzxFf1Ej82OuDdsF-ksLp9yJmU6r4VpP2RvFcJV5BRoXmwpjDqLk23D7BhP28_M12xqBRcqFyBIuxML7Q9yRzF-EDx39tYFeUHOYJ8zyHC2Zp6pmeHojMmAnsJICeXH9t-Er3GyYjmolnZ3AjX1D_zE87CqKNHfAc9kDOuQ51z5ZuM_v0m00]-->
    </g>
</svg>
