<?xml version="1.0" encoding="UTF-8"?><svg xmlns="http://www.w3.org/2000/svg" xmlns:xlink="http://www.w3.org/1999/xlink" contentStyleType="text/css" height="565px" preserveAspectRatio="none" style="width:1957px;height:565px;background:#FFFFFF;" version="1.1" viewBox="0 0 1957 565" width="1957px" zoomAndPan="magnify">
    <defs/>
    <g>
        <!--cluster Utilidades-->
        <g id="cluster_Utilidades">
            <path d="M29.5,218 L100.5,218 A3.75,3.75 0 0 1 103,220.5 L110,241.6094 L473.5,241.6094 A2.5,2.5 0 0 1 476,244.1094 L476,315.5 A2.5,2.5 0 0 1 473.5,318 L29.5,318 A2.5,2.5 0 0 1 27,315.5 L27,220.5 A2.5,2.5 0 0 1 29.5,218 " fill="none" style="stroke:#000000;stroke-width:1.5;"/>
            <line style="stroke:#000000;stroke-width:1.5;" x1="27" x2="110" y1="241.6094" y2="241.6094"/>
            <text fill="#000000" font-family="sans-serif" font-size="14" font-weight="bold" lengthAdjust="spacing" textLength="70" x="31" y="234.5332">Utilidades</text>
        </g>
        <!--cluster com-->
        <g id="cluster_com">
            <path d="M1330.5,130 L1360.5,130 A3.75,3.75 0 0 1 1363,132.5 L1370,153.6094 L1738.5,153.6094 A2.5,2.5 0 0 1 1741,156.1094 L1741,363.5 A2.5,2.5 0 0 1 1738.5,366 L1330.5,366 A2.5,2.5 0 0 1 1328,363.5 L1328,132.5 A2.5,2.5 0 0 1 1330.5,130 " fill="none" style="stroke:#000000;stroke-width:1.5;"/>
            <line style="stroke:#000000;stroke-width:1.5;" x1="1328" x2="1370" y1="153.6094" y2="153.6094"/>
            <text fill="#000000" font-family="sans-serif" font-size="14" font-weight="bold" lengthAdjust="spacing" textLength="29" x="1332" y="146.5332">com</text>
        </g>
        <!--cluster zaxxer-->
        <g id="cluster_zaxxer">
            <path d="M1354.5,174 L1401.5,174 A3.75,3.75 0 0 1 1404,176.5 L1411,197.6094 L1714.5,197.6094 A2.5,2.5 0 0 1 1717,200.1094 L1717,339.5 A2.5,2.5 0 0 1 1714.5,342 L1354.5,342 A2.5,2.5 0 0 1 1352,339.5 L1352,176.5 A2.5,2.5 0 0 1 1354.5,174 " fill="none" style="stroke:#000000;stroke-width:1.5;"/>
            <line style="stroke:#000000;stroke-width:1.5;" x1="1352" x2="1411" y1="197.6094" y2="197.6094"/>
            <text fill="#000000" font-family="sans-serif" font-size="14" font-weight="bold" lengthAdjust="spacing" textLength="46" x="1356" y="190.5332">zaxxer</text>
        </g>
        <!--cluster hikari-->
        <g id="cluster_hikari">
            <path d="M1378.5,218 L1418.5,218 A3.75,3.75 0 0 1 1421,220.5 L1428,241.6094 L1690.5,241.6094 A2.5,2.5 0 0 1 1693,244.1094 L1693,315.5 A2.5,2.5 0 0 1 1690.5,318 L1378.5,318 A2.5,2.5 0 0 1 1376,315.5 L1376,220.5 A2.5,2.5 0 0 1 1378.5,218 " fill="none" style="stroke:#000000;stroke-width:1.5;"/>
            <line style="stroke:#000000;stroke-width:1.5;" x1="1376" x2="1428" y1="241.6094" y2="241.6094"/>
            <text fill="#000000" font-family="sans-serif" font-size="14" font-weight="bold" lengthAdjust="spacing" textLength="39" x="1380" y="234.5332">hikari</text>
        </g>
        <!--cluster java-->
        <g id="cluster_java">
            <path d="M8.5,390 L38.5,390 A3.75,3.75 0 0 1 41,392.5 L48,413.6094 L1742.5,413.6094 A2.5,2.5 0 0 1 1745,416.1094 L1745,555.5 A2.5,2.5 0 0 1 1742.5,558 L8.5,558 A2.5,2.5 0 0 1 6,555.5 L6,392.5 A2.5,2.5 0 0 1 8.5,390 " fill="none" style="stroke:#000000;stroke-width:1.5;"/>
            <line style="stroke:#000000;stroke-width:1.5;" x1="6" x2="48" y1="413.6094" y2="413.6094"/>
            <text fill="#000000" font-family="sans-serif" font-size="14" font-weight="bold" lengthAdjust="spacing" textLength="29" x="10" y="406.5332">java</text>
        </g>
        <!--cluster io-->
        <g id="cluster_io">
            <path d="M1440.5,434 L1454.5,434 A3.75,3.75 0 0 1 1457,436.5 L1464,457.6094 L1718.5,457.6094 A2.5,2.5 0 0 1 1721,460.1094 L1721,531.5 A2.5,2.5 0 0 1 1718.5,534 L1440.5,534 A2.5,2.5 0 0 1 1438,531.5 L1438,436.5 A2.5,2.5 0 0 1 1440.5,434 " fill="none" style="stroke:#000000;stroke-width:1.5;"/>
            <line style="stroke:#000000;stroke-width:1.5;" x1="1438" x2="1464" y1="457.6094" y2="457.6094"/>
            <text fill="#000000" font-family="sans-serif" font-size="14" font-weight="bold" lengthAdjust="spacing" textLength="13" x="1442" y="450.5332">io</text>
        </g>
        <!--cluster math-->
        <g id="cluster_math">
            <path d="M32.5,434 L67.5,434 A3.75,3.75 0 0 1 70,436.5 L77,457.6094 L161.5,457.6094 A2.5,2.5 0 0 1 164,460.1094 L164,531.5 A2.5,2.5 0 0 1 161.5,534 L32.5,534 A2.5,2.5 0 0 1 30,531.5 L30,436.5 A2.5,2.5 0 0 1 32.5,434 " fill="none" style="stroke:#000000;stroke-width:1.5;"/>
            <line style="stroke:#000000;stroke-width:1.5;" x1="30" x2="77" y1="457.6094" y2="457.6094"/>
            <text fill="#000000" font-family="sans-serif" font-size="14" font-weight="bold" lengthAdjust="spacing" textLength="34" x="34" y="450.5332">math</text>
        </g>
        <!--cluster sql-->
        <g id="cluster_sql">
            <path d="M190.5,434 L212.5,434 A3.75,3.75 0 0 1 215,436.5 L222,457.6094 L796.5,457.6094 A2.5,2.5 0 0 1 799,460.1094 L799,531.5 A2.5,2.5 0 0 1 796.5,534 L190.5,534 A2.5,2.5 0 0 1 188,531.5 L188,436.5 A2.5,2.5 0 0 1 190.5,434 " fill="none" style="stroke:#000000;stroke-width:1.5;"/>
            <line style="stroke:#000000;stroke-width:1.5;" x1="188" x2="222" y1="457.6094" y2="457.6094"/>
            <text fill="#000000" font-family="sans-serif" font-size="14" font-weight="bold" lengthAdjust="spacing" textLength="21" x="192" y="450.5332">sql</text>
        </g>
        <!--cluster time-->
        <g id="cluster_time">
            <path d="M825.5,434 L856.5,434 A3.75,3.75 0 0 1 859,436.5 L866,457.6094 L948.5,457.6094 A2.5,2.5 0 0 1 951,460.1094 L951,531.5 A2.5,2.5 0 0 1 948.5,534 L825.5,534 A2.5,2.5 0 0 1 823,531.5 L823,436.5 A2.5,2.5 0 0 1 825.5,434 " fill="none" style="stroke:#000000;stroke-width:1.5;"/>
            <line style="stroke:#000000;stroke-width:1.5;" x1="823" x2="866" y1="457.6094" y2="457.6094"/>
            <text fill="#000000" font-family="sans-serif" font-size="14" font-weight="bold" lengthAdjust="spacing" textLength="30" x="827" y="450.5332">time</text>
        </g>
        <!--cluster util-->
        <g id="cluster_util">
            <path d="M977.5,434 L1000.5,434 A3.75,3.75 0 0 1 1003,436.5 L1010,457.6094 L1411.5,457.6094 A2.5,2.5 0 0 1 1414,460.1094 L1414,531.5 A2.5,2.5 0 0 1 1411.5,534 L977.5,534 A2.5,2.5 0 0 1 975,531.5 L975,436.5 A2.5,2.5 0 0 1 977.5,434 " fill="none" style="stroke:#000000;stroke-width:1.5;"/>
            <line style="stroke:#000000;stroke-width:1.5;" x1="975" x2="1010" y1="457.6094" y2="457.6094"/>
            <text fill="#000000" font-family="sans-serif" font-size="14" font-weight="bold" lengthAdjust="spacing" textLength="22" x="979" y="450.5332">util</text>
        </g>
        <!--cluster utilidades-->
        <g id="cluster_utilidades">
            <path d="M761.5,6 L831.5,6 A3.75,3.75 0 0 1 834,8.5 L841,29.6094 L1525.5,29.6094 A2.5,2.5 0 0 1 1528,32.1094 L1528,103.5 A2.5,2.5 0 0 1 1525.5,106 L761.5,106 A2.5,2.5 0 0 1 759,103.5 L759,8.5 A2.5,2.5 0 0 1 761.5,6 " fill="none" style="stroke:#000000;stroke-width:1.5;"/>
            <line style="stroke:#000000;stroke-width:1.5;" x1="759" x2="841" y1="29.6094" y2="29.6094"/>
            <text fill="#000000" font-family="sans-serif" font-size="14" font-weight="bold" lengthAdjust="spacing" textLength="69" x="763" y="22.5332">utilidades</text>
        </g>
        <!--class HabitacionInfo-->
        <g id="elem_HabitacionInfo">
            <rect codeLine="1" fill="#F1F1F1" height="48" id="HabitacionInfo" rx="2.5" ry="2.5" style="stroke:#181818;stroke-width:0.5;" width="121" x="338.5" y="254"/>
            <ellipse cx="353.5" cy="270" fill="#ADD1B2" rx="11" ry="11" style="stroke:#181818;stroke-width:1.0;"/>
            <path d="M356.2656,265.875 Q356.4219,265.6563 356.6094,265.5469 Q356.7969,265.4375 357.0156,265.4375 Q357.3906,265.4375 357.625,265.7031 Q357.8594,265.9531 357.8594,266.5625 L357.8594,268.0156 Q357.8594,268.625 357.625,268.8906 Q357.3906,269.1563 357.0156,269.1563 Q356.6719,269.1563 356.4688,268.9531 Q356.2656,268.7656 356.1563,268.25 Q356.1094,267.8906 355.9219,267.7031 Q355.5938,267.3281 354.9844,267.1094 Q354.375,266.8906 353.75,266.8906 Q352.9844,266.8906 352.3438,267.2188 Q351.7188,267.5469 351.2188,268.2969 Q350.7344,269.0469 350.7344,270.0781 L350.7344,271.1719 Q350.7344,272.4063 351.625,273.2344 Q352.5156,274.0469 354.1094,274.0469 Q355.0469,274.0469 355.7031,273.7969 Q356.0938,273.6406 356.5156,273.2031 Q356.7813,272.9375 356.9219,272.8594 Q357.0781,272.7813 357.2813,272.7813 Q357.6094,272.7813 357.8594,273.0469 Q358.125,273.2969 358.125,273.6406 Q358.125,273.9844 357.7813,274.3906 Q357.2813,274.9688 356.4844,275.2969 Q355.4063,275.75 354.1094,275.75 Q352.5938,275.75 351.3906,275.125 Q350.4063,274.625 349.7188,273.5625 Q349.0313,272.4844 349.0313,271.2031 L349.0313,270.0469 Q349.0313,268.7188 349.6406,267.5781 Q350.2656,266.4219 351.3594,265.8125 Q352.4531,265.1875 353.6875,265.1875 Q354.4219,265.1875 355.0625,265.3594 Q355.7188,265.5156 356.2656,265.875 Z " fill="#000000"/>
            <text fill="#000000" font-family="sans-serif" font-size="14" lengthAdjust="spacing" textLength="89" x="367.5" y="275.7285">HabitacionInfo</text>
            <line style="stroke:#181818;stroke-width:0.5;" x1="339.5" x2="458.5" y1="286" y2="286"/>
            <line style="stroke:#181818;stroke-width:0.5;" x1="339.5" x2="458.5" y1="294" y2="294"/>
        </g>
        <!--class MensajeError-->
        <g id="elem_MensajeError">
            <rect codeLine="2" fill="#F1F1F1" height="48" id="MensajeError" rx="2.5" ry="2.5" style="stroke:#181818;stroke-width:0.5;" width="117" x="186.5" y="254"/>
            <ellipse cx="201.5" cy="270" fill="#ADD1B2" rx="11" ry="11" style="stroke:#181818;stroke-width:1.0;"/>
            <path d="M204.2656,265.875 Q204.4219,265.6563 204.6094,265.5469 Q204.7969,265.4375 205.0156,265.4375 Q205.3906,265.4375 205.625,265.7031 Q205.8594,265.9531 205.8594,266.5625 L205.8594,268.0156 Q205.8594,268.625 205.625,268.8906 Q205.3906,269.1563 205.0156,269.1563 Q204.6719,269.1563 204.4688,268.9531 Q204.2656,268.7656 204.1563,268.25 Q204.1094,267.8906 203.9219,267.7031 Q203.5938,267.3281 202.9844,267.1094 Q202.375,266.8906 201.75,266.8906 Q200.9844,266.8906 200.3438,267.2188 Q199.7188,267.5469 199.2188,268.2969 Q198.7344,269.0469 198.7344,270.0781 L198.7344,271.1719 Q198.7344,272.4063 199.625,273.2344 Q200.5156,274.0469 202.1094,274.0469 Q203.0469,274.0469 203.7031,273.7969 Q204.0938,273.6406 204.5156,273.2031 Q204.7813,272.9375 204.9219,272.8594 Q205.0781,272.7813 205.2813,272.7813 Q205.6094,272.7813 205.8594,273.0469 Q206.125,273.2969 206.125,273.6406 Q206.125,273.9844 205.7813,274.3906 Q205.2813,274.9688 204.4844,275.2969 Q203.4063,275.75 202.1094,275.75 Q200.5938,275.75 199.3906,275.125 Q198.4063,274.625 197.7188,273.5625 Q197.0313,272.4844 197.0313,271.2031 L197.0313,270.0469 Q197.0313,268.7188 197.6406,267.5781 Q198.2656,266.4219 199.3594,265.8125 Q200.4531,265.1875 201.6875,265.1875 Q202.4219,265.1875 203.0625,265.3594 Q203.7188,265.5156 204.2656,265.875 Z " fill="#000000"/>
            <text fill="#000000" font-family="sans-serif" font-size="14" lengthAdjust="spacing" textLength="85" x="215.5" y="275.7285">MensajeError</text>
            <line style="stroke:#181818;stroke-width:0.5;" x1="187.5" x2="302.5" y1="286" y2="286"/>
            <line style="stroke:#181818;stroke-width:0.5;" x1="187.5" x2="302.5" y1="294" y2="294"/>
        </g>
        <!--class ReservaInfo-->
        <g id="elem_ReservaInfo">
            <rect codeLine="3" fill="#F1F1F1" height="48" id="ReservaInfo" rx="2.5" ry="2.5" style="stroke:#181818;stroke-width:0.5;" width="108" x="43" y="254"/>
            <ellipse cx="58" cy="270" fill="#ADD1B2" rx="11" ry="11" style="stroke:#181818;stroke-width:1.0;"/>
            <path d="M60.7656,265.875 Q60.9219,265.6563 61.1094,265.5469 Q61.2969,265.4375 61.5156,265.4375 Q61.8906,265.4375 62.125,265.7031 Q62.3594,265.9531 62.3594,266.5625 L62.3594,268.0156 Q62.3594,268.625 62.125,268.8906 Q61.8906,269.1563 61.5156,269.1563 Q61.1719,269.1563 60.9688,268.9531 Q60.7656,268.7656 60.6563,268.25 Q60.6094,267.8906 60.4219,267.7031 Q60.0938,267.3281 59.4844,267.1094 Q58.875,266.8906 58.25,266.8906 Q57.4844,266.8906 56.8438,267.2188 Q56.2188,267.5469 55.7188,268.2969 Q55.2344,269.0469 55.2344,270.0781 L55.2344,271.1719 Q55.2344,272.4063 56.125,273.2344 Q57.0156,274.0469 58.6094,274.0469 Q59.5469,274.0469 60.2031,273.7969 Q60.5938,273.6406 61.0156,273.2031 Q61.2813,272.9375 61.4219,272.8594 Q61.5781,272.7813 61.7813,272.7813 Q62.1094,272.7813 62.3594,273.0469 Q62.625,273.2969 62.625,273.6406 Q62.625,273.9844 62.2813,274.3906 Q61.7813,274.9688 60.9844,275.2969 Q59.9063,275.75 58.6094,275.75 Q57.0938,275.75 55.8906,275.125 Q54.9063,274.625 54.2188,273.5625 Q53.5313,272.4844 53.5313,271.2031 L53.5313,270.0469 Q53.5313,268.7188 54.1406,267.5781 Q54.7656,266.4219 55.8594,265.8125 Q56.9531,265.1875 58.1875,265.1875 Q58.9219,265.1875 59.5625,265.3594 Q60.2188,265.5156 60.7656,265.875 Z " fill="#000000"/>
            <text fill="#000000" font-family="sans-serif" font-size="14" lengthAdjust="spacing" textLength="76" x="72" y="275.7285">ReservaInfo</text>
            <line style="stroke:#181818;stroke-width:0.5;" x1="44" x2="150" y1="286" y2="286"/>
            <line style="stroke:#181818;stroke-width:0.5;" x1="44" x2="150" y1="294" y2="294"/>
        </g>
        <!--class HikariConfig-->
        <g id="elem_HikariConfig">
            <rect codeLine="4" fill="#F1F1F1" height="48" id="HikariConfig" rx="2.5" ry="2.5" style="stroke:#181818;stroke-width:0.5;" width="108" x="1569" y="254"/>
            <ellipse cx="1584" cy="270" fill="#ADD1B2" rx="11" ry="11" style="stroke:#181818;stroke-width:1.0;"/>
            <path d="M1586.7656,265.875 Q1586.9219,265.6563 1587.1094,265.5469 Q1587.2969,265.4375 1587.5156,265.4375 Q1587.8906,265.4375 1588.125,265.7031 Q1588.3594,265.9531 1588.3594,266.5625 L1588.3594,268.0156 Q1588.3594,268.625 1588.125,268.8906 Q1587.8906,269.1563 1587.5156,269.1563 Q1587.1719,269.1563 1586.9688,268.9531 Q1586.7656,268.7656 1586.6563,268.25 Q1586.6094,267.8906 1586.4219,267.7031 Q1586.0938,267.3281 1585.4844,267.1094 Q1584.875,266.8906 1584.25,266.8906 Q1583.4844,266.8906 1582.8438,267.2188 Q1582.2188,267.5469 1581.7188,268.2969 Q1581.2344,269.0469 1581.2344,270.0781 L1581.2344,271.1719 Q1581.2344,272.4063 1582.125,273.2344 Q1583.0156,274.0469 1584.6094,274.0469 Q1585.5469,274.0469 1586.2031,273.7969 Q1586.5938,273.6406 1587.0156,273.2031 Q1587.2813,272.9375 1587.4219,272.8594 Q1587.5781,272.7813 1587.7813,272.7813 Q1588.1094,272.7813 1588.3594,273.0469 Q1588.625,273.2969 1588.625,273.6406 Q1588.625,273.9844 1588.2813,274.3906 Q1587.7813,274.9688 1586.9844,275.2969 Q1585.9063,275.75 1584.6094,275.75 Q1583.0938,275.75 1581.8906,275.125 Q1580.9063,274.625 1580.2188,273.5625 Q1579.5313,272.4844 1579.5313,271.2031 L1579.5313,270.0469 Q1579.5313,268.7188 1580.1406,267.5781 Q1580.7656,266.4219 1581.8594,265.8125 Q1582.9531,265.1875 1584.1875,265.1875 Q1584.9219,265.1875 1585.5625,265.3594 Q1586.2188,265.5156 1586.7656,265.875 Z " fill="#000000"/>
            <text fill="#000000" font-family="sans-serif" font-size="14" lengthAdjust="spacing" textLength="76" x="1598" y="275.7285">HikariConfig</text>
            <line style="stroke:#181818;stroke-width:0.5;" x1="1570" x2="1676" y1="286" y2="286"/>
            <line style="stroke:#181818;stroke-width:0.5;" x1="1570" x2="1676" y1="294" y2="294"/>
        </g>
        <!--class HikariDataSource-->
        <g id="elem_HikariDataSource">
            <rect codeLine="5" fill="#F1F1F1" height="48" id="HikariDataSource" rx="2.5" ry="2.5" style="stroke:#181818;stroke-width:0.5;" width="142" x="1392" y="254"/>
            <ellipse cx="1407" cy="270" fill="#ADD1B2" rx="11" ry="11" style="stroke:#181818;stroke-width:1.0;"/>
            <path d="M1409.7656,265.875 Q1409.9219,265.6563 1410.1094,265.5469 Q1410.2969,265.4375 1410.5156,265.4375 Q1410.8906,265.4375 1411.125,265.7031 Q1411.3594,265.9531 1411.3594,266.5625 L1411.3594,268.0156 Q1411.3594,268.625 1411.125,268.8906 Q1410.8906,269.1563 1410.5156,269.1563 Q1410.1719,269.1563 1409.9688,268.9531 Q1409.7656,268.7656 1409.6563,268.25 Q1409.6094,267.8906 1409.4219,267.7031 Q1409.0938,267.3281 1408.4844,267.1094 Q1407.875,266.8906 1407.25,266.8906 Q1406.4844,266.8906 1405.8438,267.2188 Q1405.2188,267.5469 1404.7188,268.2969 Q1404.2344,269.0469 1404.2344,270.0781 L1404.2344,271.1719 Q1404.2344,272.4063 1405.125,273.2344 Q1406.0156,274.0469 1407.6094,274.0469 Q1408.5469,274.0469 1409.2031,273.7969 Q1409.5938,273.6406 1410.0156,273.2031 Q1410.2813,272.9375 1410.4219,272.8594 Q1410.5781,272.7813 1410.7813,272.7813 Q1411.1094,272.7813 1411.3594,273.0469 Q1411.625,273.2969 1411.625,273.6406 Q1411.625,273.9844 1411.2813,274.3906 Q1410.7813,274.9688 1409.9844,275.2969 Q1408.9063,275.75 1407.6094,275.75 Q1406.0938,275.75 1404.8906,275.125 Q1403.9063,274.625 1403.2188,273.5625 Q1402.5313,272.4844 1402.5313,271.2031 L1402.5313,270.0469 Q1402.5313,268.7188 1403.1406,267.5781 Q1403.7656,266.4219 1404.8594,265.8125 Q1405.9531,265.1875 1407.1875,265.1875 Q1407.9219,265.1875 1408.5625,265.3594 Q1409.2188,265.5156 1409.7656,265.875 Z " fill="#000000"/>
            <text fill="#000000" font-family="sans-serif" font-size="14" lengthAdjust="spacing" textLength="110" x="1421" y="275.7285">HikariDataSource</text>
            <line style="stroke:#181818;stroke-width:0.5;" x1="1393" x2="1533" y1="286" y2="286"/>
            <line style="stroke:#181818;stroke-width:0.5;" x1="1393" x2="1533" y1="294" y2="294"/>
        </g>
        <!--class IOException-->
        <g id="elem_IOException">
            <rect codeLine="6" fill="#F1F1F1" height="48" id="IOException" rx="2.5" ry="2.5" style="stroke:#181818;stroke-width:0.5;" width="107" x="1454.5" y="470"/>
            <ellipse cx="1469.5" cy="486" fill="#ADD1B2" rx="11" ry="11" style="stroke:#181818;stroke-width:1.0;"/>
            <path d="M1472.2656,481.875 Q1472.4219,481.6563 1472.6094,481.5469 Q1472.7969,481.4375 1473.0156,481.4375 Q1473.3906,481.4375 1473.625,481.7031 Q1473.8594,481.9531 1473.8594,482.5625 L1473.8594,484.0156 Q1473.8594,484.625 1473.625,484.8906 Q1473.3906,485.1563 1473.0156,485.1563 Q1472.6719,485.1563 1472.4688,484.9531 Q1472.2656,484.7656 1472.1563,484.25 Q1472.1094,483.8906 1471.9219,483.7031 Q1471.5938,483.3281 1470.9844,483.1094 Q1470.375,482.8906 1469.75,482.8906 Q1468.9844,482.8906 1468.3438,483.2188 Q1467.7188,483.5469 1467.2188,484.2969 Q1466.7344,485.0469 1466.7344,486.0781 L1466.7344,487.1719 Q1466.7344,488.4063 1467.625,489.2344 Q1468.5156,490.0469 1470.1094,490.0469 Q1471.0469,490.0469 1471.7031,489.7969 Q1472.0938,489.6406 1472.5156,489.2031 Q1472.7813,488.9375 1472.9219,488.8594 Q1473.0781,488.7813 1473.2813,488.7813 Q1473.6094,488.7813 1473.8594,489.0469 Q1474.125,489.2969 1474.125,489.6406 Q1474.125,489.9844 1473.7813,490.3906 Q1473.2813,490.9688 1472.4844,491.2969 Q1471.4063,491.75 1470.1094,491.75 Q1468.5938,491.75 1467.3906,491.125 Q1466.4063,490.625 1465.7188,489.5625 Q1465.0313,488.4844 1465.0313,487.2031 L1465.0313,486.0469 Q1465.0313,484.7188 1465.6406,483.5781 Q1466.2656,482.4219 1467.3594,481.8125 Q1468.4531,481.1875 1469.6875,481.1875 Q1470.4219,481.1875 1471.0625,481.3594 Q1471.7188,481.5156 1472.2656,481.875 Z " fill="#000000"/>
            <text fill="#000000" font-family="sans-serif" font-size="14" lengthAdjust="spacing" textLength="75" x="1483.5" y="491.7285">IOException</text>
            <line style="stroke:#181818;stroke-width:0.5;" x1="1455.5" x2="1560.5" y1="502" y2="502"/>
            <line style="stroke:#181818;stroke-width:0.5;" x1="1455.5" x2="1560.5" y1="510" y2="510"/>
        </g>
        <!--class InputStream-->
        <g id="elem_InputStream">
            <rect codeLine="7" fill="#F1F1F1" height="48" id="InputStream" rx="2.5" ry="2.5" style="stroke:#181818;stroke-width:0.5;" width="108" x="1597" y="470"/>
            <ellipse cx="1612" cy="486" fill="#ADD1B2" rx="11" ry="11" style="stroke:#181818;stroke-width:1.0;"/>
            <path d="M1614.7656,481.875 Q1614.9219,481.6563 1615.1094,481.5469 Q1615.2969,481.4375 1615.5156,481.4375 Q1615.8906,481.4375 1616.125,481.7031 Q1616.3594,481.9531 1616.3594,482.5625 L1616.3594,484.0156 Q1616.3594,484.625 1616.125,484.8906 Q1615.8906,485.1563 1615.5156,485.1563 Q1615.1719,485.1563 1614.9688,484.9531 Q1614.7656,484.7656 1614.6563,484.25 Q1614.6094,483.8906 1614.4219,483.7031 Q1614.0938,483.3281 1613.4844,483.1094 Q1612.875,482.8906 1612.25,482.8906 Q1611.4844,482.8906 1610.8438,483.2188 Q1610.2188,483.5469 1609.7188,484.2969 Q1609.2344,485.0469 1609.2344,486.0781 L1609.2344,487.1719 Q1609.2344,488.4063 1610.125,489.2344 Q1611.0156,490.0469 1612.6094,490.0469 Q1613.5469,490.0469 1614.2031,489.7969 Q1614.5938,489.6406 1615.0156,489.2031 Q1615.2813,488.9375 1615.4219,488.8594 Q1615.5781,488.7813 1615.7813,488.7813 Q1616.1094,488.7813 1616.3594,489.0469 Q1616.625,489.2969 1616.625,489.6406 Q1616.625,489.9844 1616.2813,490.3906 Q1615.7813,490.9688 1614.9844,491.2969 Q1613.9063,491.75 1612.6094,491.75 Q1611.0938,491.75 1609.8906,491.125 Q1608.9063,490.625 1608.2188,489.5625 Q1607.5313,488.4844 1607.5313,487.2031 L1607.5313,486.0469 Q1607.5313,484.7188 1608.1406,483.5781 Q1608.7656,482.4219 1609.8594,481.8125 Q1610.9531,481.1875 1612.1875,481.1875 Q1612.9219,481.1875 1613.5625,481.3594 Q1614.2188,481.5156 1614.7656,481.875 Z " fill="#000000"/>
            <text fill="#000000" font-family="sans-serif" font-size="14" lengthAdjust="spacing" textLength="76" x="1626" y="491.7285">InputStream</text>
            <line style="stroke:#181818;stroke-width:0.5;" x1="1598" x2="1704" y1="502" y2="502"/>
            <line style="stroke:#181818;stroke-width:0.5;" x1="1598" x2="1704" y1="510" y2="510"/>
        </g>
        <!--class BigDecimal-->
        <g id="elem_BigDecimal">
            <rect codeLine="8" fill="#F1F1F1" height="48" id="BigDecimal" rx="2.5" ry="2.5" style="stroke:#181818;stroke-width:0.5;" width="102" x="46" y="470"/>
            <ellipse cx="61" cy="486" fill="#ADD1B2" rx="11" ry="11" style="stroke:#181818;stroke-width:1.0;"/>
            <path d="M63.7656,481.875 Q63.9219,481.6563 64.1094,481.5469 Q64.2969,481.4375 64.5156,481.4375 Q64.8906,481.4375 65.125,481.7031 Q65.3594,481.9531 65.3594,482.5625 L65.3594,484.0156 Q65.3594,484.625 65.125,484.8906 Q64.8906,485.1563 64.5156,485.1563 Q64.1719,485.1563 63.9688,484.9531 Q63.7656,484.7656 63.6563,484.25 Q63.6094,483.8906 63.4219,483.7031 Q63.0938,483.3281 62.4844,483.1094 Q61.875,482.8906 61.25,482.8906 Q60.4844,482.8906 59.8438,483.2188 Q59.2188,483.5469 58.7188,484.2969 Q58.2344,485.0469 58.2344,486.0781 L58.2344,487.1719 Q58.2344,488.4063 59.125,489.2344 Q60.0156,490.0469 61.6094,490.0469 Q62.5469,490.0469 63.2031,489.7969 Q63.5938,489.6406 64.0156,489.2031 Q64.2813,488.9375 64.4219,488.8594 Q64.5781,488.7813 64.7813,488.7813 Q65.1094,488.7813 65.3594,489.0469 Q65.625,489.2969 65.625,489.6406 Q65.625,489.9844 65.2813,490.3906 Q64.7813,490.9688 63.9844,491.2969 Q62.9063,491.75 61.6094,491.75 Q60.0938,491.75 58.8906,491.125 Q57.9063,490.625 57.2188,489.5625 Q56.5313,488.4844 56.5313,487.2031 L56.5313,486.0469 Q56.5313,484.7188 57.1406,483.5781 Q57.7656,482.4219 58.8594,481.8125 Q59.9531,481.1875 61.1875,481.1875 Q61.9219,481.1875 62.5625,481.3594 Q63.2188,481.5156 63.7656,481.875 Z " fill="#000000"/>
            <text fill="#000000" font-family="sans-serif" font-size="14" lengthAdjust="spacing" textLength="70" x="75" y="491.7285">BigDecimal</text>
            <line style="stroke:#181818;stroke-width:0.5;" x1="47" x2="147" y1="502" y2="502"/>
            <line style="stroke:#181818;stroke-width:0.5;" x1="47" x2="147" y1="510" y2="510"/>
        </g>
        <!--class Connection-->
        <g id="elem_Connection">
            <rect codeLine="9" fill="#F1F1F1" height="48" id="Connection" rx="2.5" ry="2.5" style="stroke:#181818;stroke-width:0.5;" width="104" x="679" y="470"/>
            <ellipse cx="694" cy="486" fill="#ADD1B2" rx="11" ry="11" style="stroke:#181818;stroke-width:1.0;"/>
            <path d="M696.7656,481.875 Q696.9219,481.6563 697.1094,481.5469 Q697.2969,481.4375 697.5156,481.4375 Q697.8906,481.4375 698.125,481.7031 Q698.3594,481.9531 698.3594,482.5625 L698.3594,484.0156 Q698.3594,484.625 698.125,484.8906 Q697.8906,485.1563 697.5156,485.1563 Q697.1719,485.1563 696.9688,484.9531 Q696.7656,484.7656 696.6563,484.25 Q696.6094,483.8906 696.4219,483.7031 Q696.0938,483.3281 695.4844,483.1094 Q694.875,482.8906 694.25,482.8906 Q693.4844,482.8906 692.8438,483.2188 Q692.2188,483.5469 691.7188,484.2969 Q691.2344,485.0469 691.2344,486.0781 L691.2344,487.1719 Q691.2344,488.4063 692.125,489.2344 Q693.0156,490.0469 694.6094,490.0469 Q695.5469,490.0469 696.2031,489.7969 Q696.5938,489.6406 697.0156,489.2031 Q697.2813,488.9375 697.4219,488.8594 Q697.5781,488.7813 697.7813,488.7813 Q698.1094,488.7813 698.3594,489.0469 Q698.625,489.2969 698.625,489.6406 Q698.625,489.9844 698.2813,490.3906 Q697.7813,490.9688 696.9844,491.2969 Q695.9063,491.75 694.6094,491.75 Q693.0938,491.75 691.8906,491.125 Q690.9063,490.625 690.2188,489.5625 Q689.5313,488.4844 689.5313,487.2031 L689.5313,486.0469 Q689.5313,484.7188 690.1406,483.5781 Q690.7656,482.4219 691.8594,481.8125 Q692.9531,481.1875 694.1875,481.1875 Q694.9219,481.1875 695.5625,481.3594 Q696.2188,481.5156 696.7656,481.875 Z " fill="#000000"/>
            <text fill="#000000" font-family="sans-serif" font-size="14" lengthAdjust="spacing" textLength="72" x="708" y="491.7285">Connection</text>
            <line style="stroke:#181818;stroke-width:0.5;" x1="680" x2="782" y1="502" y2="502"/>
            <line style="stroke:#181818;stroke-width:0.5;" x1="680" x2="782" y1="510" y2="510"/>
        </g>
        <!--class PreparedStatement-->
        <g id="elem_PreparedStatement">
            <rect codeLine="10" fill="#F1F1F1" height="48" id="PreparedStatement" rx="2.5" ry="2.5" style="stroke:#181818;stroke-width:0.5;" width="155" x="204.5" y="470"/>
            <ellipse cx="219.5" cy="486" fill="#ADD1B2" rx="11" ry="11" style="stroke:#181818;stroke-width:1.0;"/>
            <path d="M222.2656,481.875 Q222.4219,481.6563 222.6094,481.5469 Q222.7969,481.4375 223.0156,481.4375 Q223.3906,481.4375 223.625,481.7031 Q223.8594,481.9531 223.8594,482.5625 L223.8594,484.0156 Q223.8594,484.625 223.625,484.8906 Q223.3906,485.1563 223.0156,485.1563 Q222.6719,485.1563 222.4688,484.9531 Q222.2656,484.7656 222.1563,484.25 Q222.1094,483.8906 221.9219,483.7031 Q221.5938,483.3281 220.9844,483.1094 Q220.375,482.8906 219.75,482.8906 Q218.9844,482.8906 218.3438,483.2188 Q217.7188,483.5469 217.2188,484.2969 Q216.7344,485.0469 216.7344,486.0781 L216.7344,487.1719 Q216.7344,488.4063 217.625,489.2344 Q218.5156,490.0469 220.1094,490.0469 Q221.0469,490.0469 221.7031,489.7969 Q222.0938,489.6406 222.5156,489.2031 Q222.7813,488.9375 222.9219,488.8594 Q223.0781,488.7813 223.2813,488.7813 Q223.6094,488.7813 223.8594,489.0469 Q224.125,489.2969 224.125,489.6406 Q224.125,489.9844 223.7813,490.3906 Q223.2813,490.9688 222.4844,491.2969 Q221.4063,491.75 220.1094,491.75 Q218.5938,491.75 217.3906,491.125 Q216.4063,490.625 215.7188,489.5625 Q215.0313,488.4844 215.0313,487.2031 L215.0313,486.0469 Q215.0313,484.7188 215.6406,483.5781 Q216.2656,482.4219 217.3594,481.8125 Q218.4531,481.1875 219.6875,481.1875 Q220.4219,481.1875 221.0625,481.3594 Q221.7188,481.5156 222.2656,481.875 Z " fill="#000000"/>
            <text fill="#000000" font-family="sans-serif" font-size="14" lengthAdjust="spacing" textLength="123" x="233.5" y="491.7285">PreparedStatement</text>
            <line style="stroke:#181818;stroke-width:0.5;" x1="205.5" x2="358.5" y1="502" y2="502"/>
            <line style="stroke:#181818;stroke-width:0.5;" x1="205.5" x2="358.5" y1="510" y2="510"/>
        </g>
        <!--class ResultSet-->
        <g id="elem_ResultSet">
            <rect codeLine="11" fill="#F1F1F1" height="48" id="ResultSet" rx="2.5" ry="2.5" style="stroke:#181818;stroke-width:0.5;" width="93" x="394.5" y="470"/>
            <ellipse cx="409.5" cy="486" fill="#ADD1B2" rx="11" ry="11" style="stroke:#181818;stroke-width:1.0;"/>
            <path d="M412.2656,481.875 Q412.4219,481.6563 412.6094,481.5469 Q412.7969,481.4375 413.0156,481.4375 Q413.3906,481.4375 413.625,481.7031 Q413.8594,481.9531 413.8594,482.5625 L413.8594,484.0156 Q413.8594,484.625 413.625,484.8906 Q413.3906,485.1563 413.0156,485.1563 Q412.6719,485.1563 412.4688,484.9531 Q412.2656,484.7656 412.1563,484.25 Q412.1094,483.8906 411.9219,483.7031 Q411.5938,483.3281 410.9844,483.1094 Q410.375,482.8906 409.75,482.8906 Q408.9844,482.8906 408.3438,483.2188 Q407.7188,483.5469 407.2188,484.2969 Q406.7344,485.0469 406.7344,486.0781 L406.7344,487.1719 Q406.7344,488.4063 407.625,489.2344 Q408.5156,490.0469 410.1094,490.0469 Q411.0469,490.0469 411.7031,489.7969 Q412.0938,489.6406 412.5156,489.2031 Q412.7813,488.9375 412.9219,488.8594 Q413.0781,488.7813 413.2813,488.7813 Q413.6094,488.7813 413.8594,489.0469 Q414.125,489.2969 414.125,489.6406 Q414.125,489.9844 413.7813,490.3906 Q413.2813,490.9688 412.4844,491.2969 Q411.4063,491.75 410.1094,491.75 Q408.5938,491.75 407.3906,491.125 Q406.4063,490.625 405.7188,489.5625 Q405.0313,488.4844 405.0313,487.2031 L405.0313,486.0469 Q405.0313,484.7188 405.6406,483.5781 Q406.2656,482.4219 407.3594,481.8125 Q408.4531,481.1875 409.6875,481.1875 Q410.4219,481.1875 411.0625,481.3594 Q411.7188,481.5156 412.2656,481.875 Z " fill="#000000"/>
            <text fill="#000000" font-family="sans-serif" font-size="14" lengthAdjust="spacing" textLength="61" x="423.5" y="491.7285">ResultSet</text>
            <line style="stroke:#181818;stroke-width:0.5;" x1="395.5" x2="486.5" y1="502" y2="502"/>
            <line style="stroke:#181818;stroke-width:0.5;" x1="395.5" x2="486.5" y1="510" y2="510"/>
        </g>
        <!--class SQLException-->
        <g id="elem_SQLException">
            <rect codeLine="12" fill="#F1F1F1" height="48" id="SQLException" rx="2.5" ry="2.5" style="stroke:#181818;stroke-width:0.5;" width="121" x="522.5" y="470"/>
            <ellipse cx="537.5" cy="486" fill="#ADD1B2" rx="11" ry="11" style="stroke:#181818;stroke-width:1.0;"/>
            <path d="M540.2656,481.875 Q540.4219,481.6563 540.6094,481.5469 Q540.7969,481.4375 541.0156,481.4375 Q541.3906,481.4375 541.625,481.7031 Q541.8594,481.9531 541.8594,482.5625 L541.8594,484.0156 Q541.8594,484.625 541.625,484.8906 Q541.3906,485.1563 541.0156,485.1563 Q540.6719,485.1563 540.4688,484.9531 Q540.2656,484.7656 540.1563,484.25 Q540.1094,483.8906 539.9219,483.7031 Q539.5938,483.3281 538.9844,483.1094 Q538.375,482.8906 537.75,482.8906 Q536.9844,482.8906 536.3438,483.2188 Q535.7188,483.5469 535.2188,484.2969 Q534.7344,485.0469 534.7344,486.0781 L534.7344,487.1719 Q534.7344,488.4063 535.625,489.2344 Q536.5156,490.0469 538.1094,490.0469 Q539.0469,490.0469 539.7031,489.7969 Q540.0938,489.6406 540.5156,489.2031 Q540.7813,488.9375 540.9219,488.8594 Q541.0781,488.7813 541.2813,488.7813 Q541.6094,488.7813 541.8594,489.0469 Q542.125,489.2969 542.125,489.6406 Q542.125,489.9844 541.7813,490.3906 Q541.2813,490.9688 540.4844,491.2969 Q539.4063,491.75 538.1094,491.75 Q536.5938,491.75 535.3906,491.125 Q534.4063,490.625 533.7188,489.5625 Q533.0313,488.4844 533.0313,487.2031 L533.0313,486.0469 Q533.0313,484.7188 533.6406,483.5781 Q534.2656,482.4219 535.3594,481.8125 Q536.4531,481.1875 537.6875,481.1875 Q538.4219,481.1875 539.0625,481.3594 Q539.7188,481.5156 540.2656,481.875 Z " fill="#000000"/>
            <text fill="#000000" font-family="sans-serif" font-size="14" lengthAdjust="spacing" textLength="89" x="551.5" y="491.7285">SQLException</text>
            <line style="stroke:#181818;stroke-width:0.5;" x1="523.5" x2="642.5" y1="502" y2="502"/>
            <line style="stroke:#181818;stroke-width:0.5;" x1="523.5" x2="642.5" y1="510" y2="510"/>
        </g>
        <!--class LocalDate-->
        <g id="elem_LocalDate">
            <rect codeLine="13" fill="#F1F1F1" height="48" id="LocalDate" rx="2.5" ry="2.5" style="stroke:#181818;stroke-width:0.5;" width="96" x="839" y="470"/>
            <ellipse cx="854" cy="486" fill="#ADD1B2" rx="11" ry="11" style="stroke:#181818;stroke-width:1.0;"/>
            <path d="M856.7656,481.875 Q856.9219,481.6563 857.1094,481.5469 Q857.2969,481.4375 857.5156,481.4375 Q857.8906,481.4375 858.125,481.7031 Q858.3594,481.9531 858.3594,482.5625 L858.3594,484.0156 Q858.3594,484.625 858.125,484.8906 Q857.8906,485.1563 857.5156,485.1563 Q857.1719,485.1563 856.9688,484.9531 Q856.7656,484.7656 856.6563,484.25 Q856.6094,483.8906 856.4219,483.7031 Q856.0938,483.3281 855.4844,483.1094 Q854.875,482.8906 854.25,482.8906 Q853.4844,482.8906 852.8438,483.2188 Q852.2188,483.5469 851.7188,484.2969 Q851.2344,485.0469 851.2344,486.0781 L851.2344,487.1719 Q851.2344,488.4063 852.125,489.2344 Q853.0156,490.0469 854.6094,490.0469 Q855.5469,490.0469 856.2031,489.7969 Q856.5938,489.6406 857.0156,489.2031 Q857.2813,488.9375 857.4219,488.8594 Q857.5781,488.7813 857.7813,488.7813 Q858.1094,488.7813 858.3594,489.0469 Q858.625,489.2969 858.625,489.6406 Q858.625,489.9844 858.2813,490.3906 Q857.7813,490.9688 856.9844,491.2969 Q855.9063,491.75 854.6094,491.75 Q853.0938,491.75 851.8906,491.125 Q850.9063,490.625 850.2188,489.5625 Q849.5313,488.4844 849.5313,487.2031 L849.5313,486.0469 Q849.5313,484.7188 850.1406,483.5781 Q850.7656,482.4219 851.8594,481.8125 Q852.9531,481.1875 854.1875,481.1875 Q854.9219,481.1875 855.5625,481.3594 Q856.2188,481.5156 856.7656,481.875 Z " fill="#000000"/>
            <text fill="#000000" font-family="sans-serif" font-size="14" lengthAdjust="spacing" textLength="64" x="868" y="491.7285">LocalDate</text>
            <line style="stroke:#181818;stroke-width:0.5;" x1="840" x2="934" y1="502" y2="502"/>
            <line style="stroke:#181818;stroke-width:0.5;" x1="840" x2="934" y1="510" y2="510"/>
        </g>
        <!--class ArrayList-->
        <g id="elem_ArrayList">
            <rect codeLine="14" fill="#F1F1F1" height="48" id="ArrayList" rx="2.5" ry="2.5" style="stroke:#181818;stroke-width:0.5;" width="88" x="1088" y="470"/>
            <ellipse cx="1103" cy="486" fill="#ADD1B2" rx="11" ry="11" style="stroke:#181818;stroke-width:1.0;"/>
            <path d="M1105.7656,481.875 Q1105.9219,481.6563 1106.1094,481.5469 Q1106.2969,481.4375 1106.5156,481.4375 Q1106.8906,481.4375 1107.125,481.7031 Q1107.3594,481.9531 1107.3594,482.5625 L1107.3594,484.0156 Q1107.3594,484.625 1107.125,484.8906 Q1106.8906,485.1563 1106.5156,485.1563 Q1106.1719,485.1563 1105.9688,484.9531 Q1105.7656,484.7656 1105.6563,484.25 Q1105.6094,483.8906 1105.4219,483.7031 Q1105.0938,483.3281 1104.4844,483.1094 Q1103.875,482.8906 1103.25,482.8906 Q1102.4844,482.8906 1101.8438,483.2188 Q1101.2188,483.5469 1100.7188,484.2969 Q1100.2344,485.0469 1100.2344,486.0781 L1100.2344,487.1719 Q1100.2344,488.4063 1101.125,489.2344 Q1102.0156,490.0469 1103.6094,490.0469 Q1104.5469,490.0469 1105.2031,489.7969 Q1105.5938,489.6406 1106.0156,489.2031 Q1106.2813,488.9375 1106.4219,488.8594 Q1106.5781,488.7813 1106.7813,488.7813 Q1107.1094,488.7813 1107.3594,489.0469 Q1107.625,489.2969 1107.625,489.6406 Q1107.625,489.9844 1107.2813,490.3906 Q1106.7813,490.9688 1105.9844,491.2969 Q1104.9063,491.75 1103.6094,491.75 Q1102.0938,491.75 1100.8906,491.125 Q1099.9063,490.625 1099.2188,489.5625 Q1098.5313,488.4844 1098.5313,487.2031 L1098.5313,486.0469 Q1098.5313,484.7188 1099.1406,483.5781 Q1099.7656,482.4219 1100.8594,481.8125 Q1101.9531,481.1875 1103.1875,481.1875 Q1103.9219,481.1875 1104.5625,481.3594 Q1105.2188,481.5156 1105.7656,481.875 Z " fill="#000000"/>
            <text fill="#000000" font-family="sans-serif" font-size="14" lengthAdjust="spacing" textLength="56" x="1117" y="491.7285">ArrayList</text>
            <line style="stroke:#181818;stroke-width:0.5;" x1="1089" x2="1175" y1="502" y2="502"/>
            <line style="stroke:#181818;stroke-width:0.5;" x1="1089" x2="1175" y1="510" y2="510"/>
        </g>
        <!--class Date-->
        <g id="elem_Date">
            <rect codeLine="15" fill="#F1F1F1" height="48" id="Date" rx="2.5" ry="2.5" style="stroke:#181818;stroke-width:0.5;" width="62" x="991" y="470"/>
            <ellipse cx="1006" cy="486" fill="#ADD1B2" rx="11" ry="11" style="stroke:#181818;stroke-width:1.0;"/>
            <path d="M1008.7656,481.875 Q1008.9219,481.6563 1009.1094,481.5469 Q1009.2969,481.4375 1009.5156,481.4375 Q1009.8906,481.4375 1010.125,481.7031 Q1010.3594,481.9531 1010.3594,482.5625 L1010.3594,484.0156 Q1010.3594,484.625 1010.125,484.8906 Q1009.8906,485.1563 1009.5156,485.1563 Q1009.1719,485.1563 1008.9688,484.9531 Q1008.7656,484.7656 1008.6563,484.25 Q1008.6094,483.8906 1008.4219,483.7031 Q1008.0938,483.3281 1007.4844,483.1094 Q1006.875,482.8906 1006.25,482.8906 Q1005.4844,482.8906 1004.8438,483.2188 Q1004.2188,483.5469 1003.7188,484.2969 Q1003.2344,485.0469 1003.2344,486.0781 L1003.2344,487.1719 Q1003.2344,488.4063 1004.125,489.2344 Q1005.0156,490.0469 1006.6094,490.0469 Q1007.5469,490.0469 1008.2031,489.7969 Q1008.5938,489.6406 1009.0156,489.2031 Q1009.2813,488.9375 1009.4219,488.8594 Q1009.5781,488.7813 1009.7813,488.7813 Q1010.1094,488.7813 1010.3594,489.0469 Q1010.625,489.2969 1010.625,489.6406 Q1010.625,489.9844 1010.2813,490.3906 Q1009.7813,490.9688 1008.9844,491.2969 Q1007.9063,491.75 1006.6094,491.75 Q1005.0938,491.75 1003.8906,491.125 Q1002.9063,490.625 1002.2188,489.5625 Q1001.5313,488.4844 1001.5313,487.2031 L1001.5313,486.0469 Q1001.5313,484.7188 1002.1406,483.5781 Q1002.7656,482.4219 1003.8594,481.8125 Q1004.9531,481.1875 1006.1875,481.1875 Q1006.9219,481.1875 1007.5625,481.3594 Q1008.2188,481.5156 1008.7656,481.875 Z " fill="#000000"/>
            <text fill="#000000" font-family="sans-serif" font-size="14" lengthAdjust="spacing" textLength="30" x="1020" y="491.7285">Date</text>
            <line style="stroke:#181818;stroke-width:0.5;" x1="992" x2="1052" y1="502" y2="502"/>
            <line style="stroke:#181818;stroke-width:0.5;" x1="992" x2="1052" y1="510" y2="510"/>
        </g>
        <!--class List-->
        <g id="elem_List">
            <rect codeLine="16" fill="#F1F1F1" height="48" id="List" rx="2.5" ry="2.5" style="stroke:#181818;stroke-width:0.5;" width="54" x="1211" y="470"/>
            <ellipse cx="1226" cy="486" fill="#ADD1B2" rx="11" ry="11" style="stroke:#181818;stroke-width:1.0;"/>
            <path d="M1228.7656,481.875 Q1228.9219,481.6563 1229.1094,481.5469 Q1229.2969,481.4375 1229.5156,481.4375 Q1229.8906,481.4375 1230.125,481.7031 Q1230.3594,481.9531 1230.3594,482.5625 L1230.3594,484.0156 Q1230.3594,484.625 1230.125,484.8906 Q1229.8906,485.1563 1229.5156,485.1563 Q1229.1719,485.1563 1228.9688,484.9531 Q1228.7656,484.7656 1228.6563,484.25 Q1228.6094,483.8906 1228.4219,483.7031 Q1228.0938,483.3281 1227.4844,483.1094 Q1226.875,482.8906 1226.25,482.8906 Q1225.4844,482.8906 1224.8438,483.2188 Q1224.2188,483.5469 1223.7188,484.2969 Q1223.2344,485.0469 1223.2344,486.0781 L1223.2344,487.1719 Q1223.2344,488.4063 1224.125,489.2344 Q1225.0156,490.0469 1226.6094,490.0469 Q1227.5469,490.0469 1228.2031,489.7969 Q1228.5938,489.6406 1229.0156,489.2031 Q1229.2813,488.9375 1229.4219,488.8594 Q1229.5781,488.7813 1229.7813,488.7813 Q1230.1094,488.7813 1230.3594,489.0469 Q1230.625,489.2969 1230.625,489.6406 Q1230.625,489.9844 1230.2813,490.3906 Q1229.7813,490.9688 1228.9844,491.2969 Q1227.9063,491.75 1226.6094,491.75 Q1225.0938,491.75 1223.8906,491.125 Q1222.9063,490.625 1222.2188,489.5625 Q1221.5313,488.4844 1221.5313,487.2031 L1221.5313,486.0469 Q1221.5313,484.7188 1222.1406,483.5781 Q1222.7656,482.4219 1223.8594,481.8125 Q1224.9531,481.1875 1226.1875,481.1875 Q1226.9219,481.1875 1227.5625,481.3594 Q1228.2188,481.5156 1228.7656,481.875 Z " fill="#000000"/>
            <text fill="#000000" font-family="sans-serif" font-size="14" lengthAdjust="spacing" textLength="22" x="1240" y="491.7285">List</text>
            <line style="stroke:#181818;stroke-width:0.5;" x1="1212" x2="1264" y1="502" y2="502"/>
            <line style="stroke:#181818;stroke-width:0.5;" x1="1212" x2="1264" y1="510" y2="510"/>
        </g>
        <!--class Properties-->
        <g id="elem_Properties">
            <rect codeLine="17" fill="#F1F1F1" height="48" id="Properties" rx="2.5" ry="2.5" style="stroke:#181818;stroke-width:0.5;" width="97" x="1300.5" y="470"/>
            <ellipse cx="1315.5" cy="486" fill="#ADD1B2" rx="11" ry="11" style="stroke:#181818;stroke-width:1.0;"/>
            <path d="M1318.2656,481.875 Q1318.4219,481.6563 1318.6094,481.5469 Q1318.7969,481.4375 1319.0156,481.4375 Q1319.3906,481.4375 1319.625,481.7031 Q1319.8594,481.9531 1319.8594,482.5625 L1319.8594,484.0156 Q1319.8594,484.625 1319.625,484.8906 Q1319.3906,485.1563 1319.0156,485.1563 Q1318.6719,485.1563 1318.4688,484.9531 Q1318.2656,484.7656 1318.1563,484.25 Q1318.1094,483.8906 1317.9219,483.7031 Q1317.5938,483.3281 1316.9844,483.1094 Q1316.375,482.8906 1315.75,482.8906 Q1314.9844,482.8906 1314.3438,483.2188 Q1313.7188,483.5469 1313.2188,484.2969 Q1312.7344,485.0469 1312.7344,486.0781 L1312.7344,487.1719 Q1312.7344,488.4063 1313.625,489.2344 Q1314.5156,490.0469 1316.1094,490.0469 Q1317.0469,490.0469 1317.7031,489.7969 Q1318.0938,489.6406 1318.5156,489.2031 Q1318.7813,488.9375 1318.9219,488.8594 Q1319.0781,488.7813 1319.2813,488.7813 Q1319.6094,488.7813 1319.8594,489.0469 Q1320.125,489.2969 1320.125,489.6406 Q1320.125,489.9844 1319.7813,490.3906 Q1319.2813,490.9688 1318.4844,491.2969 Q1317.4063,491.75 1316.1094,491.75 Q1314.5938,491.75 1313.3906,491.125 Q1312.4063,490.625 1311.7188,489.5625 Q1311.0313,488.4844 1311.0313,487.2031 L1311.0313,486.0469 Q1311.0313,484.7188 1311.6406,483.5781 Q1312.2656,482.4219 1313.3594,481.8125 Q1314.4531,481.1875 1315.6875,481.1875 Q1316.4219,481.1875 1317.0625,481.3594 Q1317.7188,481.5156 1318.2656,481.875 Z " fill="#000000"/>
            <text fill="#000000" font-family="sans-serif" font-size="14" lengthAdjust="spacing" textLength="65" x="1329.5" y="491.7285">Properties</text>
            <line style="stroke:#181818;stroke-width:0.5;" x1="1301.5" x2="1396.5" y1="502" y2="502"/>
            <line style="stroke:#181818;stroke-width:0.5;" x1="1301.5" x2="1396.5" y1="510" y2="510"/>
        </g>
        <!--class BDUtilidades-->
        <g id="elem_BDUtilidades">
            <rect codeLine="18" fill="#F1F1F1" height="48" id="BDUtilidades" rx="2.5" ry="2.5" style="stroke:#181818;stroke-width:0.5;" width="112" x="914" y="42"/>
            <ellipse cx="929" cy="58" fill="#ADD1B2" rx="11" ry="11" style="stroke:#181818;stroke-width:1.0;"/>
            <path d="M931.7656,53.875 Q931.9219,53.6563 932.1094,53.5469 Q932.2969,53.4375 932.5156,53.4375 Q932.8906,53.4375 933.125,53.7031 Q933.3594,53.9531 933.3594,54.5625 L933.3594,56.0156 Q933.3594,56.625 933.125,56.8906 Q932.8906,57.1563 932.5156,57.1563 Q932.1719,57.1563 931.9688,56.9531 Q931.7656,56.7656 931.6563,56.25 Q931.6094,55.8906 931.4219,55.7031 Q931.0938,55.3281 930.4844,55.1094 Q929.875,54.8906 929.25,54.8906 Q928.4844,54.8906 927.8438,55.2188 Q927.2188,55.5469 926.7188,56.2969 Q926.2344,57.0469 926.2344,58.0781 L926.2344,59.1719 Q926.2344,60.4063 927.125,61.2344 Q928.0156,62.0469 929.6094,62.0469 Q930.5469,62.0469 931.2031,61.7969 Q931.5938,61.6406 932.0156,61.2031 Q932.2813,60.9375 932.4219,60.8594 Q932.5781,60.7813 932.7813,60.7813 Q933.1094,60.7813 933.3594,61.0469 Q933.625,61.2969 933.625,61.6406 Q933.625,61.9844 933.2813,62.3906 Q932.7813,62.9688 931.9844,63.2969 Q930.9063,63.75 929.6094,63.75 Q928.0938,63.75 926.8906,63.125 Q925.9063,62.625 925.2188,61.5625 Q924.5313,60.4844 924.5313,59.2031 L924.5313,58.0469 Q924.5313,56.7188 925.1406,55.5781 Q925.7656,54.4219 926.8594,53.8125 Q927.9531,53.1875 929.1875,53.1875 Q929.9219,53.1875 930.5625,53.3594 Q931.2188,53.5156 931.7656,53.875 Z " fill="#000000"/>
            <text fill="#000000" font-family="sans-serif" font-size="14" lengthAdjust="spacing" textLength="80" x="943" y="63.7285">BDUtilidades</text>
            <line style="stroke:#181818;stroke-width:0.5;" x1="915" x2="1025" y1="74" y2="74"/>
            <line style="stroke:#181818;stroke-width:0.5;" x1="915" x2="1025" y1="82" y2="82"/>
        </g>
        <!--class ClienteInfo-->
        <g id="elem_ClienteInfo">
            <rect codeLine="19" fill="#F1F1F1" height="48" id="ClienteInfo" rx="2.5" ry="2.5" style="stroke:#181818;stroke-width:0.5;" width="99" x="1214.5" y="42"/>
            <ellipse cx="1229.5" cy="58" fill="#ADD1B2" rx="11" ry="11" style="stroke:#181818;stroke-width:1.0;"/>
            <path d="M1232.2656,53.875 Q1232.4219,53.6563 1232.6094,53.5469 Q1232.7969,53.4375 1233.0156,53.4375 Q1233.3906,53.4375 1233.625,53.7031 Q1233.8594,53.9531 1233.8594,54.5625 L1233.8594,56.0156 Q1233.8594,56.625 1233.625,56.8906 Q1233.3906,57.1563 1233.0156,57.1563 Q1232.6719,57.1563 1232.4688,56.9531 Q1232.2656,56.7656 1232.1563,56.25 Q1232.1094,55.8906 1231.9219,55.7031 Q1231.5938,55.3281 1230.9844,55.1094 Q1230.375,54.8906 1229.75,54.8906 Q1228.9844,54.8906 1228.3438,55.2188 Q1227.7188,55.5469 1227.2188,56.2969 Q1226.7344,57.0469 1226.7344,58.0781 L1226.7344,59.1719 Q1226.7344,60.4063 1227.625,61.2344 Q1228.5156,62.0469 1230.1094,62.0469 Q1231.0469,62.0469 1231.7031,61.7969 Q1232.0938,61.6406 1232.5156,61.2031 Q1232.7813,60.9375 1232.9219,60.8594 Q1233.0781,60.7813 1233.2813,60.7813 Q1233.6094,60.7813 1233.8594,61.0469 Q1234.125,61.2969 1234.125,61.6406 Q1234.125,61.9844 1233.7813,62.3906 Q1233.2813,62.9688 1232.4844,63.2969 Q1231.4063,63.75 1230.1094,63.75 Q1228.5938,63.75 1227.3906,63.125 Q1226.4063,62.625 1225.7188,61.5625 Q1225.0313,60.4844 1225.0313,59.2031 L1225.0313,58.0469 Q1225.0313,56.7188 1225.6406,55.5781 Q1226.2656,54.4219 1227.3594,53.8125 Q1228.4531,53.1875 1229.6875,53.1875 Q1230.4219,53.1875 1231.0625,53.3594 Q1231.7188,53.5156 1232.2656,53.875 Z " fill="#000000"/>
            <text fill="#000000" font-family="sans-serif" font-size="14" lengthAdjust="spacing" textLength="67" x="1243.5" y="63.7285">ClienteInfo</text>
            <line style="stroke:#181818;stroke-width:0.5;" x1="1215.5" x2="1312.5" y1="74" y2="74"/>
            <line style="stroke:#181818;stroke-width:0.5;" x1="1215.5" x2="1312.5" y1="82" y2="82"/>
        </g>
        <!--class ConfigLoader-->
        <g id="elem_ConfigLoader">
            <rect codeLine="20" fill="#F1F1F1" height="48" id="ConfigLoader" rx="2.5" ry="2.5" style="stroke:#181818;stroke-width:0.5;" width="118" x="1061" y="42"/>
            <ellipse cx="1076" cy="58" fill="#ADD1B2" rx="11" ry="11" style="stroke:#181818;stroke-width:1.0;"/>
            <path d="M1078.7656,53.875 Q1078.9219,53.6563 1079.1094,53.5469 Q1079.2969,53.4375 1079.5156,53.4375 Q1079.8906,53.4375 1080.125,53.7031 Q1080.3594,53.9531 1080.3594,54.5625 L1080.3594,56.0156 Q1080.3594,56.625 1080.125,56.8906 Q1079.8906,57.1563 1079.5156,57.1563 Q1079.1719,57.1563 1078.9688,56.9531 Q1078.7656,56.7656 1078.6563,56.25 Q1078.6094,55.8906 1078.4219,55.7031 Q1078.0938,55.3281 1077.4844,55.1094 Q1076.875,54.8906 1076.25,54.8906 Q1075.4844,54.8906 1074.8438,55.2188 Q1074.2188,55.5469 1073.7188,56.2969 Q1073.2344,57.0469 1073.2344,58.0781 L1073.2344,59.1719 Q1073.2344,60.4063 1074.125,61.2344 Q1075.0156,62.0469 1076.6094,62.0469 Q1077.5469,62.0469 1078.2031,61.7969 Q1078.5938,61.6406 1079.0156,61.2031 Q1079.2813,60.9375 1079.4219,60.8594 Q1079.5781,60.7813 1079.7813,60.7813 Q1080.1094,60.7813 1080.3594,61.0469 Q1080.625,61.2969 1080.625,61.6406 Q1080.625,61.9844 1080.2813,62.3906 Q1079.7813,62.9688 1078.9844,63.2969 Q1077.9063,63.75 1076.6094,63.75 Q1075.0938,63.75 1073.8906,63.125 Q1072.9063,62.625 1072.2188,61.5625 Q1071.5313,60.4844 1071.5313,59.2031 L1071.5313,58.0469 Q1071.5313,56.7188 1072.1406,55.5781 Q1072.7656,54.4219 1073.8594,53.8125 Q1074.9531,53.1875 1076.1875,53.1875 Q1076.9219,53.1875 1077.5625,53.3594 Q1078.2188,53.5156 1078.7656,53.875 Z " fill="#000000"/>
            <text fill="#000000" font-family="sans-serif" font-size="14" lengthAdjust="spacing" textLength="86" x="1090" y="63.7285">ConfigLoader</text>
            <line style="stroke:#181818;stroke-width:0.5;" x1="1062" x2="1178" y1="74" y2="74"/>
            <line style="stroke:#181818;stroke-width:0.5;" x1="1062" x2="1178" y1="82" y2="82"/>
        </g>
        <!--class DataSourceManager-->
        <g id="elem_DataSourceManager">
            <rect codeLine="21" fill="#F1F1F1" height="48" id="DataSourceManager" rx="2.5" ry="2.5" style="stroke:#181818;stroke-width:0.5;" width="163" x="1348.5" y="42"/>
            <ellipse cx="1363.5" cy="58" fill="#ADD1B2" rx="11" ry="11" style="stroke:#181818;stroke-width:1.0;"/>
            <path d="M1366.2656,53.875 Q1366.4219,53.6563 1366.6094,53.5469 Q1366.7969,53.4375 1367.0156,53.4375 Q1367.3906,53.4375 1367.625,53.7031 Q1367.8594,53.9531 1367.8594,54.5625 L1367.8594,56.0156 Q1367.8594,56.625 1367.625,56.8906 Q1367.3906,57.1563 1367.0156,57.1563 Q1366.6719,57.1563 1366.4688,56.9531 Q1366.2656,56.7656 1366.1563,56.25 Q1366.1094,55.8906 1365.9219,55.7031 Q1365.5938,55.3281 1364.9844,55.1094 Q1364.375,54.8906 1363.75,54.8906 Q1362.9844,54.8906 1362.3438,55.2188 Q1361.7188,55.5469 1361.2188,56.2969 Q1360.7344,57.0469 1360.7344,58.0781 L1360.7344,59.1719 Q1360.7344,60.4063 1361.625,61.2344 Q1362.5156,62.0469 1364.1094,62.0469 Q1365.0469,62.0469 1365.7031,61.7969 Q1366.0938,61.6406 1366.5156,61.2031 Q1366.7813,60.9375 1366.9219,60.8594 Q1367.0781,60.7813 1367.2813,60.7813 Q1367.6094,60.7813 1367.8594,61.0469 Q1368.125,61.2969 1368.125,61.6406 Q1368.125,61.9844 1367.7813,62.3906 Q1367.2813,62.9688 1366.4844,63.2969 Q1365.4063,63.75 1364.1094,63.75 Q1362.5938,63.75 1361.3906,63.125 Q1360.4063,62.625 1359.7188,61.5625 Q1359.0313,60.4844 1359.0313,59.2031 L1359.0313,58.0469 Q1359.0313,56.7188 1359.6406,55.5781 Q1360.2656,54.4219 1361.3594,53.8125 Q1362.4531,53.1875 1363.6875,53.1875 Q1364.4219,53.1875 1365.0625,53.3594 Q1365.7188,53.5156 1366.2656,53.875 Z " fill="#000000"/>
            <text fill="#000000" font-family="sans-serif" font-size="14" lengthAdjust="spacing" textLength="131" x="1377.5" y="63.7285">DataSourceManager</text>
            <line style="stroke:#181818;stroke-width:0.5;" x1="1349.5" x2="1510.5" y1="74" y2="74"/>
            <line style="stroke:#181818;stroke-width:0.5;" x1="1349.5" x2="1510.5" y1="82" y2="82"/>
        </g>
        <!--class UsuarioInfo-->
        <g id="elem_UsuarioInfo">
            <rect codeLine="22" fill="#F1F1F1" height="48" id="UsuarioInfo" rx="2.5" ry="2.5" style="stroke:#181818;stroke-width:0.5;" width="103" x="775.5" y="42"/>
            <ellipse cx="790.5" cy="58" fill="#ADD1B2" rx="11" ry="11" style="stroke:#181818;stroke-width:1.0;"/>
            <path d="M793.2656,53.875 Q793.4219,53.6563 793.6094,53.5469 Q793.7969,53.4375 794.0156,53.4375 Q794.3906,53.4375 794.625,53.7031 Q794.8594,53.9531 794.8594,54.5625 L794.8594,56.0156 Q794.8594,56.625 794.625,56.8906 Q794.3906,57.1563 794.0156,57.1563 Q793.6719,57.1563 793.4688,56.9531 Q793.2656,56.7656 793.1563,56.25 Q793.1094,55.8906 792.9219,55.7031 Q792.5938,55.3281 791.9844,55.1094 Q791.375,54.8906 790.75,54.8906 Q789.9844,54.8906 789.3438,55.2188 Q788.7188,55.5469 788.2188,56.2969 Q787.7344,57.0469 787.7344,58.0781 L787.7344,59.1719 Q787.7344,60.4063 788.625,61.2344 Q789.5156,62.0469 791.1094,62.0469 Q792.0469,62.0469 792.7031,61.7969 Q793.0938,61.6406 793.5156,61.2031 Q793.7813,60.9375 793.9219,60.8594 Q794.0781,60.7813 794.2813,60.7813 Q794.6094,60.7813 794.8594,61.0469 Q795.125,61.2969 795.125,61.6406 Q795.125,61.9844 794.7813,62.3906 Q794.2813,62.9688 793.4844,63.2969 Q792.4063,63.75 791.1094,63.75 Q789.5938,63.75 788.3906,63.125 Q787.4063,62.625 786.7188,61.5625 Q786.0313,60.4844 786.0313,59.2031 L786.0313,58.0469 Q786.0313,56.7188 786.6406,55.5781 Q787.2656,54.4219 788.3594,53.8125 Q789.4531,53.1875 790.6875,53.1875 Q791.4219,53.1875 792.0625,53.3594 Q792.7188,53.5156 793.2656,53.875 Z " fill="#000000"/>
            <text fill="#000000" font-family="sans-serif" font-size="14" lengthAdjust="spacing" textLength="71" x="804.5" y="63.7285">UsuarioInfo</text>
            <line style="stroke:#181818;stroke-width:0.5;" x1="776.5" x2="877.5" y1="74" y2="74"/>
            <line style="stroke:#181818;stroke-width:0.5;" x1="776.5" x2="877.5" y1="82" y2="82"/>
        </g>
        <!--link ReservaInfo to BigDecimal-->
        <g id="link_ReservaInfo_BigDecimal">
            <path codeLine="23" d="M97,302.31 C97,343.47 97,422.58 97,463.72 " fill="none" id="ReservaInfo-to-BigDecimal" style="stroke:#181818;stroke-width:1.0;stroke-dasharray:7.0,7.0;"/>
            <polygon fill="#181818" points="97,469.72,101,460.72,97,464.72,93,460.72,97,469.72" style="stroke:#181818;stroke-width:1.0;"/>
        </g>
        <!--link ReservaInfo to Date-->
        <g id="link_ReservaInfo_Date">
            <path codeLine="24" d="M107.09,302.35 C118.43,325.31 139.24,359.02 169,374 C207.81,393.53 913,360.94 951,382 C984.82,400.74 1002.866,437.4762 1012.626,464.1162 " fill="none" id="ReservaInfo-to-Date" style="stroke:#181818;stroke-width:1.0;stroke-dasharray:7.0,7.0;"/>
            <polygon fill="#181818" points="1014.69,469.75,1015.3498,459.9233,1012.97,465.0552,1007.8381,462.6753,1014.69,469.75" style="stroke:#181818;stroke-width:1.0;"/>
        </g>
        <!--link BDUtilidades to HabitacionInfo-->
        <g id="link_BDUtilidades_HabitacionInfo">
            <path codeLine="25" d="M941.59,90.21 C928.52,99.47 912.32,109.08 896,114 C874.24,120.56 506.53,110.37 487,122 C438.21,151.05 415.7268,212.3009 406.0168,247.9509 " fill="none" id="BDUtilidades-to-HabitacionInfo" style="stroke:#181818;stroke-width:1.0;stroke-dasharray:7.0,7.0;"/>
            <polygon fill="#181818" points="404.44,253.74,410.6646,246.1075,405.754,248.9157,402.9458,244.0052,404.44,253.74" style="stroke:#181818;stroke-width:1.0;"/>
        </g>
        <!--link BDUtilidades to MensajeError-->
        <g id="link_BDUtilidades_MensajeError">
            <path codeLine="26" d="M941.95,90.01 C928.83,99.35 912.48,109.08 896,114 C865.39,123.13 347.99,104.91 321,122 C274.53,151.42 256.7869,212.4126 249.8069,247.9326 " fill="none" id="BDUtilidades-to-MensajeError" style="stroke:#181818;stroke-width:1.0;stroke-dasharray:7.0,7.0;"/>
            <polygon fill="#181818" points="248.65,253.82,254.3103,245.7602,249.6141,248.9138,246.4605,244.2176,248.65,253.82" style="stroke:#181818;stroke-width:1.0;"/>
        </g>
        <!--link BDUtilidades to ReservaInfo-->
        <g id="link_BDUtilidades_ReservaInfo">
            <path codeLine="27" d="M941.96,90.03 C928.84,99.38 912.49,109.11 896,114 C876.64,119.74 185.96,111.04 169,122 C123.26,151.54 107.1086,212.4554 101.0586,247.9354 " fill="none" id="BDUtilidades-to-ReservaInfo" style="stroke:#181818;stroke-width:1.0;stroke-dasharray:7.0,7.0;"/>
            <polygon fill="#181818" points="100.05,253.85,105.5059,245.6504,100.8905,248.9211,97.6197,244.3057,100.05,253.85" style="stroke:#181818;stroke-width:1.0;"/>
        </g>
        <!--link BDUtilidades to BigDecimal-->
        <g id="link_BDUtilidades_BigDecimal">
            <path codeLine="28" d="M941.58,90.19 C928.52,99.45 912.31,109.06 896,114 C876.8,119.81 550.58,109.36 535,122 C445.66,194.46 565.13,301.29 476,374 C451.19,394.24 216.74,367.91 188,382 C150.19,400.54 125.4805,437.695 111.1305,464.395 " fill="none" id="BDUtilidades-to-BigDecimal" style="stroke:#181818;stroke-width:1.0;stroke-dasharray:7.0,7.0;"/>
            <polygon fill="#181818" points="108.29,469.68,116.0741,463.6461,110.6571,465.2758,109.0273,459.8588,108.29,469.68" style="stroke:#181818;stroke-width:1.0;"/>
        </g>
        <!--link BDUtilidades to Connection-->
        <g id="link_BDUtilidades_Connection">
            <path codeLine="29" d="M938.41,90.07 C925.71,98.52 910.64,107.58 896,114 C883.36,119.54 876.18,112.68 866,122 C812.03,171.4 755.5888,390.6077 737.8688,463.9677 " fill="none" id="BDUtilidades-to-Connection" style="stroke:#181818;stroke-width:1.0;stroke-dasharray:7.0,7.0;"/>
            <polygon fill="#181818" points="736.46,469.8,742.4613,461.9908,737.634,464.9398,734.685,460.1124,736.46,469.8" style="stroke:#181818;stroke-width:1.0;"/>
        </g>
        <!--link BDUtilidades to PreparedStatement-->
        <g id="link_BDUtilidades_PreparedStatement">
            <path codeLine="30" d="M941.57,90.15 C928.5,99.4 912.3,109.02 896,114 C880.59,118.71 618.64,112 606,122 C515.11,193.9 629.1,301.12 539,374 C524.99,385.33 393.18,374.06 377,382 C338.52,400.88 312.4353,438.0112 297.1153,464.6012 " fill="none" id="BDUtilidades-to-PreparedStatement" style="stroke:#181818;stroke-width:1.0;stroke-dasharray:7.0,7.0;"/>
            <polygon fill="#181818" points="294.12,469.8,302.0789,463.9986,296.6161,465.4676,295.1471,460.0048,294.12,469.8" style="stroke:#181818;stroke-width:1.0;"/>
        </g>
        <!--link BDUtilidades to ResultSet-->
        <g id="link_BDUtilidades_ResultSet">
            <path codeLine="31" d="M941.55,90.08 C928.48,99.32 912.28,108.94 896,114 C872.75,121.22 696.03,106.81 677,122 C586.43,194.3 699.12,299.92 610,374 C592,388.96 524.8,369.53 505,382 C473.38,401.91 457.5332,437.7769 449.1132,464.0169 " fill="none" id="BDUtilidades-to-ResultSet" style="stroke:#181818;stroke-width:1.0;stroke-dasharray:7.0,7.0;"/>
            <polygon fill="#181818" points="447.28,469.73,453.8386,462.3825,448.8077,464.9691,446.2211,459.9382,447.28,469.73" style="stroke:#181818;stroke-width:1.0;"/>
        </g>
        <!--link BDUtilidades to SQLException-->
        <g id="link_BDUtilidades_SQLException">
            <path codeLine="32" d="M941.15,90.17 C928.13,99.3 912.08,108.83 896,114 C881.06,118.81 767.29,112.24 755,122 C663.57,194.57 759.53,287.64 681,374 C674.56,381.08 668.51,376.06 661,382 C630.71,405.97 610.0023,439.4641 597.0223,464.2641 " fill="none" id="BDUtilidades-to-SQLException" style="stroke:#181818;stroke-width:1.0;stroke-dasharray:7.0,7.0;"/>
            <polygon fill="#181818" points="594.24,469.58,601.9574,463.461,596.5586,465.1501,594.8695,459.7513,594.24,469.58" style="stroke:#181818;stroke-width:1.0;"/>
        </g>
        <!--link BDUtilidades to LocalDate-->
        <g id="link_BDUtilidades_LocalDate">
            <path codeLine="33" d="M938.18,90.04 C928.39,98.87 918.7,109.79 913,122 C856.75,242.53 873.3117,403.3746 882.2717,463.9246 " fill="none" id="BDUtilidades-to-LocalDate" style="stroke:#181818;stroke-width:1.0;stroke-dasharray:7.0,7.0;"/>
            <polygon fill="#181818" points="883.15,469.86,885.7895,460.3714,882.4181,464.9139,877.8756,461.5425,883.15,469.86" style="stroke:#181818;stroke-width:1.0;"/>
        </g>
        <!--link BDUtilidades to ArrayList-->
        <g id="link_BDUtilidades_ArrayList">
            <path codeLine="34" d="M962.2,90.11 C944.59,147.06 908.87,295.24 984,374 C997.25,387.89 1053.91,371.53 1070,382 C1101.08,402.23 1116.3115,437.9735 1124.3215,464.1035 " fill="none" id="BDUtilidades-to-ArrayList" style="stroke:#181818;stroke-width:1.0;stroke-dasharray:7.0,7.0;"/>
            <polygon fill="#181818" points="1126.08,469.84,1127.2666,460.0629,1124.6146,465.0596,1119.6179,462.4075,1126.08,469.84" style="stroke:#181818;stroke-width:1.0;"/>
        </g>
        <!--link BDUtilidades to List-->
        <g id="link_BDUtilidades_List">
            <path codeLine="35" d="M977.91,90.19 C981.16,99.97 984.89,111.5 988,122 C1020.93,233.12 965.21,300.73 1055,374 C1078.8,393.42 1168.03,364.11 1193,382 C1221.4,402.35 1231.0196,437.8549 1234.8896,463.9449 " fill="none" id="BDUtilidades-to-List" style="stroke:#181818;stroke-width:1.0;stroke-dasharray:7.0,7.0;"/>
            <polygon fill="#181818" points="1235.77,469.88,1238.4062,460.3905,1235.0364,464.9341,1230.4927,461.5643,1235.77,469.88" style="stroke:#181818;stroke-width:1.0;"/>
        </g>
        <!--link BDUtilidades to Properties-->
        <g id="link_BDUtilidades_Properties">
            <path codeLine="36" d="M1014.47,90.27 C1026.95,98.74 1039.43,109.39 1048,122 C1112.79,217.3 1020.11,300.67 1109,374 C1123.84,386.25 1265.47,372.16 1282,382 C1314.69,401.46 1331.4936,437.9177 1340.4436,464.3177 " fill="none" id="BDUtilidades-to-Properties" style="stroke:#181818;stroke-width:1.0;stroke-dasharray:7.0,7.0;"/>
            <polygon fill="#181818" points="1342.37,470,1343.2686,460.1922,1340.7647,465.2647,1335.6922,462.7608,1342.37,470" style="stroke:#181818;stroke-width:1.0;"/>
        </g>
        <!--link ConfigLoader to IOException-->
        <g id="link_ConfigLoader_IOException">
            <path codeLine="37" d="M1153.01,90.2 C1163.78,99.12 1175.01,110.05 1183,122 C1248.68,220.27 1173.91,302.46 1268,374 C1293.87,393.67 1384.91,367.53 1414,382 C1452.21,401 1477.9723,438.0754 1493.0823,464.6254 " fill="none" id="ConfigLoader-to-IOException" style="stroke:#181818;stroke-width:1.0;stroke-dasharray:7.0,7.0;"/>
            <polygon fill="#181818" points="1496.05,469.84,1495.0748,460.0395,1493.5769,465.4945,1488.122,463.9965,1496.05,469.84" style="stroke:#181818;stroke-width:1.0;"/>
        </g>
        <!--link ConfigLoader to InputStream-->
        <g id="link_ConfigLoader_InputStream">
            <path codeLine="38" d="M1151.5,90.21 C1164.9,99 1181.09,108.26 1197,114 C1220.24,122.38 1232.03,107.47 1252,122 C1352.94,195.44 1271.35,305.96 1376,374 C1394.93,386.3 1559.38,370.84 1579,382 C1612.74,401.2 1631.1743,437.813 1641.2643,464.303 " fill="none" id="ConfigLoader-to-InputStream" style="stroke:#181818;stroke-width:1.0;stroke-dasharray:7.0,7.0;"/>
            <polygon fill="#181818" points="1643.4,469.91,1643.9345,460.0757,1641.6202,465.2375,1636.4584,462.9233,1643.4,469.91" style="stroke:#181818;stroke-width:1.0;"/>
        </g>
        <!--link ConfigLoader to Properties-->
        <g id="link_ConfigLoader_Properties">
            <path codeLine="39" d="M1117.74,90.39 C1113.56,148.64 1111.74,300.8 1197,374 C1211.39,386.36 1265.93,371.91 1282,382 C1314.02,402.11 1330.8859,437.9676 1340.0559,464.1376 " fill="none" id="ConfigLoader-to-Properties" style="stroke:#181818;stroke-width:1.0;stroke-dasharray:7.0,7.0;"/>
            <polygon fill="#181818" points="1342.04,469.8,1342.8388,459.9836,1340.3866,465.0813,1335.2888,462.6291,1342.04,469.8" style="stroke:#181818;stroke-width:1.0;"/>
        </g>
        <!--link DataSourceManager to HikariConfig-->
        <g id="link_DataSourceManager_HikariConfig">
            <path codeLine="40" d="M1503.74,90.07 C1521.12,98.1 1538.49,108.57 1552,122 C1589.68,159.46 1607.9529,214.7746 1616.3829,247.9646 " fill="none" id="DataSourceManager-to-HikariConfig" style="stroke:#181818;stroke-width:1.0;stroke-dasharray:7.0,7.0;"/>
            <polygon fill="#181818" points="1617.86,253.78,1619.5213,244.0723,1616.6291,248.9339,1611.7675,246.0417,1617.86,253.78" style="stroke:#181818;stroke-width:1.0;"/>
        </g>
        <!--link DataSourceManager to HikariDataSource-->
        <g id="link_DataSourceManager_HikariDataSource">
            <path codeLine="41" d="M1433.66,90.28 C1440.02,130.75 1452.108,207.6928 1458.448,248.0128 " fill="none" id="DataSourceManager-to-HikariDataSource" style="stroke:#181818;stroke-width:1.0;stroke-dasharray:7.0,7.0;"/>
            <polygon fill="#181818" points="1459.38,253.94,1461.9334,244.4279,1458.6033,249.0007,1454.0306,245.6706,1459.38,253.94" style="stroke:#181818;stroke-width:1.0;"/>
        </g>
        <!--link DataSourceManager to Connection-->
        <g id="link_DataSourceManager_Connection">
            <path codeLine="42" d="M1511.8,67.18 C1609.52,69.35 1764.42,79.6 1801,122 C1874.16,206.8 1879.87,294.48 1801,374 C1791.43,383.64 835.27,376.17 823,382 C784.79,400.15 759.7957,437.4332 745.2757,464.2632 " fill="none" id="DataSourceManager-to-Connection" style="stroke:#181818;stroke-width:1.0;stroke-dasharray:7.0,7.0;"/>
            <polygon fill="#181818" points="742.42,469.54,750.2215,463.5286,744.7998,465.1427,743.1857,459.721,742.42,469.54" style="stroke:#181818;stroke-width:1.0;"/>
        </g>
        <!--link DataSourceManager to SQLException-->
        <g id="link_DataSourceManager_SQLException">
            <path codeLine="43" d="M1511.53,72.99 C1580.07,79.93 1670.39,94.17 1693,122 C1763.63,208.92 1771.89,294.5 1693,374 C1682.9,384.17 673.69,375.34 661,382 C625.75,400.49 605.3975,437.4183 594.0375,464.1383 " fill="none" id="DataSourceManager-to-SQLException" style="stroke:#181818;stroke-width:1.0;stroke-dasharray:7.0,7.0;"/>
            <polygon fill="#181818" points="591.69,469.66,598.8924,462.9425,593.6463,465.0586,591.5302,459.8124,591.69,469.66" style="stroke:#181818;stroke-width:1.0;"/>
        </g>
        <!--link DataSourceManager to Properties-->
        <g id="link_DataSourceManager_Properties">
            <path codeLine="44" d="M1511.61,71.4 C1632.78,78.77 1848.58,95.48 1872,122 C1946.15,205.94 1950.46,294.08 1872,374 C1855.11,391.21 1459.64,371.37 1438,382 C1400.53,400.41 1376.5142,437.5647 1362.6342,464.3047 " fill="none" id="DataSourceManager-to-Properties" style="stroke:#181818;stroke-width:1.0;stroke-dasharray:7.0,7.0;"/>
            <polygon fill="#181818" points="1359.87,469.63,1367.5666,463.4848,1362.1735,465.1922,1360.4661,459.7992,1359.87,469.63" style="stroke:#181818;stroke-width:1.0;"/>
        </g>
        <!--SRC=[dPHlRW8X4CM_znIUW2CqgNyIJTPKk_40KnmLoy9sO8tjwKit9el02ksdpURz7c6ODyCb63FPMI757lPes1BUXGKkj5gfWtxYeRv6PU2C2o9DiVg61ka2dfNhXdt3zOh4Jk83IB1b_vbfTH3733G72xNkYECDFCC5cD1izRguScojksQegBQpjIM4nbSQi2Ss5SSvSj60z2NpAPcxZK8U7lUhR0XR8DpN5Ymsg6m8k98xQMkCX7fR9IzfHOEiqXoaA- -kiCuz97iXWgzA61ifIJn9RaYtI5QWkKdTqABfVEXNhCwaS3MYrq1Vx7jMQVT3iJeqQmqAZYbaPphNLTsVdaxDXB7dTCTo_F148yNsw7ZI2rrt-I_q-5Fno9AiEsi8ybl4nwakiWrPByBl9Y3h2EOYomVJKiR_0VM6Q6G61aEmaefuRr5b-GSNYiQkTsNMxh_ztaREdf59PyOq5fu7jk2LVW00]-->
    </g>
</svg>
